<?xml version="1.0" encoding="utf-8"?>
<!-- Generator: Adobe Illustrator 19.0.0, SVG Export Plug-In . SVG Version: 6.00 Build 0)  -->
<!DOCTYPE svg PUBLIC "-//W3C//DTD SVG 1.1//EN" "http://www.w3.org/Graphics/SVG/1.1/DTD/svg11.dtd">
<svg version="1.1" id="Layer_1" xmlns="http://www.w3.org/2000/svg" xmlns:xlink="http://www.w3.org/1999/xlink" x="0px" y="0px"
	 viewBox="-455 256.1 48.9 48.9" enable-background="new -455 256.1 48.9 48.9" xml:space="preserve">
<circle id="XMLID_25_" fill="#6EA34E" cx="-430.6" cy="280.6" r="24.4"/>
<path fill="#FFFFFF" stroke="#FFFFFF" stroke-miterlimit="10" d="M-430.3,288.6c-2.9,0-5.9,0-8.8,0c-2.8,0-5.3-2.1-5.6-4.8
	c-0.3-3,1.4-5.5,4.3-6.2c0.5-0.1,0.7-0.3,0.9-0.8c1-2.6,3.9-3.8,6.5-2.8c0.4,0.2,0.7,0.2,0.9-0.3c1.7-2.5,4.5-3.6,7.4-3
	c2.8,0.6,4.9,3,5.4,5.9c0.1,0.6,0.1,1.3,0,2c-0.1,0.5,0,0.6,0.4,0.9c1.8,1.1,2.7,3,2.3,5.2c-0.3,1.9-1.8,3.4-3.8,3.8
	c-0.4,0.1-0.8,0.1-1.2,0.1C-424.4,288.6-427.3,288.6-430.3,288.6z M-421.5,280.4c1.3-3.8,0.3-6.6-2.7-7.8c-1.7-0.7-3.4-0.5-5,0.5
	c-1.5,1-2.3,2.5-2.4,4.5c-0.8-1.7-2-2.5-3.7-2.3c-2.1,0.3-2.9,1.8-3,3.8c-0.3,0-0.5,0-0.7,0c-2.1-0.1-4,1.7-4,3.7
	c-0.1,2.3,1.6,4.1,3.8,4.2c6,0,11.9,0,17.9,0c1.3,0,2.3-0.6,2.9-1.8c0.6-1.1,0.5-2.3-0.2-3.3C-419.3,280.8-420.3,280.4-421.5,280.4z
	"/>
</svg>
