<?xml version="1.0" encoding="utf-8"?>
<!-- Generator: Adobe Illustrator 19.0.0, SVG Export Plug-In . SVG Version: 6.00 Build 0)  -->
<!DOCTYPE svg PUBLIC "-//W3C//DTD SVG 1.1//EN" "http://www.w3.org/Graphics/SVG/1.1/DTD/svg11.dtd">
<svg version="1.1" id="Layer_1" xmlns="http://www.w3.org/2000/svg" xmlns:xlink="http://www.w3.org/1999/xlink" x="0px" y="0px"
	 viewBox="-224 381 162.8 32" enable-background="new -224 381 162.8 32" xml:space="preserve">
<g>
	<g>
		<path fill="#B0B3AB" d="M-180.7,400.9h-1.8v-9.4h1.8V400.9z"/>
		<path fill="#B0B3AB" d="M-176.8,391.5c0.1,0,0.1,0,0.1,0s0.1,0,0.1,0.1l0.1,0.1l4.9,6.3c0-0.2,0-0.3,0-0.4s0-0.3,0-0.4v-5.7h1.6
			v9.4h-0.9c-0.1,0-0.3,0-0.3-0.1c-0.1,0-0.2-0.1-0.3-0.2l-4.9-6.3c0,0.1,0,0.3,0,0.4c0,0.1,0,0.3,0,0.4v5.8h-1.5v-9.4h0.9
			C-176.9,391.5-176.8,391.5-176.8,391.5z"/>
		<path fill="#B0B3AB" d="M-168.3,391.5h1.4c0.2,0,0.3,0,0.4,0.1s0.2,0.2,0.2,0.3l2.2,5.7c0.1,0.2,0.1,0.4,0.2,0.6
			c0.1,0.2,0.1,0.5,0.2,0.7c0.1-0.5,0.2-0.9,0.4-1.3l2.2-5.7c0-0.1,0.1-0.2,0.2-0.3s0.2-0.1,0.4-0.1h1.4l-3.9,9.4h-1.6L-168.3,391.5
			z"/>
		<path fill="#B0B3AB" d="M-151.6,391.5v1.4h-4.2v2.6h3.3v1.3h-3.3v2.7h4.2v1.4h-5.9v-9.4H-151.6z"/>
		<path fill="#B0B3AB" d="M-144.4,393.2c0,0.1-0.1,0.2-0.2,0.2c-0.1,0-0.1,0.1-0.2,0.1c-0.1,0-0.2,0-0.3-0.1
			c-0.1-0.1-0.2-0.1-0.4-0.2c-0.1-0.1-0.3-0.2-0.5-0.2c-0.2-0.1-0.4-0.1-0.7-0.1c-0.2,0-0.5,0-0.6,0.1c-0.1,0.1-0.3,0.1-0.5,0.2
			c-0.2,0.1-0.2,0.2-0.3,0.4c-0.1,0.1-0.1,0.3-0.1,0.5c0,0.2,0.1,0.4,0.2,0.6c0.1,0.1,0.3,0.3,0.5,0.4s0.4,0.2,0.7,0.3
			s0.5,0.2,0.8,0.3c0.3,0.1,0.5,0.2,0.8,0.3s0.5,0.3,0.7,0.5s0.4,0.4,0.5,0.7c0.1,0.3,0.2,0.6,0.2,1c0,0.4-0.1,0.8-0.2,1.2
			s-0.4,0.7-0.6,1c-0.3,0.3-0.6,0.5-1,0.6c-0.4,0.1-1,0-1.5,0c-0.3,0-0.6,0-0.9-0.1s-0.6-0.1-0.8-0.2c-0.3-0.1-0.5-0.2-0.7-0.4
			c-0.2-0.2-0.4-0.3-0.6-0.5l0.5-0.8c0-0.1,0.1-0.1,0.2-0.2c0.1,0,0.1-0.1,0.2-0.1c0.1,0,0.2,0,0.4,0.1c0.1,0.1,0.3,0.2,0.4,0.3
			c0.2,0.1,0.4,0.2,0.6,0.3s0.5,0.1,0.8,0.1c0.5,0,0.9-0.1,1.2-0.4c0.3-0.2,0.4-0.6,0.4-1c0-0.2-0.1-0.4-0.2-0.6
			c-0.1-0.2-0.3-0.3-0.5-0.4c-0.2-0.1-0.4-0.2-0.7-0.3c-0.3-0.1-0.5-0.2-0.8-0.2c-0.3-0.1-0.5-0.2-0.8-0.3c-0.3-0.1-0.5-0.3-0.7-0.5
			c-0.2-0.2-0.4-0.4-0.5-0.7c-0.1-0.3-0.2-0.7-0.2-1.1c0-0.3,0.1-0.7,0.2-1c0.1-0.3,0.3-0.6,0.6-0.9c0.3-0.3,0.6-0.5,1-0.6
			s0.8-0.2,1.3-0.2c0.6,0,1.1,0.1,1.5,0.3c0.5,0.2,0.9,0.4,1.2,0.7L-144.4,393.2z"/>
		<path fill="#B0B3AB" d="M-135.2,391.5v1.5h-2.8v8h-1.7v-8h-2.8v-1.4h7.3V391.5z"/>
		<path fill="#B0B3AB" d="M-124.4,391.5v1.4h-4.2v2.8h3.6v1.4h-3.5v3.8h-1.8v-9.4H-124.4z"/>
		<path fill="#B0B3AB" d="M-113.3,396.2c0,0.7-0.1,1.3-0.3,1.9c-0.2,0.6-0.6,1.1-1,1.5s-0.9,0.8-1.5,1c-0.6,0.2-1.2,0.4-1.9,0.4
			s-1.4-0.1-1.9-0.4c-0.5-0.3-1.1-0.6-1.5-1s-0.7-0.9-1-1.5c-0.2-0.6-0.3-1.2-0.3-1.9c0-0.7,0.1-1.3,0.3-1.9c0.2-0.6,0.6-1.1,1-1.5
			c0.4-0.4,0.9-0.8,1.5-1c0.6-0.2,1.2-0.4,1.9-0.4s1.4,0.1,1.9,0.4c0.6,0.2,1.1,0.6,1.5,1c0.4,0.4,0.7,0.9,1,1.5
			C-113.4,394.9-113.3,395.5-113.3,396.2z M-115.1,396.2c0-0.5-0.1-1-0.2-1.4c-0.1-0.4-0.3-0.8-0.6-1c-0.3-0.3-0.6-0.5-0.9-0.7
			c-0.4-0.2-0.8-0.2-1.2-0.2s-0.9,0.1-1.2,0.2c-0.4,0.2-0.7,0.4-0.9,0.7c-0.3,0.3-0.5,0.6-0.6,1c-0.1,0.4-0.2,0.9-0.2,1.4
			s0.1,1,0.2,1.4s0.3,0.8,0.6,1c0.3,0.3,0.6,0.5,0.9,0.7c0.4,0.2,0.8,0.2,1.2,0.2s0.9-0.1,1.2-0.2c0.4-0.2,0.7-0.4,0.9-0.7
			c0.3-0.3,0.5-0.6,0.6-1S-115.1,396.7-115.1,396.2z"/>
		<path fill="#B0B3AB" d="M-109.5,397.3v3.7h-1.7v-9.4h2.9c0.6,0,1.2,0.1,1.6,0.2c0.4,0.1,0.8,0.3,1.1,0.6c0.3,0.2,0.5,0.5,0.6,0.9
			c0.1,0.3,0.2,0.7,0.2,1.1c0,0.3,0,0.6-0.1,0.9c-0.1,0.3-0.2,0.5-0.4,0.8c-0.2,0.2-0.4,0.4-0.7,0.6c-0.3,0.2-0.6,0.3-0.9,0.4
			c0.2,0.1,0.4,0.3,0.6,0.5l2.4,3.5h-1.6c-0.2,0-0.3,0-0.4-0.1s-0.2-0.1-0.3-0.3l-2-3c-0.1-0.1-0.2-0.2-0.2-0.2
			c-0.1,0-0.2-0.1-0.4-0.1h-0.7V397.3z M-109.5,396h1.1c0.3,0,0.6,0,0.9-0.1c0.2-0.1,0.4-0.2,0.6-0.3s0.3-0.3,0.4-0.5
			c0.1-0.2,0.1-0.4,0.1-0.7c0-0.5-0.2-0.8-0.5-1.1c-0.3-0.3-0.8-0.4-1.4-0.4h-1.1L-109.5,396L-109.5,396z"/>
		<path fill="#B0B3AB" d="M-103,391.5h1.5c0.2,0,0.3,0,0.4,0.1s0.2,0.2,0.2,0.3l1.6,5.6c0,0.1,0.1,0.3,0.1,0.5s0.1,0.3,0.1,0.5
			c0-0.2,0.1-0.4,0.1-0.5c0-0.2,0.1-0.3,0.1-0.5l1.8-5.6c0-0.1,0.1-0.2,0.2-0.3s0.2-0.1,0.4-0.1h0.5c0.2,0,0.3,0,0.4,0.1
			s0.2,0.2,0.2,0.3l1.8,5.6c0.1,0.3,0.2,0.6,0.2,0.9c0-0.2,0.1-0.3,0.1-0.5c0-0.2,0.1-0.3,0.1-0.4l1.6-5.6c0-0.1,0.1-0.2,0.2-0.3
			c0.1-0.1,0.2-0.1,0.4-0.1h1.4l-2.9,9.4H-94l-2.1-6.4c0-0.1-0.1-0.2-0.1-0.3c0-0.1-0.1-0.2-0.1-0.3c0,0.1-0.1,0.2-0.1,0.3
			c0,0.1-0.1,0.2-0.1,0.3l-2.1,6.4h-1.6L-103,391.5z"/>
		<path fill="#B0B3AB" d="M-80.4,400.9h-1.4c-0.2,0-0.3,0-0.4-0.1c-0.1-0.1-0.2-0.2-0.2-0.3l-0.7-1.9H-87l-0.7,1.9
			c0,0.1-0.1,0.2-0.2,0.3c-0.1,0.1-0.2,0.1-0.4,0.1h-1.4l3.7-9.4h1.8L-80.4,400.9z M-86.5,397.4h3l-1.1-3.1
			c-0.1-0.1-0.1-0.3-0.2-0.5c-0.1-0.2-0.1-0.4-0.2-0.6c-0.1,0.2-0.1,0.4-0.2,0.6c-0.1,0.2-0.1,0.4-0.2,0.5L-86.5,397.4z"/>
		<path fill="#B0B3AB" d="M-77,397.3v3.7h-1.7v-9.4h2.9c0.6,0,1.2,0.1,1.6,0.2c0.5,0.1,0.8,0.3,1.1,0.6c0.3,0.2,0.5,0.5,0.6,0.9
			c0.1,0.3,0.2,0.7,0.2,1.1c0,0.3,0,0.6-0.1,0.9c-0.1,0.3-0.2,0.5-0.4,0.8c-0.2,0.2-0.4,0.4-0.7,0.6c-0.3,0.2-0.6,0.3-0.9,0.4
			c0.2,0.1,0.4,0.3,0.6,0.5l2.4,3.5H-73c-0.2,0-0.3,0-0.4-0.1c-0.1-0.1-0.2-0.1-0.3-0.3l-2-3c-0.1-0.1-0.2-0.2-0.2-0.2
			c-0.1,0-0.2-0.1-0.4-0.1H-77V397.3z M-77,396h1.1c0.3,0,0.6,0,0.9-0.1c0.2-0.1,0.4-0.2,0.6-0.3c0.2-0.1,0.3-0.3,0.4-0.5
			c0.1-0.2,0.1-0.4,0.1-0.7c0-0.5-0.2-0.8-0.5-1.1c-0.3-0.3-0.8-0.4-1.4-0.4H-77V396z"/>
		<path fill="#B0B3AB" d="M-61.2,396.2c0,0.7-0.1,1.3-0.3,1.9s-0.6,1.1-1,1.5s-0.9,0.7-1.5,1c-0.6,0.2-1.2,0.3-1.9,0.3h-3.6v-9.4
			h3.6c0.7,0,1.4,0.1,1.9,0.3c0.6,0.2,1.1,0.6,1.5,1c0.4,0.4,0.7,0.9,1,1.5C-61.4,394.9-61.2,395.5-61.2,396.2z M-63,396.2
			c0-0.5-0.1-1-0.2-1.4c-0.1-0.4-0.3-0.8-0.6-1c-0.3-0.3-0.6-0.5-0.9-0.7c-0.4-0.2-0.8-0.2-1.2-0.2h-1.8v6.6h1.8
			c0.5,0,0.9-0.1,1.2-0.2c0.4-0.2,0.7-0.4,0.9-0.7c0.3-0.3,0.5-0.6,0.6-1C-63.1,397.2-63,396.7-63,396.2z"/>
	</g>
	<g>
		<path fill="#B0B3AB" d="M-208.7,395.2c0,0.4-0.2,0.6-0.5,0.9c-1.4,1.4-2.9,2.9-4.3,4.3c-0.5,0.5-1.1,0.8-1.6,0.2
			c-0.6-0.6-0.2-1.2,0.3-1.6c1-1,2-2.1,3.1-3.1c0.5-0.5,0.5-0.9,0-1.4c-1.1-1-2.1-2.1-3.1-3.1c-0.5-0.5-0.8-1-0.3-1.6
			c0.5-0.7,1.1-0.3,1.6,0.2c1.4,1.4,2.9,2.9,4.3,4.3C-208.9,394.5-208.7,394.8-208.7,395.2z"/>
		<path fill="#B0B3AB" d="M-205.8,392.1c0,0.4-0.2,0.7-0.5,0.9c-0.4,0.2-0.8,0.2-1.1-0.1c-1.6-1.6-3.2-3.2-4.9-4.9
			c-0.4-0.4-0.3-0.8,0-1.2c0.3-0.4,0.8-0.5,1.2-0.2c1.8,1.6,3.5,3.3,5.1,5.1C-205.8,391.9-205.8,392-205.8,392.1z"/>
		<path fill="#B0B3AB" d="M-211.5,404.4c-0.4,0-0.7-0.2-0.9-0.5c-0.2-0.4-0.2-0.8,0.1-1c1.6-1.6,3.2-3.3,4.8-4.9
			c0.4-0.4,0.9-0.4,1.3,0c0.5,0.4,0.5,1,0,1.4c-1.5,1.6-3.1,3.1-4.7,4.7C-211,404.2-211.2,404.3-211.5,404.4z"/>
		<circle fill="#B0B3AB" cx="-203.5" cy="395.3" r="1.1"/>
		<path fill="#B0B3AB" d="M-196.6,395.2h-0.9c0,3.4-1.4,6.5-3.6,8.8c-2.2,2.2-5.3,3.6-8.8,3.6c-3.4,0-6.5-1.4-8.8-3.6
			c-2.2-2.2-3.6-5.3-3.6-8.8c0-3.4,1.4-6.5,3.6-8.8c2.2-2.2,5.3-3.6,8.8-3.6c3.4,0,6.5,1.4,8.8,3.6c2.2,2.2,3.6,5.3,3.6,8.8H-196.6
			h0.9c0-7.9-6.3-14.2-14.1-14.2c-7.9,0-14.2,6.3-14.2,14.2c0,7.8,6.3,14.1,14.2,14.1c7.8,0,14.2-6.3,14.2-14.2h-1V395.2z"/>
	</g>
</g>
</svg>
