<?xml version="1.0" encoding="utf-8"?>
<!-- Generator: Adobe Illustrator 18.0.0, SVG Export Plug-In . SVG Version: 6.00 Build 0)  -->
<!DOCTYPE svg PUBLIC "-//W3C//DTD SVG 1.1//EN" "http://www.w3.org/Graphics/SVG/1.1/DTD/svg11.dtd">
<svg version="1.1" id="Layer_1" xmlns="http://www.w3.org/2000/svg" xmlns:xlink="http://www.w3.org/1999/xlink" x="0px" y="0px"
	 viewBox="0 595 203 205" enable-background="new 0 595 203 205" xml:space="preserve">
<g>
	<path fill="#2B2D2A" d="M109.5,697c0,2.7-1.7,4.4-3.4,6.2c-10.3,10.3-20.5,20.5-30.7,30.7c-3.7,3.7-7.5,5.8-11.9,1.4
		s-1.7-8.2,2.1-11.6c7.5-7.5,14.7-15,22.1-22.1c3.7-3.7,3.7-6.2,0-9.9c-7.5-7.1-14.7-14.7-22.1-22.1c-3.4-3.4-6.2-7.5-1.7-11.9
		c4.1-4.4,8.2-2.1,11.9,1.7c10.3,10.3,20.5,20.5,30.7,30.7C107.8,691.9,109.5,694,109.5,697z"/>
	<path fill="#2B2D2A" d="M130.6,674.5c0,3-1,5.1-3.4,6.5c-2.7,1.7-5.8,1.7-8.2-0.7c-11.9-11.6-23.5-23.2-35.1-35.1
		c-2.3-2.3-2.1-5.8,0.7-8.5c2.3-2.7,5.8-3.7,8.5-1.4c12.9,11.6,25.3,23.9,36.8,36.8C130.3,672.9,130.6,674.2,130.6,674.5z"/>
	<path fill="#2B2D2A" d="M89.7,762.5c-3,0-5.1-1.4-6.5-3.7c-1.4-2.7-1-5.5,0.7-7.5c11.6-11.6,22.8-23.2,34.8-34.8
		c2.7-2.7,6.5-2.7,9.6,0c3,3,3.4,6.9,0,9.9c-11.3,11.3-22.1,22.5-33.4,33.8C93.5,761.6,91.7,762.2,89.7,762.5z"/>
	<circle fill="#2B2D2A" cx="147.1" cy="697" r="8.2"/>
	<path fill="#2B2D2A" d="M196.5,696.4H190c0,24.6-9.9,46.7-25.9,62.8c-16.1,16.1-38.2,25.9-62.8,25.9s-46.7-9.9-62.8-25.9
		c-16.1-16.1-25.9-38.2-25.9-62.8s9.9-46.7,25.9-62.8c16.1-16.1,38.2-25.9,62.8-25.9s46.7,9.9,62.8,25.9
		c16.1,16.1,25.9,38.2,25.9,62.8H196.5h6.5c0-55.9-45.3-101.3-101.6-101.3C45.3,595.1,0,640.4,0,696.4
		c0,55.9,45.3,101.3,101.3,101.3s101.2-45.3,101.2-101.3H196.5z"/>
</g>
</svg>
