<?xml version="1.0" encoding="utf-8"?>
<!-- Generator: Adobe Illustrator 18.0.0, SVG Export Plug-In . SVG Version: 6.00 Build 0)  -->
<!DOCTYPE svg PUBLIC "-//W3C//DTD SVG 1.1//EN" "http://www.w3.org/Graphics/SVG/1.1/DTD/svg11.dtd">
<svg version="1.1" id="Layer_1" xmlns="http://www.w3.org/2000/svg" xmlns:xlink="http://www.w3.org/1999/xlink" x="0px" y="0px"
	 viewBox="0 0 584.7 106.4" enable-background="new 0 0 584.7 106.4" xml:space="preserve">
<g>
	<g>
		<path fill="#2B2D2A" d="M135.5,70.9h-6.8V35.5h6.8V70.9z"/>
		<path fill="#2B2D2A" d="M150.2,35.5c0.4,0,0.4,0,0.4,0s0.4,0,0.4,0.4l0.4,0.4L169.7,60c0-0.8,0-1.1,0-1.5c0-0.4,0-1.1,0-1.5V35.5
			h6v35.3h-3.4c-0.4,0-1.1,0-1.1-0.4c-0.4,0-0.8-0.4-1.1-0.8l-18.4-23.7c0,0.4,0,1.1,0,1.5c0,0.4,0,1.1,0,1.5v21.8H146V35.5h3.4
			C149.8,35.5,150.2,35.5,150.2,35.5z"/>
		<path fill="#2B2D2A" d="M182.1,35.5h5.3c0.8,0,1.1,0,1.5,0.4c0.4,0.4,0.8,0.8,0.8,1.1l8.3,21.4c0.4,0.8,0.4,1.5,0.8,2.3
			s0.4,1.9,0.8,2.6c0.4-1.9,0.8-3.4,1.5-4.9l8.3-21.4c0-0.4,0.4-0.8,0.8-1.1c0.4-0.4,0.8-0.4,1.5-0.4h5.3l-14.7,35.3h-6L182.1,35.5z
			"/>
		<path fill="#2B2D2A" d="M244.9,35.5v5.3h-15.8v9.8h12.4v4.9h-12.4v10.1h15.8v5.3h-22.2V35.5H244.9z"/>
		<path fill="#2B2D2A" d="M272,41.9c0,0.4-0.4,0.8-0.8,0.8s-0.4,0.4-0.8,0.4s-0.8,0-1.1-0.4c-0.4-0.4-0.8-0.4-1.5-0.8
			c-0.4-0.4-1.1-0.8-1.9-0.8c-0.8-0.4-1.5-0.4-2.6-0.4c-0.8,0-1.9,0-2.3,0.4s-1.1,0.4-1.9,0.8c-0.8,0.4-0.8,0.8-1.1,1.5
			c-0.4,0.4-0.4,1.1-0.4,1.9s0.4,1.5,0.8,2.3c0.4,0.4,1.1,1.1,1.9,1.5s1.5,0.8,2.6,1.1c1.1,0.4,1.9,0.8,3,1.1s1.9,0.8,3,1.1
			c1.1,0.4,1.9,1.1,2.6,1.9s1.5,1.5,1.9,2.6c0.4,1.1,0.8,2.3,0.8,3.8s-0.4,3-0.8,4.5c-0.4,1.5-1.5,2.6-2.3,3.8
			c-1.1,1.1-2.3,1.9-3.8,2.3s-3.8,0-5.6,0c-1.1,0-2.3,0-3.4-0.4s-2.3-0.4-3-0.8c-1.1-0.4-1.9-0.8-2.6-1.5c-0.8-0.8-1.5-1.1-2.3-1.9
			l1.9-3c0-0.4,0.4-0.4,0.8-0.8c0.4,0,0.4-0.4,0.8-0.4s0.8,0,1.5,0.4c0.4,0.4,1.1,0.8,1.5,1.1c0.8,0.4,1.5,0.8,2.3,1.1
			c0.8,0.4,1.9,0.4,3,0.4c1.9,0,3.4-0.4,4.5-1.5c1.1-0.8,1.5-2.3,1.5-3.8c0-0.8-0.4-1.5-0.8-2.3c-0.4-0.8-1.1-1.1-1.9-1.5
			s-1.5-0.8-2.6-1.1c-1.1-0.4-1.9-0.8-3-0.8c-1.1-0.4-1.9-0.8-3-1.1c-1.1-0.4-1.9-1.1-2.6-1.9s-1.5-1.5-1.9-2.6
			c-0.4-1.1-0.8-2.6-0.8-4.1c0-1.1,0.4-2.6,0.8-3.8s1.1-2.3,2.3-3.4c1.1-1.1,2.3-1.9,3.8-2.3s3-0.8,4.9-0.8c2.3,0,4.1,0.4,5.6,1.1
			c1.9,0.8,3.4,1.5,4.5,2.6L272,41.9z"/>
		<path fill="#2B2D2A" d="M306.6,35.5v5.6H296v30.1h-6.4V41.2h-10.5v-5.3h27.4V35.5z"/>
		<path fill="#2B2D2A" d="M347.2,35.5v5.3h-15.8v10.5h13.5v5.3h-13.2v14.3H325V35.5H347.2z"/>
		<path fill="#2B2D2A" d="M388.9,53.2c0,2.6-0.4,4.9-1.1,7.1c-0.8,2.3-2.3,4.1-3.8,5.6c-1.5,1.5-3.4,3-5.6,3.8s-4.5,1.5-7.1,1.5
			s-5.3-0.4-7.1-1.5s-4.1-2.3-5.6-3.8c-1.5-1.5-2.6-3.4-3.8-5.6c-0.8-2.3-1.1-4.5-1.1-7.1c0-2.6,0.4-4.9,1.1-7.1
			c0.8-2.3,2.3-4.1,3.8-5.6c1.5-1.5,3.4-3,5.6-3.8c2.3-0.8,4.5-1.5,7.1-1.5s5.3,0.4,7.1,1.5c2.3,0.8,4.1,2.3,5.6,3.8
			c1.5,1.5,2.6,3.4,3.8,5.6C388.5,48.3,388.9,50.6,388.9,53.2z M382.1,53.2c0-1.9-0.4-3.8-0.8-5.3c-0.4-1.5-1.1-3-2.3-3.8
			c-1.1-1.1-2.3-1.9-3.4-2.6c-1.5-0.8-3-0.8-4.5-0.8s-3.4,0.4-4.5,0.8c-1.5,0.8-2.6,1.5-3.4,2.6c-1.1,1.1-1.9,2.3-2.3,3.8
			c-0.4,1.5-0.8,3.4-0.8,5.3c0,1.9,0.4,3.8,0.8,5.3c0.4,1.5,1.1,3,2.3,3.8c1.1,1.1,2.3,1.9,3.4,2.6c1.5,0.8,3,0.8,4.5,0.8
			s3.4-0.4,4.5-0.8c1.5-0.8,2.6-1.5,3.4-2.6c1.1-1.1,1.9-2.3,2.3-3.8C381.7,57,382.1,55.1,382.1,53.2z"/>
		<path fill="#2B2D2A" d="M403.2,57.3v13.9h-6.4V35.9h10.9c2.3,0,4.5,0.4,6,0.8s3,1.1,4.1,2.3c1.1,0.8,1.9,1.9,2.3,3.4
			c0.4,1.1,0.8,2.6,0.8,4.1c0,1.1,0,2.3-0.4,3.4s-0.8,1.9-1.5,3c-0.8,0.8-1.5,1.5-2.6,2.3c-1.1,0.8-2.3,1.1-3.4,1.5
			c0.8,0.4,1.5,1.1,2.3,1.9l9,13.2h-6c-0.8,0-1.1,0-1.5-0.4s-0.8-0.4-1.1-1.1l-7.5-11.3c-0.4-0.4-0.8-0.8-0.8-0.8
			c-0.4,0-0.8-0.4-1.5-0.4h-2.6V57.3z M403.2,52.4h4.1c1.1,0,2.3,0,3.4-0.4c0.8-0.4,1.5-0.8,2.3-1.1s1.1-1.1,1.5-1.9
			s0.4-1.5,0.4-2.6c0-1.9-0.8-3-1.9-4.1c-1.1-1.1-3-1.5-5.3-1.5h-4.1v11.7H403.2z"/>
		<path fill="#2B2D2A" d="M427.6,35.5h5.6c0.8,0,1.1,0,1.5,0.4c0.4,0.4,0.8,0.8,0.8,1.1l6,21.1c0,0.4,0.4,1.1,0.4,1.9
			s0.4,1.1,0.4,1.9c0-0.8,0.4-1.5,0.4-1.9c0-0.8,0.4-1.1,0.4-1.9l6.8-21.1c0-0.4,0.4-0.8,0.8-1.1s0.8-0.4,1.5-0.4h1.9
			c0.8,0,1.1,0,1.5,0.4s0.8,0.8,0.8,1.1l6.8,21.1c0.4,1.1,0.8,2.3,0.8,3.4c0-0.8,0.4-1.1,0.4-1.9s0.4-1.1,0.4-1.5l6-21.1
			c0-0.4,0.4-0.8,0.8-1.1c0.4-0.4,0.8-0.4,1.5-0.4h5.3l-10.9,35.3h-5.6l-7.9-24.1c0-0.4-0.4-0.8-0.4-1.1s-0.4-0.8-0.4-1.1
			c0,0.4-0.4,0.8-0.4,1.1s-0.4,0.8-0.4,1.1l-7.9,24.1h-6L427.6,35.5z"/>
		<path fill="#2B2D2A" d="M512.6,70.9h-5.3c-0.8,0-1.1,0-1.5-0.4c-0.4-0.4-0.8-0.8-0.8-1.1l-2.6-7.1h-14.7l-2.6,7.1
			c0,0.4-0.4,0.8-0.8,1.1c-0.4,0.4-0.8,0.4-1.5,0.4h-5.3l13.9-35.3h6.8L512.6,70.9z M489.6,57.7h11.3l-4.1-11.7
			c-0.4-0.4-0.4-1.1-0.8-1.9c-0.4-0.8-0.4-1.5-0.8-2.3c-0.4,0.8-0.4,1.5-0.8,2.3c-0.4,0.8-0.4,1.5-0.8,1.9L489.6,57.7z"/>
		<path fill="#2B2D2A" d="M525.4,57.3v13.9H519V35.9h10.9c2.3,0,4.5,0.4,6,0.8c1.9,0.4,3,1.1,4.1,2.3c1.1,0.8,1.9,1.9,2.3,3.4
			c0.4,1.1,0.8,2.6,0.8,4.1c0,1.1,0,2.3-0.4,3.4c-0.4,1.1-0.8,1.9-1.5,3c-0.8,0.8-1.5,1.5-2.6,2.3c-1.1,0.8-2.3,1.1-3.4,1.5
			c0.8,0.4,1.5,1.1,2.3,1.9l9,13.2h-6c-0.8,0-1.1,0-1.5-0.4s-0.8-0.4-1.1-1.1l-7.5-11.3c-0.4-0.4-0.8-0.8-0.8-0.8
			c-0.4,0-0.8-0.4-1.5-0.4h-2.6V57.3z M525.4,52.4h4.1c1.1,0,2.3,0,3.4-0.4c0.8-0.4,1.5-0.8,2.3-1.1c0.8-0.4,1.1-1.1,1.5-1.9
			s0.4-1.5,0.4-2.6c0-1.9-0.8-3-1.9-4.1c-1.1-1.1-3-1.5-5.3-1.5h-4.5V52.4z"/>
		<path fill="#2B2D2A" d="M584.7,53.2c0,2.6-0.4,4.9-1.1,7.1c-0.8,2.3-2.3,4.1-3.8,5.6c-1.5,1.5-3.4,2.6-5.6,3.8
			c-2.3,0.8-4.5,1.1-7.1,1.1h-13.5V35.5h13.5c2.6,0,5.3,0.4,7.1,1.1c2.3,0.8,4.1,2.3,5.6,3.8s2.6,3.4,3.8,5.6
			C584,48.3,584.7,50.6,584.7,53.2z M578,53.2c0-1.9-0.4-3.8-0.8-5.3c-0.4-1.5-1.1-3-2.3-3.8c-1.1-1.1-2.3-1.9-3.4-2.6
			c-1.5-0.8-3-0.8-4.5-0.8h-6.8v24.8h6.8c1.9,0,3.4-0.4,4.5-0.8c1.5-0.8,2.6-1.5,3.4-2.6c1.1-1.1,1.9-2.3,2.3-3.8
			C577.6,57,578,55.1,578,53.2z"/>
	</g>
	<g>
		<path fill="#2B2D2A" d="M57.5,53.4c0,1.5-0.8,2.3-1.9,3.4C50.4,62,44.7,67.7,39.5,72.9c-1.9,1.9-4.1,3-6,0.8
			c-2.3-2.3-0.8-4.5,1.1-6c3.8-3.8,7.5-7.9,11.7-11.7c1.9-1.9,1.9-3.4,0-5.3c-4.1-3.8-7.9-7.9-11.7-11.7c-1.9-1.9-3-3.8-1.1-6
			c1.9-2.6,4.1-1.1,6,0.8c5.3,5.3,10.9,10.9,16.2,16.2C56.8,50.7,57.5,51.9,57.5,53.4z"/>
		<path fill="#2B2D2A" d="M68.4,41.7c0,1.5-0.8,2.6-1.9,3.4c-1.5,0.8-3,0.8-4.1-0.4c-6-6-12-12-18.4-18.4c-1.5-1.5-1.1-3,0-4.5
			c1.1-1.5,3-1.9,4.5-0.8c6.8,6,13.2,12.4,19.2,19.2C68.4,41,68.4,41.4,68.4,41.7z"/>
		<path fill="#2B2D2A" d="M47,88c-1.5,0-2.6-0.8-3.4-1.9c-0.8-1.5-0.8-3,0.4-3.8c6-6,12-12.4,18-18.4c1.5-1.5,3.4-1.5,4.9,0
			c1.9,1.5,1.9,3.8,0,5.3c-5.6,6-11.7,11.7-17.7,17.7C48.9,87.2,48.1,87.6,47,88z"/>
		<circle fill="#2B2D2A" cx="77.1" cy="53.8" r="4.1"/>
		<path fill="#2B2D2A" d="M103,53.4h-3.4c0,12.8-5.3,24.4-13.5,33.1C77.8,94.7,66.2,100,53,100c-12.8,0-24.4-5.3-33.1-13.5
			C11.7,78.2,6.4,66.5,6.4,53.4c0-12.8,5.3-24.4,13.5-33.1C28.2,12,39.8,6.8,53,6.8c12.8,0,24.4,5.3,33.1,13.5
			c8.3,8.3,13.5,19.9,13.5,33.1H103h3.4c0-29.7-23.7-53.4-53-53.4C23.7,0,0,23.7,0,53.4c0,29.3,23.7,53,53.4,53
			c29.3,0,53.4-23.7,53.4-53.4H103V53.4z"/>
	</g>
</g>
</svg>
