<?xml version="1.0" encoding="utf-8"?>
<!-- Generator: Adobe Illustrator 18.0.0, SVG Export Plug-In . SVG Version: 6.00 Build 0)  -->
<!DOCTYPE svg PUBLIC "-//W3C//DTD SVG 1.1//EN" "http://www.w3.org/Graphics/SVG/1.1/DTD/svg11.dtd">
<svg version="1.1" id="Layer_1" xmlns="http://www.w3.org/2000/svg" xmlns:xlink="http://www.w3.org/1999/xlink" x="0px" y="0px"
	 viewBox="0 0 162.8 32" enable-background="new 0 0 162.8 32" xml:space="preserve">
<g>
	<g>
		<path fill="#FFFFFF" d="M43.3,19.9h-1.8v-9.4h1.8V19.9z"/>
		<path fill="#FFFFFF" d="M47.2,10.5c0.1,0,0.1,0,0.1,0s0.1,0,0.1,0.1c0,0,0.1,0.1,0.1,0.1l4.9,6.3c0-0.2,0-0.3,0-0.4
			c0-0.1,0-0.3,0-0.4v-5.7H54v9.4h-0.9c-0.1,0-0.3,0-0.3-0.1c-0.1,0-0.2-0.1-0.3-0.2l-4.9-6.3c0,0.1,0,0.3,0,0.4c0,0.1,0,0.3,0,0.4
			v5.8h-1.5v-9.4H47C47.1,10.5,47.2,10.5,47.2,10.5z"/>
		<path fill="#FFFFFF" d="M55.7,10.5h1.4c0.2,0,0.3,0,0.4,0.1c0.1,0.1,0.2,0.2,0.2,0.3l2.2,5.7c0.1,0.2,0.1,0.4,0.2,0.6
			c0.1,0.2,0.1,0.5,0.2,0.7c0.1-0.5,0.2-0.9,0.4-1.3l2.2-5.7c0-0.1,0.1-0.2,0.2-0.3c0.1-0.1,0.2-0.1,0.4-0.1h1.4L61,19.9h-1.6
			L55.7,10.5z"/>
		<path fill="#FFFFFF" d="M72.4,10.5v1.4h-4.2v2.6h3.3v1.3h-3.3v2.7h4.2v1.4h-5.9v-9.4H72.4z"/>
		<path fill="#FFFFFF" d="M79.6,12.2c0,0.1-0.1,0.2-0.2,0.2c-0.1,0-0.1,0.1-0.2,0.1c-0.1,0-0.2,0-0.3-0.1c-0.1-0.1-0.2-0.1-0.4-0.2
			c-0.1-0.1-0.3-0.2-0.5-0.2c-0.2-0.1-0.4-0.1-0.7-0.1c-0.2,0-0.5,0-0.6,0.1s-0.3,0.1-0.5,0.2s-0.2,0.2-0.3,0.4
			c-0.1,0.1-0.1,0.3-0.1,0.5c0,0.2,0.1,0.4,0.2,0.6c0.1,0.1,0.3,0.3,0.5,0.4s0.4,0.2,0.7,0.3c0.3,0.1,0.5,0.2,0.8,0.3
			c0.3,0.1,0.5,0.2,0.8,0.3c0.3,0.1,0.5,0.3,0.7,0.5c0.2,0.2,0.4,0.4,0.5,0.7c0.1,0.3,0.2,0.6,0.2,1c0,0.4-0.1,0.8-0.2,1.2
			s-0.4,0.7-0.6,1c-0.3,0.3-0.6,0.5-1,0.6S77.4,20,76.9,20c-0.3,0-0.6,0-0.9-0.1c-0.3-0.1-0.6-0.1-0.8-0.2c-0.3-0.1-0.5-0.2-0.7-0.4
			c-0.2-0.2-0.4-0.3-0.6-0.5l0.5-0.8c0-0.1,0.1-0.1,0.2-0.2c0.1,0,0.1-0.1,0.2-0.1c0.1,0,0.2,0,0.4,0.1c0.1,0.1,0.3,0.2,0.4,0.3
			c0.2,0.1,0.4,0.2,0.6,0.3c0.2,0.1,0.5,0.1,0.8,0.1c0.5,0,0.9-0.1,1.2-0.4c0.3-0.2,0.4-0.6,0.4-1c0-0.2-0.1-0.4-0.2-0.6
			c-0.1-0.2-0.3-0.3-0.5-0.4c-0.2-0.1-0.4-0.2-0.7-0.3c-0.3-0.1-0.5-0.2-0.8-0.2c-0.3-0.1-0.5-0.2-0.8-0.3c-0.3-0.1-0.5-0.3-0.7-0.5
			c-0.2-0.2-0.4-0.4-0.5-0.7s-0.2-0.7-0.2-1.1c0-0.3,0.1-0.7,0.2-1c0.1-0.3,0.3-0.6,0.6-0.9s0.6-0.5,1-0.6s0.8-0.2,1.3-0.2
			c0.6,0,1.1,0.1,1.5,0.3c0.5,0.2,0.9,0.4,1.2,0.7L79.6,12.2z"/>
		<path fill="#FFFFFF" d="M88.8,10.5V12H86v8h-1.7v-8h-2.8v-1.4H88.8z"/>
		<path fill="#FFFFFF" d="M99.6,10.5v1.4h-4.2v2.8H99v1.4h-3.5v3.8h-1.8v-9.4H99.6z"/>
		<path fill="#FFFFFF" d="M110.7,15.2c0,0.7-0.1,1.3-0.3,1.9c-0.2,0.6-0.6,1.1-1,1.5c-0.4,0.4-0.9,0.8-1.5,1
			c-0.6,0.2-1.2,0.4-1.9,0.4s-1.4-0.1-1.9-0.4s-1.1-0.6-1.5-1c-0.4-0.4-0.7-0.9-1-1.5c-0.2-0.6-0.3-1.2-0.3-1.9
			c0-0.7,0.1-1.3,0.3-1.9c0.2-0.6,0.6-1.1,1-1.5c0.4-0.4,0.9-0.8,1.5-1c0.6-0.2,1.2-0.4,1.9-0.4s1.4,0.1,1.9,0.4
			c0.6,0.2,1.1,0.6,1.5,1s0.7,0.9,1,1.5C110.6,13.9,110.7,14.5,110.7,15.2z M108.9,15.2c0-0.5-0.1-1-0.2-1.4c-0.1-0.4-0.3-0.8-0.6-1
			c-0.3-0.3-0.6-0.5-0.9-0.7c-0.4-0.2-0.8-0.2-1.2-0.2s-0.9,0.1-1.2,0.2c-0.4,0.2-0.7,0.4-0.9,0.7c-0.3,0.3-0.5,0.6-0.6,1
			c-0.1,0.4-0.2,0.9-0.2,1.4c0,0.5,0.1,1,0.2,1.4c0.1,0.4,0.3,0.8,0.6,1c0.3,0.3,0.6,0.5,0.9,0.7c0.4,0.2,0.8,0.2,1.2,0.2
			s0.9-0.1,1.2-0.2c0.4-0.2,0.7-0.4,0.9-0.7c0.3-0.3,0.5-0.6,0.6-1C108.8,16.2,108.9,15.7,108.9,15.2z"/>
		<path fill="#FFFFFF" d="M114.5,16.3v3.7h-1.7v-9.4h2.9c0.6,0,1.2,0.1,1.6,0.2s0.8,0.3,1.1,0.6c0.3,0.2,0.5,0.5,0.6,0.9
			c0.1,0.3,0.2,0.7,0.2,1.1c0,0.3,0,0.6-0.1,0.9s-0.2,0.5-0.4,0.8c-0.2,0.2-0.4,0.4-0.7,0.6c-0.3,0.2-0.6,0.3-0.9,0.4
			c0.2,0.1,0.4,0.3,0.6,0.5l2.4,3.5h-1.6c-0.2,0-0.3,0-0.4-0.1c-0.1-0.1-0.2-0.1-0.3-0.3l-2-3c-0.1-0.1-0.2-0.2-0.2-0.2
			c-0.1,0-0.2-0.1-0.4-0.1H114.5z M114.5,15h1.1c0.3,0,0.6,0,0.9-0.1c0.2-0.1,0.4-0.2,0.6-0.3c0.2-0.1,0.3-0.3,0.4-0.5
			c0.1-0.2,0.1-0.4,0.1-0.7c0-0.5-0.2-0.8-0.5-1.1c-0.3-0.3-0.8-0.4-1.4-0.4h-1.1V15z"/>
		<path fill="#FFFFFF" d="M121,10.5h1.5c0.2,0,0.3,0,0.4,0.1c0.1,0.1,0.2,0.2,0.2,0.3l1.6,5.6c0,0.1,0.1,0.3,0.1,0.5
			c0,0.2,0.1,0.3,0.1,0.5c0-0.2,0.1-0.4,0.1-0.5c0-0.2,0.1-0.3,0.1-0.5l1.8-5.6c0-0.1,0.1-0.2,0.2-0.3c0.1-0.1,0.2-0.1,0.4-0.1h0.5
			c0.2,0,0.3,0,0.4,0.1c0.1,0.1,0.2,0.2,0.2,0.3l1.8,5.6c0.1,0.3,0.2,0.6,0.2,0.9c0-0.2,0.1-0.3,0.1-0.5c0-0.2,0.1-0.3,0.1-0.4
			l1.6-5.6c0-0.1,0.1-0.2,0.2-0.3c0.1-0.1,0.2-0.1,0.4-0.1h1.4l-2.9,9.4H130l-2.1-6.4c0-0.1-0.1-0.2-0.1-0.3s-0.1-0.2-0.1-0.3
			c0,0.1-0.1,0.2-0.1,0.3s-0.1,0.2-0.1,0.3l-2.1,6.4h-1.6L121,10.5z"/>
		<path fill="#FFFFFF" d="M143.6,19.9h-1.4c-0.2,0-0.3,0-0.4-0.1c-0.1-0.1-0.2-0.2-0.2-0.3l-0.7-1.9h-3.9l-0.7,1.9
			c0,0.1-0.1,0.2-0.2,0.3c-0.1,0.1-0.2,0.1-0.4,0.1h-1.4l3.7-9.4h1.8L143.6,19.9z M137.5,16.4h3l-1.1-3.1c-0.1-0.1-0.1-0.3-0.2-0.5
			c-0.1-0.2-0.1-0.4-0.2-0.6c-0.1,0.2-0.1,0.4-0.2,0.6c-0.1,0.2-0.1,0.4-0.2,0.5L137.5,16.4z"/>
		<path fill="#FFFFFF" d="M147,16.3v3.7h-1.7v-9.4h2.9c0.6,0,1.2,0.1,1.6,0.2c0.5,0.1,0.8,0.3,1.1,0.6c0.3,0.2,0.5,0.5,0.6,0.9
			c0.1,0.3,0.2,0.7,0.2,1.1c0,0.3,0,0.6-0.1,0.9c-0.1,0.3-0.2,0.5-0.4,0.8c-0.2,0.2-0.4,0.4-0.7,0.6c-0.3,0.2-0.6,0.3-0.9,0.4
			c0.2,0.1,0.4,0.3,0.6,0.5l2.4,3.5h-1.6c-0.2,0-0.3,0-0.4-0.1c-0.1-0.1-0.2-0.1-0.3-0.3l-2-3c-0.1-0.1-0.2-0.2-0.2-0.2
			c-0.1,0-0.2-0.1-0.4-0.1H147z M147,15h1.1c0.3,0,0.6,0,0.9-0.1c0.2-0.1,0.4-0.2,0.6-0.3c0.2-0.1,0.3-0.3,0.4-0.5
			c0.1-0.2,0.1-0.4,0.1-0.7c0-0.5-0.2-0.8-0.5-1.1c-0.3-0.3-0.8-0.4-1.4-0.4H147V15z"/>
		<path fill="#FFFFFF" d="M162.8,15.2c0,0.7-0.1,1.3-0.3,1.9s-0.6,1.1-1,1.5s-0.9,0.7-1.5,1c-0.6,0.2-1.2,0.3-1.9,0.3h-3.6v-9.4h3.6
			c0.7,0,1.4,0.1,1.9,0.3c0.6,0.2,1.1,0.6,1.5,1c0.4,0.4,0.7,0.9,1,1.5C162.6,13.9,162.8,14.5,162.8,15.2z M161,15.2
			c0-0.5-0.1-1-0.2-1.4c-0.1-0.4-0.3-0.8-0.6-1c-0.3-0.3-0.6-0.5-0.9-0.7c-0.4-0.2-0.8-0.2-1.2-0.2h-1.8v6.6h1.8
			c0.5,0,0.9-0.1,1.2-0.2c0.4-0.2,0.7-0.4,0.9-0.7c0.3-0.3,0.5-0.6,0.6-1C160.9,16.2,161,15.7,161,15.2z"/>
	</g>
	<g>
		<path fill="#FFFFFF" d="M15.3,14.2c0,0.4-0.2,0.6-0.5,0.9c-1.4,1.4-2.9,2.9-4.3,4.3c-0.5,0.5-1.1,0.8-1.6,0.2
			c-0.6-0.6-0.2-1.2,0.3-1.6c1-1,2-2.1,3.1-3.1c0.5-0.5,0.5-0.9,0-1.4c-1.1-1-2.1-2.1-3.1-3.1c-0.5-0.5-0.8-1-0.3-1.6
			C9.4,8.1,10,8.5,10.5,9c1.4,1.4,2.9,2.9,4.3,4.3C15.1,13.5,15.3,13.8,15.3,14.2z"/>
		<path fill="#FFFFFF" d="M18.2,11.1c0,0.4-0.2,0.7-0.5,0.9c-0.4,0.2-0.8,0.2-1.1-0.1C15,10.3,13.4,8.7,11.7,7
			c-0.4-0.4-0.3-0.8,0-1.2c0.3-0.4,0.8-0.5,1.2-0.2c1.8,1.6,3.5,3.3,5.1,5.1C18.2,10.9,18.2,11,18.2,11.1z"/>
		<path fill="#FFFFFF" d="M12.5,23.4c-0.4,0-0.7-0.2-0.9-0.5c-0.2-0.4-0.2-0.8,0.1-1c1.6-1.6,3.2-3.3,4.8-4.9c0.4-0.4,0.9-0.4,1.3,0
			c0.5,0.4,0.5,1,0,1.4c-1.5,1.6-3.1,3.1-4.7,4.7C13,23.2,12.8,23.3,12.5,23.4z"/>
		<circle fill="#FFFFFF" cx="20.5" cy="14.3" r="1.1"/>
		<path fill="#FFFFFF" d="M27.4,14.2h-0.9c0,3.4-1.4,6.5-3.6,8.8c-2.2,2.2-5.3,3.6-8.8,3.6c-3.4,0-6.5-1.4-8.8-3.6
			c-2.2-2.2-3.6-5.3-3.6-8.8c0-3.4,1.4-6.5,3.6-8.8c2.2-2.2,5.3-3.6,8.8-3.6c3.4,0,6.5,1.4,8.8,3.6c2.2,2.2,3.6,5.3,3.6,8.8H27.4
			h0.9C28.3,6.3,22,0,14.2,0C6.3,0,0,6.3,0,14.2C0,22,6.3,28.3,14.2,28.3c7.8,0,14.2-6.3,14.2-14.2H27.4z"/>
	</g>
</g>
</svg>
