<?xml version="1.0" encoding="utf-8"?>
<!-- Generator: Adobe Illustrator 18.0.0, SVG Export Plug-In . SVG Version: 6.00 Build 0)  -->
<!DOCTYPE svg PUBLIC "-//W3C//DTD SVG 1.1//EN" "http://www.w3.org/Graphics/SVG/1.1/DTD/svg11.dtd">
<svg version="1.1" id="Layer_1" xmlns="http://www.w3.org/2000/svg" xmlns:xlink="http://www.w3.org/1999/xlink" x="0px" y="0px"
	 viewBox="0 296.4 1307.4 206.9" enable-background="new 0 296.4 1307.4 206.9" xml:space="preserve">
<g>
	<path fill="#D0D2CC" d="M111.8,400.5c0,2.8-1.7,4.5-3.5,6.3c-10.5,10.5-20.9,20.9-31.4,31.4c-3.8,3.8-7.7,5.9-12.2,1.4
		c-4.5-4.5-1.7-8.4,2.1-11.8c7.7-7.7,15-15.3,22.6-22.6c3.8-3.8,3.8-6.3,0-10.1c-7.7-7.3-15-15-22.6-22.6c-3.5-3.5-6.3-7.7-1.7-12.2
		c4.2-4.5,8.4-2.1,12.2,1.7c10.5,10.5,20.9,20.9,31.4,31.4C110.1,395.3,111.8,397.4,111.8,400.5z"/>
	<path fill="#D0D2CC" d="M133.4,377.5c0,3.1-1,5.2-3.5,6.6c-2.8,1.7-5.9,1.7-8.4-0.7c-12.2-11.8-24-23.7-35.9-35.9
		c-2.4-2.4-2.1-5.9,0.7-8.7c2.4-2.8,5.9-3.8,8.7-1.4c13.2,11.8,25.8,24.4,37.6,37.6C133.1,375.8,133.4,377.2,133.4,377.5z"/>
	<path fill="#D0D2CC" d="M91.6,467.4c-3.1,0-5.2-1.4-6.6-3.8c-1.4-2.8-1-5.6,0.7-7.7c11.8-11.8,23.3-23.7,35.5-35.5
		c2.8-2.8,6.6-2.8,9.8,0c3.1,3.1,3.5,7,0,10.1c-11.5,11.5-22.6,23-34.1,34.5C95.5,466.4,93.7,467.1,91.6,467.4z"/>
	<circle fill="#D0D2CC" cx="150.2" cy="400.5" r="8.4"/>
	<path fill="#D0D2CC" d="M200.7,399.8h-6.6c0,25.1-10.1,47.7-26.5,64.1s-39,26.5-64.1,26.5s-47.7-10.1-64.1-26.5
		c-16.4-16.4-26.5-39-26.5-64.1s10.1-47.7,26.5-64.1c16.4-16.4,39-26.5,64.1-26.5s47.7,10.1,64.1,26.5c16.4,16.4,26.5,39,26.5,64.1
		H200.7h6.6c0-57.1-46.3-103.5-103.8-103.5C46.3,296.4,0,342.7,0,399.8s46.3,103.5,103.5,103.5S206.9,457,206.9,399.8H200.7z"/>
</g>
<g>
	<path fill="#D0D2CC" d="M292,438.8H278v-74.6H292V438.8z"/>
	<path fill="#D0D2CC" d="M327.9,364.2c0.4,0.1,0.8,0.2,1.1,0.3c0.3,0.2,0.6,0.4,1,0.7c0.3,0.3,0.7,0.7,1,1.2l39.2,49.9
		c-0.1-1.2-0.2-2.4-0.3-3.5c-0.1-1.2-0.1-2.2-0.1-3.2v-45.4H382v74.6h-7.2c-1.1,0-2-0.2-2.7-0.5c-0.7-0.3-1.4-1-2.1-1.9l-39-49.7
		c0.1,1.1,0.2,2.2,0.2,3.3c0.1,1.1,0.1,2.1,0.1,3v45.8h-12.2v-74.6h7.3C327,364.1,327.5,364.1,327.9,364.2z"/>
	<path fill="#D0D2CC" d="M400.1,364.1h11.2c1.2,0,2.2,0.3,2.9,0.9c0.8,0.6,1.3,1.3,1.7,2.3l17.6,45.5c0.6,1.5,1.1,3.1,1.7,4.9
		c0.5,1.8,1,3.6,1.5,5.6c0.8-4,1.8-7.5,2.9-10.5l17.5-45.5c0.3-0.8,0.9-1.5,1.7-2.2c0.8-0.7,1.8-1,2.9-1h11.2l-30.1,74.6h-12.5
		L400.1,364.1z"/>
	<path fill="#D0D2CC" d="M538.1,364.1v11H505v20.7h26.1v10.7H505v21.1h33.1v11.1h-47.1v-74.6H538.1z"/>
	<path fill="#D0D2CC" d="M600.5,377.7c-0.4,0.8-0.8,1.3-1.3,1.6c-0.5,0.3-1.1,0.5-1.8,0.5c-0.7,0-1.5-0.3-2.3-0.8
		c-0.9-0.5-1.9-1.1-3-1.8c-1.2-0.7-2.5-1.2-4.1-1.8c-1.6-0.5-3.4-0.8-5.5-0.8c-1.9,0-3.6,0.2-5,0.7c-1.4,0.5-2.6,1.1-3.6,1.9
		c-1,0.8-1.7,1.8-2.2,3c-0.5,1.2-0.7,2.4-0.7,3.8c0,1.8,0.5,3.2,1.5,4.4c1,1.2,2.3,2.2,3.9,3c1.6,0.8,3.5,1.6,5.5,2.2
		c2.1,0.7,4.2,1.4,6.3,2.1c2.2,0.7,4.3,1.6,6.3,2.6c2.1,1,3.9,2.2,5.5,3.7c1.6,1.5,2.9,3.3,3.9,5.5c1,2.2,1.5,4.8,1.5,7.9
		c0,3.4-0.6,6.5-1.7,9.5c-1.2,2.9-2.8,5.5-5.1,7.7s-4.9,3.9-8.1,5.2c-3.2,1.3-6.9,1.9-11,1.9c-2.4,0-4.7-0.2-7-0.7
		c-2.3-0.5-4.5-1.1-6.6-2c-2.1-0.9-4.1-1.9-5.9-3.1c-1.8-1.2-3.5-2.5-4.9-4l4-6.7c0.4-0.5,0.8-0.9,1.4-1.2c0.5-0.3,1.1-0.5,1.8-0.5
		c0.9,0,1.8,0.4,2.8,1.1c1,0.7,2.2,1.5,3.5,2.3c1.4,0.9,3,1.6,4.8,2.3c1.8,0.7,4.1,1.1,6.6,1.1c4,0,7-0.9,9.2-2.8
		c2.2-1.9,3.3-4.6,3.3-8.1c0-2-0.5-3.6-1.5-4.8c-1-1.2-2.3-2.3-3.9-3.1c-1.6-0.8-3.5-1.6-5.5-2.1s-4.2-1.2-6.3-1.9
		c-2.1-0.7-4.2-1.5-6.3-2.5c-2.1-1-3.9-2.2-5.5-3.8c-1.6-1.5-2.9-3.5-3.9-5.8c-1-2.3-1.5-5.2-1.5-8.6c0-2.7,0.5-5.4,1.6-7.9
		s2.7-4.9,4.7-6.9c2.1-2,4.6-3.6,7.7-4.8c3-1.2,6.5-1.8,10.4-1.8c4.4,0,8.5,0.7,12.2,2.1c3.7,1.4,6.9,3.3,9.5,5.8L600.5,377.7z"/>
	<path fill="#D0D2CC" d="M678.8,364.1v11.4h-22.5v63.2h-13.9v-63.2h-22.6v-11.4H678.8z"/>
	<path fill="#D0D2CC" d="M775.3,364.1v11h-33.1v22.1h27.9v11.1h-27.9v30.4h-14v-74.6H775.3z"/>
	<path fill="#D0D2CC" d="M868.1,401.4c0,5.5-0.9,10.5-2.7,15.2c-1.8,4.7-4.4,8.7-7.7,12.1c-3.3,3.4-7.3,6.1-11.9,8
		s-9.8,2.9-15.4,2.9s-10.8-1-15.5-2.9s-8.7-4.6-12-8c-3.3-3.4-5.9-7.4-7.7-12.1c-1.8-4.7-2.7-9.7-2.7-15.2c0-5.5,0.9-10.5,2.7-15.2
		c1.8-4.7,4.4-8.7,7.7-12.1c3.3-3.4,7.3-6.1,12-8c4.7-1.9,9.8-2.9,15.5-2.9s10.8,1,15.4,2.9c4.6,1.9,8.6,4.6,11.9,8
		c3.3,3.4,5.9,7.4,7.7,12.1C867.2,390.9,868.1,396,868.1,401.4z M853.8,401.4c0-4.1-0.5-7.8-1.6-11s-2.6-6-4.7-8.3
		c-2-2.3-4.5-4-7.4-5.2c-2.9-1.2-6.2-1.8-9.8-1.8s-6.9,0.6-9.9,1.8c-2.9,1.2-5.4,2.9-7.5,5.2c-2,2.3-3.6,5-4.7,8.3
		c-1.1,3.3-1.7,6.9-1.7,11c0,4.1,0.6,7.8,1.7,11c1.1,3.3,2.7,6,4.7,8.3c2,2.3,4.5,4,7.5,5.2c2.9,1.2,6.2,1.8,9.9,1.8
		s6.9-0.6,9.8-1.8c2.9-1.2,5.4-2.9,7.4-5.2c2-2.3,3.6-5,4.7-8.3S853.8,405.5,853.8,401.4z"/>
	<path fill="#D0D2CC" d="M903.7,409.6v29.2h-13.9v-74.6h22.8c5.1,0,9.5,0.5,13.1,1.6c3.6,1.1,6.6,2.5,8.9,4.4c2.3,1.9,4,4.2,5.1,6.8
		c1.1,2.6,1.6,5.5,1.6,8.7c0,2.5-0.4,4.9-1.1,7.1c-0.7,2.2-1.8,4.3-3.2,6.1c-1.4,1.8-3.1,3.4-5.2,4.8c-2,1.4-4.4,2.5-7,3.3
		c1.8,1,3.3,2.4,4.5,4.3l18.7,27.6h-12.5c-1.2,0-2.2-0.2-3.1-0.7c-0.8-0.5-1.6-1.2-2.1-2.1l-15.7-23.9c-0.6-0.9-1.2-1.5-1.9-1.9
		s-1.7-0.6-3.1-0.6H903.7z M903.7,399.6h8.7c2.6,0,4.9-0.3,6.8-1c1.9-0.7,3.5-1.6,4.8-2.7c1.3-1.2,2.2-2.5,2.8-4.1
		c0.6-1.6,0.9-3.3,0.9-5.2c0-3.8-1.2-6.7-3.7-8.7c-2.5-2-6.3-3-11.4-3h-8.9V399.6z"/>
	<path fill="#D0D2CC" d="M960.4,364.1H972c1.2,0,2.2,0.3,3,0.9s1.4,1.3,1.6,2.3l12.7,44.7c0.3,1.1,0.6,2.3,0.9,3.6
		c0.3,1.3,0.5,2.7,0.7,4.1c0.3-1.4,0.6-2.8,0.9-4.1c0.3-1.3,0.7-2.5,1.1-3.6l14.7-44.7c0.3-0.8,0.8-1.5,1.6-2.2c0.8-0.7,1.8-1,3-1
		h4.1c1.2,0,2.2,0.3,3,0.9s1.3,1.3,1.7,2.3l14.6,44.7c0.8,2.2,1.4,4.6,2,7.3c0.2-1.3,0.5-2.6,0.7-3.9c0.3-1.2,0.5-2.4,0.8-3.5
		l12.7-44.7c0.2-0.9,0.8-1.6,1.6-2.2c0.8-0.6,1.8-0.9,3-0.9h10.9l-23.2,74.6h-12.5l-16.3-51c-0.2-0.7-0.4-1.4-0.6-2.1
		c-0.2-0.8-0.4-1.6-0.6-2.4c-0.2,0.9-0.4,1.7-0.6,2.4c-0.2,0.8-0.4,1.5-0.6,2.1l-16.5,51h-12.5L960.4,364.1z"/>
	<path fill="#D0D2CC" d="M1145.2,438.8h-10.7c-1.2,0-2.2-0.3-3-0.9c-0.8-0.6-1.3-1.4-1.7-2.2l-5.6-15.2h-30.9l-5.6,15.2
		c-0.3,0.8-0.8,1.5-1.6,2.2c-0.8,0.7-1.8,1-3,1h-10.8l29.3-74.6h14.2L1145.2,438.8z M1096.9,410.6h23.8l-9.1-24.8
		c-0.4-1.1-0.9-2.4-1.4-3.9c-0.5-1.5-1-3.1-1.5-4.9c-0.5,1.8-1,3.4-1.4,4.9c-0.5,1.5-0.9,2.8-1.4,4L1096.9,410.6z"/>
	<path fill="#D0D2CC" d="M1177.5,409.6v29.2h-13.9v-74.6h22.8c5.1,0,9.5,0.5,13.1,1.6c3.6,1.1,6.6,2.5,8.9,4.4
		c2.3,1.9,4,4.2,5.1,6.8c1.1,2.6,1.6,5.5,1.6,8.7c0,2.5-0.4,4.9-1.1,7.1c-0.7,2.2-1.8,4.3-3.2,6.1c-1.4,1.8-3.1,3.4-5.2,4.8
		c-2,1.4-4.4,2.5-7,3.3c1.8,1,3.3,2.4,4.5,4.3l18.7,27.6h-12.5c-1.2,0-2.2-0.2-3.1-0.7c-0.8-0.5-1.6-1.2-2.1-2.1l-15.7-23.9
		c-0.6-0.9-1.2-1.5-1.9-1.9s-1.7-0.6-3.1-0.6H1177.5z M1177.5,399.6h8.7c2.6,0,4.9-0.3,6.8-1c1.9-0.7,3.5-1.6,4.8-2.7
		c1.3-1.2,2.2-2.5,2.8-4.1c0.6-1.6,0.9-3.3,0.9-5.2c0-3.8-1.2-6.7-3.7-8.7c-2.5-2-6.3-3-11.4-3h-8.9V399.6z"/>
	<path fill="#D0D2CC" d="M1307.4,401.4c0,5.5-0.9,10.5-2.7,15.1c-1.8,4.6-4.4,8.5-7.7,11.8s-7.3,5.9-11.9,7.7
		c-4.6,1.8-9.8,2.7-15.4,2.7h-28.5v-74.6h28.5c5.6,0,10.8,0.9,15.4,2.8c4.6,1.8,8.6,4.4,11.9,7.7c3.3,3.3,5.9,7.2,7.7,11.8
		C1306.5,390.9,1307.4,396,1307.4,401.4z M1293.2,401.4c0-4.1-0.6-7.8-1.7-11c-1.1-3.3-2.7-6-4.7-8.3c-2-2.3-4.5-4-7.4-5.2
		c-2.9-1.2-6.2-1.8-9.8-1.8h-14.5v52.5h14.5c3.6,0,6.9-0.6,9.8-1.8c2.9-1.2,5.4-2.9,7.4-5.2c2-2.3,3.6-5,4.7-8.3
		C1292.7,409.2,1293.2,405.5,1293.2,401.4z"/>
</g>
</svg>
