<?xml version="1.0" encoding="utf-8"?>
<!-- Generator: Adobe Illustrator 19.0.0, SVG Export Plug-In . SVG Version: 6.00 Build 0)  -->
<!DOCTYPE svg PUBLIC "-//W3C//DTD SVG 1.1//EN" "http://www.w3.org/Graphics/SVG/1.1/DTD/svg11.dtd">
<svg version="1.1" id="Layer_1" xmlns="http://www.w3.org/2000/svg" xmlns:xlink="http://www.w3.org/1999/xlink" x="0px" y="0px"
	 viewBox="0 0 389 742" enable-background="new 0 0 389 742" xml:space="preserve">
<g id="XMLID_121_">
	<rect id="XMLID_125_" x="1" y="1" fill="#FFFFFF" width="387" height="740"/>
	<path id="XMLID_122_" fill="#B0B3AB" d="M387,2v738H2V2H387 M389,0H0v742h389V0L389,0z"/>
</g>
<g id="XMLID_9_">
	<path id="XMLID_42_" fill="#2B2D2A" d="M43.5,41.2c0-0.6-0.1-1.1-0.3-1.3c-0.2-0.2-0.5-0.3-1-0.4c-0.1-0.2-0.1-0.4-0.1-0.8
		c0.7,0,1.5,0.1,2.3,0.1c0.4,0,0.8,0,1.2,0c0.4,0,0.8,0,1.1,0c0,0.4,0,0.6-0.1,0.8c-0.5,0-0.9,0.1-1,0.4c-0.2,0.2-0.3,0.6-0.3,1.3v8
		c0,0.6,0.1,1.1,0.3,1.3c0.2,0.2,0.5,0.3,1,0.4c0.1,0.2,0.1,0.4,0.1,0.8c-0.8,0-1.5-0.1-2.3-0.1c-0.4,0-0.8,0-1.2,0
		c-0.4,0-0.8,0-1.1,0c0-0.4,0-0.6,0.1-0.8c0.5,0,0.9-0.1,1-0.4c0.2-0.2,0.3-0.6,0.3-1.3V41.2z"/>
	<path id="XMLID_51_" fill="#2B2D2A" d="M59.1,48.8c0,0.6,0.1,1,0.2,1.2c0.1,0.2,0.4,0.3,0.9,0.3c0,0.1,0,0.3,0,0.5
		s-0.1,0.3-0.1,0.4c-0.3,0.1-0.7,0.1-1.1,0.2c-0.4,0.1-0.7,0.2-1,0.4c-0.1-0.1-0.2-0.1-0.3-0.3c-0.1-0.1-0.1-0.4-0.1-0.6
		c0-0.2,0-0.3,0-0.5c0-0.1,0-0.2,0-0.3c-0.1,0.2-0.1,0.3-0.2,0.5c-0.1,0.2-0.3,0.3-0.5,0.6c-0.2,0.2-0.5,0.3-0.8,0.5
		c-0.3,0.1-0.7,0.2-1.1,0.2c-0.8,0-1.4-0.2-1.9-0.5c-0.4-0.4-0.6-0.8-0.6-1.5c0-0.6,0.2-1.1,0.5-1.5c0.4-0.4,0.8-0.7,1.3-0.9
		c0.5-0.2,1-0.4,1.6-0.5c0.6-0.1,1-0.2,1.4-0.3c0-0.4,0-0.7,0-1c0-0.3,0-0.5-0.1-0.6s-0.1-0.3-0.1-0.4c-0.1-0.1-0.1-0.2-0.2-0.3
		c-0.3-0.4-0.7-0.6-1.2-0.6c-0.3,0-0.5,0.1-0.7,0.2s-0.4,0.3-0.5,0.6c-0.1,0.2-0.2,0.5-0.3,0.7c-0.1,0.3-0.1,0.5-0.1,0.7
		c-0.1,0-0.3,0-0.5,0c-0.2,0-0.4-0.1-0.5-0.1c0-0.3,0-0.7,0-1.1c0-0.4-0.1-0.7-0.1-1c0.5-0.3,1-0.5,1.6-0.6c0.6-0.2,1.1-0.2,1.7-0.2
		c0.4,0,0.8,0.1,1.1,0.2c0.3,0.1,0.6,0.3,0.8,0.5c0.2,0.2,0.3,0.3,0.4,0.5c0.1,0.2,0.2,0.4,0.2,0.7C59,45,59,45.3,59,45.6
		s0,0.7,0,1.2V48.8z M57.4,47.3c-0.3,0-0.7,0.1-1,0.2c-0.4,0.1-0.7,0.2-1,0.3s-0.5,0.3-0.7,0.6s-0.3,0.6-0.3,1c0,0.5,0.1,0.8,0.3,1
		c0.2,0.2,0.5,0.3,0.8,0.3c0.2,0,0.4-0.1,0.6-0.2c0.2-0.1,0.4-0.3,0.6-0.5c0.2-0.2,0.3-0.5,0.5-0.8c0.1-0.3,0.2-0.7,0.2-1.2V47.3z"
		/>
	<path id="XMLID_63_" fill="#2B2D2A" d="M61.6,43.4c0.2,0,0.4,0,0.6-0.1s0.5-0.1,0.7-0.2c0.2-0.1,0.5-0.1,0.7-0.2
		c0.2-0.1,0.4-0.1,0.5-0.2c0.1,0,0.2,0.1,0.3,0.2c0.1,0.1,0.1,0.3,0.1,0.5c0,0.2,0,0.5,0,0.7c0,0.1,0,0.3,0,0.5
		c0.1-0.1,0.1-0.2,0.1-0.3c0.1-0.2,0.2-0.3,0.2-0.3c0.1-0.2,0.2-0.3,0.4-0.5c0.2-0.2,0.4-0.3,0.6-0.4s0.5-0.2,0.8-0.3
		c0.3-0.1,0.6-0.1,0.9-0.1c0.5,0,1,0.1,1.5,0.4c0.4,0.2,0.8,0.7,1,1.2c0,0.1,0.1,0.3,0.1,0.5c0-0.1,0.1-0.2,0.1-0.3
		c0.1-0.1,0.1-0.2,0.2-0.3c0.1-0.2,0.2-0.3,0.4-0.5c0.2-0.2,0.4-0.3,0.6-0.4c0.2-0.1,0.5-0.2,0.8-0.3c0.3-0.1,0.6-0.1,0.9-0.1
		c0.4,0,0.7,0.1,1,0.2c0.3,0.1,0.6,0.3,0.9,0.5s0.4,0.6,0.6,1c0.1,0.4,0.2,0.9,0.2,1.5v3.3c0,0.3,0,0.6,0.1,0.8s0.1,0.4,0.2,0.5
		c0.1,0.1,0.2,0.2,0.4,0.3c0.1,0.1,0.3,0.1,0.5,0.1c0,0.1,0.1,0.2,0.1,0.4c0,0.1,0,0.3,0,0.5c-0.3,0-0.6,0-1,0c-0.4,0-0.7,0-1.1,0
		s-0.8,0-1.2,0c-0.4,0-0.8,0-1.1,0c0-0.4,0-0.6,0.1-0.8c0.5,0,0.9-0.1,1-0.4c0.2-0.2,0.3-0.6,0.3-1.3v-2.9c0-0.4,0-0.8-0.1-1.1
		c-0.1-0.3-0.2-0.5-0.4-0.7c-0.2-0.2-0.3-0.3-0.6-0.4c-0.2-0.1-0.4-0.1-0.7-0.1c-0.2,0-0.5,0.1-0.7,0.2c-0.3,0.1-0.5,0.3-0.7,0.6
		c-0.2,0.3-0.4,0.6-0.5,1c-0.1,0.4-0.2,0.9-0.2,1.5v2c0,0.3,0,0.6,0.1,0.8s0.1,0.4,0.2,0.5s0.2,0.2,0.4,0.3c0.2,0.1,0.4,0.1,0.6,0.1
		c0,0.1,0.1,0.2,0.1,0.4c0,0.1,0,0.3,0,0.5c-0.3,0-0.7,0-1.1,0c-0.4,0-0.8,0-1.2,0c-0.4,0-0.8,0-1.1,0c-0.4,0-0.8,0-1.1,0
		c0-0.4,0-0.6,0.1-0.8c0.5,0,0.9-0.1,1-0.4c0.2-0.2,0.3-0.6,0.3-1.3v-3c0-0.4,0-0.8-0.1-1.1c-0.1-0.3-0.2-0.5-0.4-0.7
		s-0.3-0.3-0.6-0.4c-0.2-0.1-0.4-0.1-0.7-0.1c-0.2,0-0.5,0.1-0.7,0.2s-0.5,0.3-0.7,0.6c-0.2,0.3-0.4,0.6-0.5,1
		c-0.1,0.4-0.2,0.9-0.2,1.5v2.1c0,0.6,0.1,1.1,0.3,1.3c0.2,0.2,0.5,0.3,1,0.4c0,0.1,0.1,0.2,0.1,0.4c0,0.1,0,0.3,0,0.5
		c-0.3,0-0.7,0-1.1,0c-0.4,0-0.8,0-1.1,0s-0.7,0-1.1,0c-0.4,0-0.8,0-1.1,0c0-0.4,0-0.6,0.1-0.8c0.5,0,0.9-0.1,1-0.4
		c0.2-0.2,0.3-0.6,0.3-1.3v-3.8c0-0.2,0-0.4,0-0.6c0-0.2-0.1-0.3-0.2-0.4c-0.1-0.1-0.2-0.2-0.4-0.2c-0.2-0.1-0.4-0.1-0.8-0.1
		c0-0.1,0-0.3,0-0.4C61.5,43.6,61.5,43.5,61.6,43.4z"/>
	<path id="XMLID_71_" fill="#2B2D2A" d="M119.2,46c0.2-0.4,0.3-0.7,0.3-1s0-0.5-0.1-0.7c-0.1-0.2-0.2-0.3-0.4-0.4s-0.4-0.2-0.7-0.2
		c-0.1-0.3-0.1-0.5-0.1-0.8c0.3,0,0.6,0,0.9,0h2c0.3,0,0.6,0,0.9,0c0,0.1,0,0.3,0,0.4c0,0.1,0,0.3-0.1,0.4c-0.2,0-0.3,0.1-0.5,0.2
		c-0.1,0.1-0.2,0.2-0.4,0.3c-0.1,0.1-0.2,0.3-0.3,0.6c-0.1,0.2-0.2,0.5-0.4,0.9l-2.8,6.7c-0.4,0.9-0.7,1.6-1,2.1s-0.5,0.9-0.8,1.2
		c-0.2,0.3-0.5,0.5-0.7,0.6c-0.2,0.1-0.5,0.1-0.8,0.1c-0.4,0-0.7,0-0.9-0.1c-0.2-0.1-0.4-0.2-0.5-0.3c-0.1-0.2-0.1-0.4-0.1-0.7
		c0-0.3,0-0.5,0.1-0.7c0.4,0.1,0.8,0.1,1.2,0.1c0.4,0,0.7-0.1,1-0.3c0.3-0.2,0.6-0.5,0.9-0.9c0.1-0.1,0.2-0.3,0.3-0.6
		c0.1-0.3,0.3-0.6,0.4-1l0.1-0.2c-0.2-0.4-0.4-0.9-0.6-1.3c-0.2-0.6-0.5-1.1-0.7-1.6c-0.2-0.5-0.5-1-0.7-1.5
		c-0.2-0.5-0.4-0.9-0.6-1.3c-0.2-0.5-0.4-0.8-0.6-1.1c-0.2-0.3-0.3-0.5-0.4-0.7c-0.1-0.2-0.3-0.3-0.4-0.4c-0.1-0.1-0.3-0.1-0.4-0.2
		c-0.1-0.2-0.1-0.5-0.1-0.8c0.4,0,0.7,0,1.1,0c0.4,0,0.7,0,1,0h1.2l0.7,0c0.2,0,0.4,0,0.6,0c0,0.3,0,0.6-0.1,0.8
		c-0.3,0.1-0.6,0.1-0.8,0.2c-0.2,0.1-0.3,0.2-0.4,0.4c-0.1,0.2-0.1,0.4,0,0.6c0.1,0.2,0.2,0.5,0.4,0.9c0.1,0.3,0.3,0.6,0.4,1
		c0.2,0.4,0.3,0.7,0.5,1.1c0.2,0.4,0.3,0.8,0.5,1.2c0.1,0.2,0.2,0.5,0.3,0.7c0.1-0.1,0.1-0.3,0.2-0.4L119.2,46z"/>
	<path id="XMLID_99_" fill="#2B2D2A" d="M126.2,47.4c-0.4,0-0.8,0-1.2,0.1c0,0.3,0,0.6,0.1,0.8c0.1,0.5,0.2,0.9,0.4,1.2
		s0.5,0.7,0.8,0.9c0.4,0.2,0.8,0.3,1.4,0.3c0.4,0,0.8-0.1,1.2-0.3c0.4-0.2,0.8-0.5,1.1-0.8c0.1,0.1,0.2,0.2,0.3,0.3
		c0.1,0.1,0.1,0.2,0.2,0.3c-0.4,0.6-0.9,1-1.5,1.2c-0.6,0.2-1.2,0.4-1.9,0.4c-0.7,0-1.3-0.1-1.8-0.4c-0.5-0.2-0.9-0.6-1.3-1
		s-0.6-0.9-0.8-1.4s-0.2-1.1-0.2-1.8c0-0.6,0.1-1.2,0.3-1.7c0.2-0.5,0.4-1,0.8-1.4c0.3-0.4,0.7-0.7,1.2-1c0.5-0.2,1-0.4,1.6-0.4
		c0.6,0,1.1,0.1,1.6,0.3s0.8,0.5,1.1,0.8c0.3,0.4,0.5,0.8,0.6,1.2c0.1,0.5,0.2,1,0.3,1.5c-0.1,0.3-0.1,0.5-0.3,0.6h-1
		c-0.4,0-0.9,0-1.5,0C127.4,47.4,126.8,47.4,126.2,47.4z M125.2,45.3c-0.1,0.3-0.1,0.7-0.2,1.2h3.6c0-0.8-0.2-1.5-0.5-2
		s-0.7-0.8-1.3-0.8c-0.2,0-0.5,0-0.7,0.1s-0.4,0.3-0.6,0.5C125.4,44.6,125.3,44.9,125.2,45.3z"/>
	<path id="XMLID_104_" fill="#2B2D2A" d="M138.9,48.8c0,0.6,0.1,1,0.2,1.2c0.1,0.2,0.4,0.3,0.9,0.3c0,0.1,0,0.3,0,0.5
		s-0.1,0.3-0.1,0.4c-0.3,0.1-0.7,0.1-1.1,0.2c-0.4,0.1-0.7,0.2-1,0.4c-0.1-0.1-0.2-0.1-0.3-0.3c-0.1-0.1-0.1-0.4-0.1-0.6
		c0-0.2,0-0.3,0-0.5c0-0.1,0-0.2,0-0.3c-0.1,0.2-0.1,0.3-0.2,0.5c-0.1,0.2-0.3,0.3-0.5,0.6c-0.2,0.2-0.5,0.3-0.8,0.5
		c-0.3,0.1-0.7,0.2-1.1,0.2c-0.8,0-1.4-0.2-1.9-0.5c-0.4-0.4-0.6-0.8-0.6-1.5c0-0.6,0.2-1.1,0.5-1.5c0.4-0.4,0.8-0.7,1.3-0.9
		c0.5-0.2,1-0.4,1.6-0.5c0.6-0.1,1-0.2,1.4-0.3c0-0.4,0-0.7,0-1c0-0.3,0-0.5-0.1-0.6s-0.1-0.3-0.1-0.4c-0.1-0.1-0.1-0.2-0.2-0.3
		c-0.3-0.4-0.7-0.6-1.2-0.6c-0.3,0-0.5,0.1-0.7,0.2s-0.4,0.3-0.5,0.6c-0.1,0.2-0.2,0.5-0.3,0.7c-0.1,0.3-0.1,0.5-0.1,0.7
		c-0.1,0-0.3,0-0.5,0c-0.2,0-0.4-0.1-0.5-0.1c0-0.3,0-0.7,0-1.1c0-0.4-0.1-0.7-0.1-1c0.5-0.3,1-0.5,1.6-0.6c0.6-0.2,1.1-0.2,1.7-0.2
		c0.4,0,0.8,0.1,1.1,0.2c0.3,0.1,0.6,0.3,0.8,0.5c0.2,0.2,0.3,0.3,0.4,0.5c0.1,0.2,0.2,0.4,0.2,0.7c0.1,0.3,0.1,0.6,0.1,0.9
		s0,0.7,0,1.2V48.8z M137.2,47.3c-0.3,0-0.7,0.1-1,0.2c-0.4,0.1-0.7,0.2-1,0.3s-0.5,0.3-0.7,0.6s-0.3,0.6-0.3,1c0,0.5,0.1,0.8,0.3,1
		c0.2,0.2,0.5,0.3,0.8,0.3c0.2,0,0.4-0.1,0.6-0.2c0.2-0.1,0.4-0.3,0.6-0.5c0.2-0.2,0.3-0.5,0.5-0.8c0.1-0.3,0.2-0.7,0.2-1.2V47.3z"
		/>
	<path id="XMLID_105_" fill="#2B2D2A" d="M144.5,46c-0.1,0.3-0.1,0.6-0.2,0.9v2c0,0.4,0,0.8,0.1,1c0.1,0.3,0.2,0.5,0.3,0.6
		c0.1,0.2,0.3,0.3,0.5,0.3c0.2,0.1,0.5,0.1,0.8,0.1c0.1,0.2,0.1,0.4,0.1,0.8c-0.3,0-0.7,0-1.1,0c-0.4,0-0.9,0-1.3,0h-0.7
		c-0.2,0-0.5,0-0.7,0c-0.2,0-0.4,0-0.6,0c-0.2,0-0.3,0-0.5,0c0-0.4,0-0.6,0.1-0.8c0.5,0,0.9-0.1,1-0.4c0.2-0.2,0.3-0.6,0.3-1.3v-3.8
		c0-0.2,0-0.4,0-0.6c0-0.2-0.1-0.3-0.2-0.4c-0.1-0.1-0.2-0.2-0.4-0.2c-0.2-0.1-0.4-0.1-0.8-0.1c0-0.1,0-0.3,0-0.4
		c0-0.1,0.1-0.2,0.1-0.3c0.2,0,0.4,0,0.6-0.1c0.2,0,0.5-0.1,0.7-0.2c0.2-0.1,0.5-0.1,0.7-0.2s0.4-0.1,0.5-0.2c0.1,0,0.2,0.1,0.3,0.2
		c0.1,0.1,0.1,0.3,0.1,0.6c0,0.4,0,0.8-0.1,1.2l-0.2,0.8c0.1-0.2,0.1-0.4,0.2-0.5c0.1-0.2,0.2-0.4,0.3-0.6c0.3-0.4,0.6-0.8,1-1.1
		c0.4-0.3,0.8-0.4,1.3-0.4c0.3,0,0.5,0,0.7,0.1s0.4,0.2,0.6,0.3c-0.1,0.3-0.1,0.7-0.1,1.1c0,0.4,0,0.8,0,1.1c-0.1,0-0.3,0.1-0.5,0.1
		s-0.4,0.1-0.6,0.1c0-0.6-0.1-1-0.3-1.2c-0.2-0.2-0.4-0.3-0.6-0.3c-0.2,0-0.3,0.1-0.5,0.2c-0.2,0.1-0.4,0.3-0.5,0.6
		S144.7,45.6,144.5,46z"/>
	<path id="XMLID_106_" fill="#2B2D2A" d="M155.3,43.4c0,0.3,0,0.6,0,1s0,0.7,0.1,1c-0.3,0.2-0.6,0.2-1,0.2c0-0.3-0.1-0.5-0.2-0.8
		c-0.1-0.2-0.3-0.5-0.4-0.7s-0.4-0.4-0.7-0.5c-0.3-0.1-0.5-0.2-0.8-0.2c-0.4,0-0.7,0.1-0.9,0.3c-0.2,0.2-0.4,0.4-0.4,0.8
		c0,0.2,0,0.3,0.1,0.4c0,0.1,0.1,0.3,0.3,0.4c0.2,0.1,0.4,0.3,0.7,0.4c0.3,0.1,0.7,0.3,1.2,0.5c0.5,0.2,0.9,0.4,1.3,0.6
		c0.3,0.2,0.6,0.4,0.8,0.6c0.2,0.2,0.4,0.4,0.4,0.7c0.1,0.3,0.1,0.6,0.1,0.9c0,0.4-0.1,0.8-0.3,1.1c-0.2,0.3-0.4,0.6-0.7,0.8
		c-0.3,0.2-0.7,0.4-1.1,0.5c-0.4,0.1-0.9,0.2-1.4,0.2c-0.4,0-0.7,0-1,0c-0.3,0-0.6-0.1-0.8-0.1c-0.2-0.1-0.5-0.1-0.7-0.2
		c-0.2-0.1-0.4-0.2-0.6-0.3c0-0.2,0-0.3,0-0.5c0-0.2,0-0.4,0-0.6s0-0.4,0-0.6c0-0.2,0-0.4,0-0.5c0.1-0.1,0.2-0.1,0.4-0.2
		c0.2,0,0.4,0,0.6,0c0.1,0.8,0.3,1.4,0.7,1.8s0.9,0.6,1.6,0.6c0.5,0,0.9-0.1,1.2-0.3c0.3-0.2,0.4-0.5,0.4-0.9c0-0.2,0-0.3-0.1-0.4
		c-0.1-0.1-0.2-0.3-0.3-0.4c-0.2-0.1-0.4-0.2-0.6-0.4s-0.6-0.3-1-0.5c-0.5-0.2-1-0.4-1.3-0.6s-0.6-0.4-0.9-0.6
		c-0.2-0.2-0.4-0.5-0.5-0.7s-0.2-0.6-0.2-1c0-0.4,0.1-0.8,0.3-1.1c0.2-0.3,0.5-0.5,0.8-0.7c0.3-0.2,0.7-0.3,1-0.4
		c0.4-0.1,0.7-0.1,1-0.1c0.6,0,1.1,0.1,1.5,0.2S154.9,43.2,155.3,43.4z"/>
	<path id="XMLID_112_" fill="#2B2D2A" d="M161.2,47.3c0-0.6,0.1-1.2,0.3-1.8c0.2-0.6,0.5-1,0.9-1.4s0.8-0.7,1.4-1
		c0.5-0.2,1.1-0.3,1.7-0.3c0.7,0,1.3,0.1,1.8,0.3c0.5,0.2,1,0.5,1.3,0.9c0.4,0.4,0.6,0.9,0.8,1.4c0.2,0.6,0.3,1.2,0.3,1.8
		c0,0.6-0.1,1.2-0.3,1.8s-0.5,1-0.9,1.4c-0.4,0.4-0.8,0.7-1.3,0.9c-0.5,0.2-1.1,0.3-1.8,0.3s-1.2-0.1-1.8-0.3
		c-0.5-0.2-1-0.5-1.4-0.9c-0.4-0.4-0.7-0.9-0.9-1.4C161.3,48.6,161.2,48,161.2,47.3z M163.1,46.9c0,1.3,0.2,2.3,0.7,3
		c0.5,0.7,1.1,1,1.8,1c0.8,0,1.3-0.3,1.7-0.9c0.4-0.6,0.6-1.4,0.6-2.4c0-0.6-0.1-1.1-0.2-1.6c-0.1-0.5-0.3-0.9-0.6-1.2
		c-0.2-0.3-0.5-0.6-0.8-0.8c-0.3-0.2-0.6-0.3-1-0.3c-0.7,0-1.3,0.3-1.6,0.9C163.3,45.2,163.1,45.9,163.1,46.9z"/>
	<path id="XMLID_115_" fill="#2B2D2A" d="M172.3,40.7c0-0.2,0-0.4,0-0.6c0-0.2-0.1-0.3-0.2-0.4c-0.1-0.1-0.2-0.2-0.4-0.3
		c-0.2-0.1-0.4-0.1-0.8-0.1c0-0.1,0-0.3,0-0.4c0-0.1,0.1-0.2,0.1-0.3c0.1,0,0.3,0,0.6-0.1s0.5-0.1,0.7-0.1c0.3-0.1,0.5-0.1,0.7-0.2
		c0.2-0.1,0.4-0.2,0.5-0.2c0.1,0,0.2,0.1,0.3,0.2c0.1,0.1,0.1,0.3,0.1,0.5v10.5c0,0.6,0.1,1.1,0.3,1.3s0.5,0.4,0.9,0.4
		c0,0.1,0.1,0.3,0.1,0.4c0,0.2,0,0.3,0,0.4c-0.3,0-0.7,0-1,0c-0.4,0-0.7,0-1.1,0c-0.4,0-0.7,0-1.1,0c-0.4,0-0.7,0-1.1,0
		c0-0.1,0-0.3,0-0.4c0-0.1,0-0.3,0.1-0.4c0.5,0,0.9-0.1,1-0.4s0.3-0.7,0.3-1.3V40.7z"/>
	<path id="XMLID_141_" fill="#2B2D2A" d="M181.4,42.8c0.4,0,0.7,0,0.9,0.1c0.2,0.1,0.4,0.1,0.6,0.2v-2.3c0-0.2,0-0.4,0-0.6
		c0-0.2-0.1-0.3-0.2-0.4c-0.1-0.1-0.2-0.2-0.4-0.3s-0.4-0.1-0.8-0.1c0-0.1,0-0.3,0-0.4c0-0.1,0.1-0.2,0.1-0.3c0.1,0,0.3,0,0.6-0.1
		s0.5-0.1,0.7-0.1c0.3-0.1,0.5-0.1,0.7-0.2c0.2-0.1,0.4-0.2,0.5-0.2c0.1,0,0.2,0.1,0.3,0.2c0.1,0.1,0.1,0.3,0.1,0.5v10.5
		c0,0.4,0.1,0.7,0.2,0.9c0.2,0.2,0.5,0.3,1,0.3c0,0.1,0,0.3,0,0.4c0,0.1,0,0.3-0.1,0.4c-0.1,0-0.3,0-0.5,0c-0.2,0-0.4,0.1-0.6,0.1
		s-0.4,0.1-0.6,0.2c-0.2,0.1-0.3,0.2-0.5,0.2c-0.1,0-0.2-0.1-0.3-0.2c-0.1-0.1-0.2-0.4-0.2-0.7c0-0.2,0-0.5,0-0.7
		c0-0.2,0-0.4,0.1-0.6c-0.1,0.1-0.1,0.2-0.2,0.3c-0.1,0.2-0.2,0.4-0.3,0.5c-0.1,0.1-0.2,0.3-0.4,0.5c-0.2,0.2-0.4,0.3-0.6,0.5
		c-0.2,0.1-0.5,0.3-0.8,0.4c-0.3,0.1-0.6,0.1-0.9,0.1c-1.1,0-2-0.3-2.6-1c-0.6-0.7-0.9-1.7-0.9-3.2c0-0.7,0.1-1.3,0.3-1.9
		c0.2-0.6,0.5-1.1,1-1.5c0.4-0.4,0.9-0.8,1.5-1C180,42.9,180.7,42.8,181.4,42.8z M182.7,48.7c0.1-0.4,0.2-0.8,0.2-1.4v-3
		c-0.2-0.2-0.4-0.3-0.6-0.4c-0.3-0.2-0.7-0.3-1.1-0.3c-0.3,0-0.6,0.1-0.9,0.2c-0.3,0.1-0.6,0.3-0.9,0.6c-0.3,0.3-0.5,0.7-0.7,1.1
		c-0.2,0.5-0.3,1.1-0.3,1.9c0,0.6,0.1,1.1,0.2,1.5s0.3,0.8,0.5,1c0.2,0.3,0.4,0.4,0.7,0.6c0.2,0.1,0.5,0.2,0.7,0.2
		c0.3,0,0.6-0.1,0.8-0.2c0.3-0.1,0.5-0.3,0.7-0.6S182.6,49.1,182.7,48.7z"/>
	<path id="XMLID_144_" fill="#2B2D2A" d="M43.5,127.2c0-0.6-0.1-1.1-0.3-1.3c-0.2-0.2-0.5-0.3-1-0.4c-0.1-0.2-0.1-0.4-0.1-0.8
		c0.7,0,1.5,0.1,2.3,0.1c0.4,0,0.8,0,1.2,0c0.4,0,0.8,0,1.1,0c0,0.4,0,0.6-0.1,0.8c-0.5,0-0.9,0.1-1,0.4c-0.2,0.2-0.3,0.6-0.3,1.3v8
		c0,0.6,0.1,1.1,0.3,1.3c0.2,0.2,0.5,0.3,1,0.4c0.1,0.2,0.1,0.4,0.1,0.8c-0.8,0-1.5-0.1-2.3-0.1c-0.4,0-0.8,0-1.2,0
		c-0.4,0-0.8,0-1.1,0c0-0.4,0-0.6,0.1-0.8c0.5,0,0.9-0.1,1-0.4c0.2-0.2,0.3-0.6,0.3-1.3V127.2z"/>
	<path id="XMLID_147_" fill="#2B2D2A" d="M59.1,134.8c0,0.6,0.1,1,0.2,1.2c0.1,0.2,0.4,0.3,0.9,0.3c0,0.1,0,0.3,0,0.5
		s-0.1,0.3-0.1,0.4c-0.3,0.1-0.7,0.1-1.1,0.2c-0.4,0.1-0.7,0.2-1,0.4c-0.1-0.1-0.2-0.1-0.3-0.3c-0.1-0.1-0.1-0.4-0.1-0.6
		c0-0.2,0-0.3,0-0.5c0-0.1,0-0.2,0-0.3c-0.1,0.2-0.1,0.3-0.2,0.5c-0.1,0.2-0.3,0.3-0.5,0.6c-0.2,0.2-0.5,0.3-0.8,0.5
		c-0.3,0.1-0.7,0.2-1.1,0.2c-0.8,0-1.4-0.2-1.9-0.5c-0.4-0.4-0.6-0.8-0.6-1.5c0-0.6,0.2-1.1,0.5-1.5c0.4-0.4,0.8-0.7,1.3-0.9
		c0.5-0.2,1-0.4,1.6-0.5c0.6-0.1,1-0.2,1.4-0.3c0-0.4,0-0.7,0-1c0-0.3,0-0.5-0.1-0.6s-0.1-0.3-0.1-0.4c-0.1-0.1-0.1-0.2-0.2-0.3
		c-0.3-0.4-0.7-0.6-1.2-0.6c-0.3,0-0.5,0.1-0.7,0.2s-0.4,0.3-0.5,0.6c-0.1,0.2-0.2,0.5-0.3,0.7c-0.1,0.3-0.1,0.5-0.1,0.7
		c-0.1,0-0.3,0-0.5,0c-0.2,0-0.4-0.1-0.5-0.1c0-0.3,0-0.7,0-1.1c0-0.4-0.1-0.7-0.1-1c0.5-0.3,1-0.5,1.6-0.6c0.6-0.2,1.1-0.2,1.7-0.2
		c0.4,0,0.8,0.1,1.1,0.2c0.3,0.1,0.6,0.3,0.8,0.5c0.2,0.2,0.3,0.3,0.4,0.5c0.1,0.2,0.2,0.4,0.2,0.7c0.1,0.3,0.1,0.6,0.1,0.9
		s0,0.7,0,1.2V134.8z M57.4,133.3c-0.3,0-0.7,0.1-1,0.2c-0.4,0.1-0.7,0.2-1,0.3s-0.5,0.3-0.7,0.6s-0.3,0.6-0.3,1
		c0,0.5,0.1,0.8,0.3,1c0.2,0.2,0.5,0.3,0.8,0.3c0.2,0,0.4-0.1,0.6-0.2c0.2-0.1,0.4-0.3,0.6-0.5c0.2-0.2,0.3-0.5,0.5-0.8
		c0.1-0.3,0.2-0.7,0.2-1.2V133.3z"/>
	<path id="XMLID_148_" fill="#2B2D2A" d="M61.6,129.4c0.2,0,0.4,0,0.6-0.1s0.5-0.1,0.7-0.2c0.2-0.1,0.5-0.1,0.7-0.2
		c0.2-0.1,0.4-0.1,0.5-0.2c0.1,0,0.2,0.1,0.3,0.2c0.1,0.1,0.1,0.3,0.1,0.5c0,0.2,0,0.5,0,0.7c0,0.1,0,0.3,0,0.5
		c0.1-0.1,0.1-0.2,0.1-0.3c0.1-0.2,0.2-0.3,0.2-0.3c0.1-0.2,0.2-0.3,0.4-0.5c0.2-0.2,0.4-0.3,0.6-0.4s0.5-0.2,0.8-0.3
		c0.3-0.1,0.6-0.1,0.9-0.1c0.5,0,1,0.1,1.5,0.4c0.4,0.2,0.8,0.7,1,1.2c0,0.1,0.1,0.3,0.1,0.5c0-0.1,0.1-0.2,0.1-0.3
		c0.1-0.1,0.1-0.2,0.2-0.3c0.1-0.2,0.2-0.3,0.4-0.5c0.2-0.2,0.4-0.3,0.6-0.4c0.2-0.1,0.5-0.2,0.8-0.3c0.3-0.1,0.6-0.1,0.9-0.1
		c0.4,0,0.7,0.1,1,0.2c0.3,0.1,0.6,0.3,0.9,0.5s0.4,0.6,0.6,1c0.1,0.4,0.2,0.9,0.2,1.5v3.3c0,0.3,0,0.6,0.1,0.8s0.1,0.4,0.2,0.5
		c0.1,0.1,0.2,0.2,0.4,0.3c0.1,0.1,0.3,0.1,0.5,0.1c0,0.1,0.1,0.2,0.1,0.4c0,0.1,0,0.3,0,0.5c-0.3,0-0.6,0-1,0c-0.4,0-0.7,0-1.1,0
		s-0.8,0-1.2,0c-0.4,0-0.8,0-1.1,0c0-0.4,0-0.6,0.1-0.8c0.5,0,0.9-0.1,1-0.4c0.2-0.2,0.3-0.6,0.3-1.3v-2.9c0-0.4,0-0.8-0.1-1.1
		c-0.1-0.3-0.2-0.5-0.4-0.7c-0.2-0.2-0.3-0.3-0.6-0.4c-0.2-0.1-0.4-0.1-0.7-0.1c-0.2,0-0.5,0.1-0.7,0.2c-0.3,0.1-0.5,0.3-0.7,0.6
		c-0.2,0.3-0.4,0.6-0.5,1c-0.1,0.4-0.2,0.9-0.2,1.5v2c0,0.3,0,0.6,0.1,0.8s0.1,0.4,0.2,0.5s0.2,0.2,0.4,0.3c0.2,0.1,0.4,0.1,0.6,0.1
		c0,0.1,0.1,0.2,0.1,0.4c0,0.1,0,0.3,0,0.5c-0.3,0-0.7,0-1.1,0c-0.4,0-0.8,0-1.2,0c-0.4,0-0.8,0-1.1,0c-0.4,0-0.8,0-1.1,0
		c0-0.4,0-0.6,0.1-0.8c0.5,0,0.9-0.1,1-0.4c0.2-0.2,0.3-0.6,0.3-1.3v-3c0-0.4,0-0.8-0.1-1.1c-0.1-0.3-0.2-0.5-0.4-0.7
		s-0.3-0.3-0.6-0.4c-0.2-0.1-0.4-0.1-0.7-0.1c-0.2,0-0.5,0.1-0.7,0.2s-0.5,0.3-0.7,0.6c-0.2,0.3-0.4,0.6-0.5,1
		c-0.1,0.4-0.2,0.9-0.2,1.5v2.1c0,0.6,0.1,1.1,0.3,1.3c0.2,0.2,0.5,0.3,1,0.4c0,0.1,0.1,0.2,0.1,0.4c0,0.1,0,0.3,0,0.5
		c-0.3,0-0.7,0-1.1,0c-0.4,0-0.8,0-1.1,0s-0.7,0-1.1,0c-0.4,0-0.8,0-1.1,0c0-0.4,0-0.6,0.1-0.8c0.5,0,0.9-0.1,1-0.4
		c0.2-0.2,0.3-0.6,0.3-1.3v-3.8c0-0.2,0-0.4,0-0.6c0-0.2-0.1-0.3-0.2-0.4c-0.1-0.1-0.2-0.2-0.4-0.2c-0.2-0.1-0.4-0.1-0.8-0.1
		c0-0.1,0-0.3,0-0.4C61.5,129.6,61.5,129.5,61.6,129.4z"/>
	<path id="XMLID_151_" fill="#2B2D2A" d="M85.1,135.2c0,0.6,0.1,1.1,0.3,1.3c0.2,0.2,0.5,0.4,0.9,0.4c0,0.1,0.1,0.3,0.1,0.4
		c0,0.2,0,0.3,0,0.4c-0.3,0-0.7,0-1,0c-0.4,0-0.7,0-1.1,0c-0.4,0-0.7,0-1.1,0c-0.4,0-0.7,0-1.1,0c0-0.1,0-0.3,0-0.4
		c0-0.1,0-0.3,0.1-0.4c0.5,0,0.9-0.1,1-0.4s0.3-0.7,0.3-1.3v-3.8c0-0.2,0-0.4,0-0.6c0-0.2-0.1-0.3-0.2-0.4c-0.1-0.1-0.2-0.2-0.4-0.3
		s-0.4-0.1-0.8-0.1c0-0.1,0-0.3,0-0.4c0-0.1,0.1-0.2,0.1-0.3c0.1,0,0.3,0,0.6-0.1s0.5-0.1,0.7-0.1c0.3-0.1,0.5-0.1,0.7-0.2
		c0.2-0.1,0.4-0.2,0.5-0.2c0.1,0,0.2,0.1,0.3,0.2c0.1,0.1,0.1,0.3,0.1,0.5V135.2z M83,125.5c0-0.3,0.1-0.6,0.3-0.8
		c0.2-0.2,0.5-0.3,0.8-0.3c0.3,0,0.6,0.1,0.8,0.3c0.2,0.2,0.3,0.5,0.3,0.8c0,0.3-0.1,0.5-0.3,0.8c-0.2,0.2-0.5,0.3-0.8,0.3
		c-0.3,0-0.6-0.1-0.8-0.3C83.1,126.1,83,125.8,83,125.5z"/>
	<path id="XMLID_152_" fill="#2B2D2A" d="M96.5,135.2c0,0.7,0.1,1.1,0.3,1.3s0.5,0.3,0.8,0.3c0,0.1,0.1,0.2,0.1,0.4
		c0,0.1,0,0.3,0,0.5c-0.3,0-0.6,0-1,0c-0.4,0-0.7,0-1.1,0s-0.8,0-1.2,0s-0.8,0-1.1,0c0-0.4,0-0.6,0.1-0.8c0.5,0,0.8-0.1,1-0.4
		s0.3-0.7,0.3-1.3v-2.9c0-0.4,0-0.8-0.1-1.1c-0.1-0.3-0.2-0.5-0.4-0.7c-0.2-0.2-0.3-0.3-0.6-0.4S93.3,130,93,130s-0.5,0.1-0.8,0.2
		c-0.3,0.1-0.5,0.3-0.7,0.6c-0.2,0.3-0.4,0.6-0.5,1c-0.1,0.4-0.2,0.9-0.2,1.5v2c0,0.6,0.1,1.1,0.3,1.3s0.5,0.4,1,0.4
		c0,0.1,0.1,0.2,0.1,0.4c0,0.1,0,0.3,0,0.5c-0.3,0-0.6,0-1,0s-0.8,0-1.2,0s-0.8,0-1.2,0c-0.4,0-0.8,0-1,0c0-0.4,0-0.6,0.1-0.8
		c0.5,0,0.8-0.1,1-0.4c0.2-0.2,0.3-0.7,0.3-1.3v-3.8c0-0.2,0-0.4,0-0.6c0-0.2-0.1-0.3-0.2-0.4c-0.1-0.1-0.2-0.2-0.4-0.2
		c-0.2-0.1-0.4-0.1-0.8-0.1c0-0.1,0-0.3,0-0.4c0-0.1,0.1-0.2,0.1-0.3c0.2,0,0.4,0,0.6-0.1c0.2,0,0.5-0.1,0.7-0.2
		c0.2-0.1,0.5-0.1,0.7-0.2s0.4-0.1,0.5-0.2c0.1,0,0.2,0.1,0.3,0.2c0.1,0.1,0.1,0.3,0.1,0.6c0,0.2,0,0.3,0,0.5c0,0.2-0.1,0.4-0.1,0.6
		l0.1-0.2c0-0.1,0.1-0.2,0.2-0.3c0.1-0.2,0.2-0.3,0.4-0.5c0.2-0.2,0.4-0.3,0.6-0.4s0.5-0.2,0.8-0.3c0.3-0.1,0.6-0.1,0.9-0.1
		c0.4,0,0.7,0.1,1,0.2c0.3,0.1,0.6,0.3,0.9,0.5s0.5,0.6,0.6,1c0.1,0.4,0.2,0.9,0.2,1.5V135.2z"/>
	<path id="XMLID_153_" fill="#2B2D2A" d="M104,128.9c0.3,0,0.5,0,0.9,0c0.3,0,0.6,0,0.9,0s0.6,0,0.9,0c0.3,0,0.6,0,0.8,0
		c0,0.3-0.1,0.6-0.2,0.8c-0.2,0-0.3,0.1-0.4,0.2c-0.1,0.1-0.2,0.2-0.4,0.4c-0.1,0.2-0.2,0.4-0.4,0.6c-0.1,0.2-0.3,0.6-0.4,0.9
		l-2.5,6c-0.2,0-0.3,0-0.5,0s-0.3-0.1-0.4-0.1c-0.1-0.2-0.2-0.4-0.4-0.8c-0.2-0.4-0.3-0.8-0.5-1.2s-0.4-0.9-0.6-1.4
		c-0.2-0.5-0.4-1-0.6-1.4c-0.2-0.4-0.4-0.8-0.5-1.2c-0.2-0.3-0.3-0.6-0.3-0.7c-0.1-0.3-0.2-0.5-0.3-0.6c-0.1-0.2-0.2-0.3-0.3-0.4
		c-0.1-0.1-0.2-0.1-0.3-0.2c-0.1,0-0.2-0.1-0.3-0.1c-0.1-0.2-0.1-0.3-0.1-0.4c0-0.1,0-0.2,0-0.4c0.5,0,1.2,0.1,2,0.1
		c0.4,0,0.8,0,1.2,0c0.4,0,0.8,0,1.1,0c0,0.1,0,0.3,0,0.4s-0.1,0.3-0.1,0.4c-0.3,0-0.6,0.1-0.8,0.1c-0.2,0-0.3,0.1-0.4,0.2
		c-0.1,0.1-0.1,0.2,0,0.4s0.1,0.4,0.2,0.6c0.1,0.2,0.2,0.5,0.4,0.9c0.2,0.4,0.4,0.8,0.6,1.3c0.2,0.5,0.4,1,0.6,1.5
		c0.2,0.4,0.3,0.8,0.5,1.1c0.3-0.7,0.5-1.4,0.7-2c0.3-0.7,0.5-1.3,0.7-1.8c0.3-0.8,0.4-1.4,0.3-1.7c-0.1-0.3-0.4-0.5-0.9-0.5
		C104,129.4,104,129.2,104,128.9z"/>
	<path id="XMLID_200_" fill="#2B2D2A" d="M111.8,133.4c-0.4,0-0.8,0-1.2,0.1c0,0.3,0,0.6,0.1,0.8c0.1,0.5,0.2,0.9,0.4,1.2
		s0.5,0.7,0.8,0.9c0.4,0.2,0.8,0.3,1.4,0.3c0.4,0,0.8-0.1,1.2-0.3c0.4-0.2,0.8-0.5,1.1-0.8c0.1,0.1,0.2,0.2,0.3,0.3
		c0.1,0.1,0.1,0.2,0.2,0.3c-0.4,0.6-0.9,1-1.5,1.2c-0.6,0.2-1.2,0.4-1.9,0.4c-0.7,0-1.3-0.1-1.8-0.4c-0.5-0.2-0.9-0.6-1.3-1
		s-0.6-0.9-0.8-1.4s-0.2-1.1-0.2-1.8c0-0.6,0.1-1.2,0.3-1.7c0.2-0.5,0.4-1,0.8-1.4c0.3-0.4,0.7-0.7,1.2-1c0.5-0.2,1-0.4,1.6-0.4
		c0.6,0,1.1,0.1,1.6,0.3s0.8,0.5,1.1,0.8c0.3,0.4,0.5,0.8,0.6,1.2c0.1,0.5,0.2,1,0.3,1.5c-0.1,0.3-0.1,0.5-0.3,0.6h-1
		c-0.4,0-0.9,0-1.5,0C112.9,133.4,112.4,133.4,111.8,133.4z M110.7,131.3c-0.1,0.3-0.1,0.7-0.2,1.2h3.6c0-0.8-0.2-1.5-0.5-2
		s-0.7-0.8-1.3-0.8c-0.2,0-0.5,0-0.7,0.1s-0.4,0.3-0.6,0.5C111,130.6,110.8,130.9,110.7,131.3z"/>
	<path id="XMLID_214_" fill="#2B2D2A" d="M123.7,129.4c0,0.3,0,0.6,0,1s0,0.7,0.1,1c-0.3,0.2-0.6,0.2-1,0.2c0-0.3-0.1-0.5-0.2-0.8
		c-0.1-0.2-0.3-0.5-0.4-0.7s-0.4-0.4-0.7-0.5c-0.3-0.1-0.5-0.2-0.8-0.2c-0.4,0-0.7,0.1-0.9,0.3c-0.2,0.2-0.4,0.4-0.4,0.8
		c0,0.2,0,0.3,0.1,0.4c0,0.1,0.1,0.3,0.3,0.4c0.2,0.1,0.4,0.3,0.7,0.4c0.3,0.1,0.7,0.3,1.2,0.5c0.5,0.2,0.9,0.4,1.3,0.6
		c0.3,0.2,0.6,0.4,0.8,0.6c0.2,0.2,0.4,0.4,0.4,0.7c0.1,0.3,0.1,0.6,0.1,0.9c0,0.4-0.1,0.8-0.3,1.1c-0.2,0.3-0.4,0.6-0.7,0.8
		c-0.3,0.2-0.7,0.4-1.1,0.5c-0.4,0.1-0.9,0.2-1.4,0.2c-0.4,0-0.7,0-1,0c-0.3,0-0.6-0.1-0.8-0.1c-0.2-0.1-0.5-0.1-0.7-0.2
		c-0.2-0.1-0.4-0.2-0.6-0.3c0-0.2,0-0.3,0-0.5c0-0.2,0-0.4,0-0.6s0-0.4,0-0.6c0-0.2,0-0.4,0-0.5c0.1-0.1,0.2-0.1,0.4-0.2
		c0.2,0,0.4,0,0.6,0c0.1,0.8,0.3,1.4,0.7,1.8s0.9,0.6,1.6,0.6c0.5,0,0.9-0.1,1.2-0.3c0.3-0.2,0.4-0.5,0.4-0.9c0-0.2,0-0.3-0.1-0.4
		c-0.1-0.1-0.2-0.3-0.3-0.4c-0.2-0.1-0.4-0.2-0.6-0.4s-0.6-0.3-1-0.5c-0.5-0.2-1-0.4-1.3-0.6s-0.6-0.4-0.9-0.6
		c-0.2-0.2-0.4-0.5-0.5-0.7s-0.2-0.6-0.2-1c0-0.4,0.1-0.8,0.3-1.1c0.2-0.3,0.5-0.5,0.8-0.7c0.3-0.2,0.7-0.3,1-0.4
		c0.4-0.1,0.7-0.1,1-0.1c0.6,0,1.1,0.1,1.5,0.2S123.3,129.2,123.7,129.4z"/>
	<path id="XMLID_221_" fill="#2B2D2A" d="M126.8,129.1v-2.5c0.3-0.1,0.5-0.2,0.8-0.3c0.3-0.1,0.5-0.3,0.7-0.5l0.2,0.1l0.1,0.2
		c0,0.1,0,0.2,0,0.3c0,0.1,0,0.3,0,0.5v2.3h2.5c0,0.3-0.1,0.6-0.2,0.8c-0.9,0-1.7,0.1-2.3,0.2v4.8c0,0.6,0.1,1.1,0.3,1.4
		c0.2,0.3,0.5,0.4,0.8,0.4c0.3,0,0.5,0,0.7-0.1s0.4-0.2,0.6-0.3c0.2,0.2,0.3,0.4,0.3,0.6c-0.2,0.2-0.5,0.4-0.9,0.6
		c-0.4,0.2-0.8,0.2-1.2,0.2c-0.8,0-1.3-0.2-1.7-0.6c-0.4-0.4-0.5-1-0.5-1.9v-5.1c-0.2-0.1-0.4-0.1-0.6-0.2c-0.2,0-0.5-0.1-0.8-0.1
		c0-0.2,0-0.3,0-0.4s0.1-0.3,0.1-0.4H126.8z"/>
	<path id="XMLID_300_" fill="#2B2D2A" d="M135.6,135.2c0,0.6,0.1,1.1,0.3,1.3c0.2,0.2,0.5,0.4,0.9,0.4c0,0.1,0.1,0.3,0.1,0.4
		c0,0.2,0,0.3,0,0.4c-0.3,0-0.7,0-1,0c-0.4,0-0.7,0-1.1,0c-0.4,0-0.7,0-1.1,0c-0.4,0-0.7,0-1.1,0c0-0.1,0-0.3,0-0.4
		c0-0.1,0-0.3,0.1-0.4c0.5,0,0.9-0.1,1-0.4s0.3-0.7,0.3-1.3v-3.8c0-0.2,0-0.4,0-0.6c0-0.2-0.1-0.3-0.2-0.4c-0.1-0.1-0.2-0.2-0.4-0.3
		s-0.4-0.1-0.8-0.1c0-0.1,0-0.3,0-0.4c0-0.1,0.1-0.2,0.1-0.3c0.1,0,0.3,0,0.6-0.1s0.5-0.1,0.7-0.1c0.3-0.1,0.5-0.1,0.7-0.2
		c0.2-0.1,0.4-0.2,0.5-0.2c0.1,0,0.2,0.1,0.3,0.2c0.1,0.1,0.1,0.3,0.1,0.5V135.2z M133.4,125.5c0-0.3,0.1-0.6,0.3-0.8
		c0.2-0.2,0.5-0.3,0.8-0.3c0.3,0,0.6,0.1,0.8,0.3c0.2,0.2,0.3,0.5,0.3,0.8c0,0.3-0.1,0.5-0.3,0.8c-0.2,0.2-0.5,0.3-0.8,0.3
		c-0.3,0-0.6-0.1-0.8-0.3C133.5,126.1,133.4,125.8,133.4,125.5z"/>
	<path id="XMLID_333_" fill="#2B2D2A" d="M146.9,135.2c0,0.7,0.1,1.1,0.3,1.3s0.5,0.3,0.8,0.3c0,0.1,0.1,0.2,0.1,0.4
		c0,0.1,0,0.3,0,0.5c-0.3,0-0.6,0-1,0c-0.4,0-0.7,0-1.1,0s-0.8,0-1.2,0s-0.8,0-1.1,0c0-0.4,0-0.6,0.1-0.8c0.5,0,0.8-0.1,1-0.4
		s0.3-0.7,0.3-1.3v-2.9c0-0.4,0-0.8-0.1-1.1c-0.1-0.3-0.2-0.5-0.4-0.7c-0.2-0.2-0.3-0.3-0.6-0.4s-0.4-0.1-0.7-0.1s-0.5,0.1-0.8,0.2
		c-0.3,0.1-0.5,0.3-0.7,0.6c-0.2,0.3-0.4,0.6-0.5,1c-0.1,0.4-0.2,0.9-0.2,1.5v2c0,0.6,0.1,1.1,0.3,1.3s0.5,0.4,1,0.4
		c0,0.1,0.1,0.2,0.1,0.4c0,0.1,0,0.3,0,0.5c-0.3,0-0.6,0-1,0s-0.8,0-1.2,0s-0.8,0-1.2,0c-0.4,0-0.8,0-1,0c0-0.4,0-0.6,0.1-0.8
		c0.5,0,0.8-0.1,1-0.4c0.2-0.2,0.3-0.7,0.3-1.3v-3.8c0-0.2,0-0.4,0-0.6c0-0.2-0.1-0.3-0.2-0.4c-0.1-0.1-0.2-0.2-0.4-0.2
		c-0.2-0.1-0.4-0.1-0.8-0.1c0-0.1,0-0.3,0-0.4c0-0.1,0.1-0.2,0.1-0.3c0.2,0,0.4,0,0.6-0.1c0.2,0,0.5-0.1,0.7-0.2
		c0.2-0.1,0.5-0.1,0.7-0.2s0.4-0.1,0.5-0.2c0.1,0,0.2,0.1,0.3,0.2c0.1,0.1,0.1,0.3,0.1,0.6c0,0.2,0,0.3,0,0.5c0,0.2-0.1,0.4-0.1,0.6
		l0.1-0.2c0-0.1,0.1-0.2,0.2-0.3c0.1-0.2,0.2-0.3,0.4-0.5c0.2-0.2,0.4-0.3,0.6-0.4s0.5-0.2,0.8-0.3c0.3-0.1,0.6-0.1,0.9-0.1
		c0.4,0,0.7,0.1,1,0.2c0.3,0.1,0.6,0.3,0.9,0.5s0.5,0.6,0.6,1c0.1,0.4,0.2,0.9,0.2,1.5V135.2z"/>
	<path id="XMLID_381_" fill="#2B2D2A" d="M153.3,128.8c0.4,0,0.8,0.1,1.2,0.2h3.1c0.1,0.2,0.1,0.4,0.1,0.6s0,0.4,0,0.6
		c-0.2,0-0.3-0.1-0.5-0.1s-0.4-0.1-0.6-0.1c-0.2,0-0.4-0.1-0.6-0.1h-0.1l0.1,0.1c0.3,0.3,0.5,0.6,0.6,1c0.1,0.4,0.2,0.7,0.2,0.9
		c0,0.4-0.1,0.9-0.2,1.2c-0.1,0.4-0.4,0.7-0.7,1c-0.3,0.3-0.7,0.5-1.1,0.7c-0.4,0.2-0.9,0.2-1.5,0.2c-0.5,0-0.9-0.1-1.3-0.2
		l-0.2-0.1c-0.1,0.1-0.2,0.3-0.3,0.4c-0.1,0.2-0.2,0.4-0.2,0.5c0,0.2,0,0.3,0.1,0.4s0.2,0.2,0.4,0.2c0.2,0.1,0.5,0.1,0.8,0.1
		c0.4,0,0.8,0,1.5,0c0.6,0,1.2,0,1.6,0.1s0.8,0.2,1.1,0.4c0.3,0.2,0.5,0.4,0.6,0.7c0.1,0.3,0.2,0.6,0.2,1c0,0.4-0.1,0.9-0.4,1.3
		s-0.6,0.9-1,1.2c-0.4,0.4-0.9,0.7-1.5,0.9c-0.6,0.2-1.2,0.4-1.9,0.4c-1.2,0-2-0.2-2.5-0.7c-0.5-0.4-0.8-1.1-0.8-1.9
		c0-0.5,0.1-0.9,0.4-1.3c0.2-0.3,0.6-0.6,1-0.8c-0.1-0.1-0.2-0.1-0.3-0.2c-0.2-0.1-0.3-0.3-0.4-0.5c-0.1-0.2-0.1-0.4-0.1-0.7
		c0-0.4,0.1-0.8,0.4-1.2c0.2-0.3,0.4-0.6,0.6-0.8l-0.2-0.1c-0.3-0.3-0.6-0.6-0.8-1c-0.2-0.4-0.3-0.8-0.3-1.3c0-0.4,0.1-0.8,0.2-1.2
		s0.4-0.7,0.6-1c0.3-0.3,0.6-0.5,1.1-0.7C152.3,128.8,152.7,128.8,153.3,128.8z M152.9,138c-0.4,0-0.8,0-1,0
		c-0.2,0.2-0.4,0.4-0.5,0.6c-0.1,0.3-0.2,0.6-0.2,0.9c0,0.6,0.2,1.1,0.5,1.5c0.3,0.3,0.9,0.5,1.7,0.5c0.4,0,0.8-0.1,1.1-0.2
		c0.3-0.1,0.6-0.3,0.8-0.5c0.2-0.2,0.4-0.4,0.5-0.7c0.1-0.3,0.2-0.5,0.2-0.8c0-0.2,0-0.4-0.1-0.6c-0.1-0.2-0.2-0.3-0.5-0.4
		s-0.5-0.2-1-0.2C154.1,138,153.5,138,152.9,138z M153.1,129.6c-0.3,0-0.5,0.1-0.7,0.2c-0.2,0.1-0.3,0.3-0.5,0.5
		c-0.1,0.2-0.2,0.4-0.3,0.7s-0.1,0.5-0.1,0.8c0,0.8,0.2,1.4,0.5,1.8c0.3,0.4,0.8,0.6,1.4,0.6c0.4,0,0.8-0.2,1-0.5
		c0.3-0.3,0.4-0.8,0.4-1.5c0-0.3,0-0.7-0.1-1c-0.1-0.3-0.2-0.6-0.4-0.8c-0.2-0.2-0.4-0.4-0.6-0.5S153.4,129.6,153.1,129.6z"/>
	<path id="XMLID_382_" fill="#2B2D2A" d="M166.2,129.1h1.9c0,0.1,0,0.3,0,0.4c0,0.2-0.1,0.3-0.2,0.4c-0.7,0-1.3,0.1-1.7,0.2v4.6
		c0,0.4,0,0.8,0.1,1c0.1,0.3,0.2,0.5,0.3,0.6c0.1,0.2,0.3,0.3,0.5,0.3c0.2,0.1,0.5,0.1,0.8,0.1c0.1,0.2,0.1,0.4,0.1,0.8
		c-0.3,0-0.7,0-1.1,0c-0.4,0-0.9,0-1.3,0h-0.7c-0.2,0-0.5,0-0.7,0c-0.2,0-0.4,0-0.6,0s-0.3,0-0.5,0c0-0.4,0-0.6,0.1-0.8
		c0.5,0,0.9-0.1,1-0.4c0.2-0.2,0.3-0.6,0.3-1.3v-5.1c-0.3-0.1-0.6-0.1-0.8-0.1s-0.5,0-0.7,0c0-0.3,0.1-0.6,0.3-0.9h1.3v-0.8
		c0-0.7,0.1-1.3,0.3-1.9c0.2-0.5,0.5-1,0.9-1.3c0.4-0.4,0.8-0.6,1.3-0.8c0.5-0.2,1-0.3,1.5-0.3c0.5,0,0.9,0,1.1,0.1
		c0.2,0.1,0.5,0.2,0.7,0.3c0,0.4,0,0.8-0.1,1.2s0,0.7,0,1.1c-0.2,0.1-0.3,0.1-0.5,0.1s-0.4,0-0.6,0c0-0.5-0.1-1-0.3-1.3
		s-0.6-0.5-1.1-0.5c-0.5,0-0.9,0.2-1.1,0.7c-0.2,0.5-0.3,1.1-0.3,2V129.1z"/>
	<path id="XMLID_405_" fill="#2B2D2A" d="M169.6,133.3c0-0.6,0.1-1.2,0.3-1.8c0.2-0.6,0.5-1,0.9-1.4s0.8-0.7,1.4-1
		c0.5-0.2,1.1-0.3,1.7-0.3c0.7,0,1.3,0.1,1.8,0.3c0.5,0.2,1,0.5,1.3,0.9c0.4,0.4,0.6,0.9,0.8,1.4c0.2,0.6,0.3,1.2,0.3,1.8
		c0,0.6-0.1,1.2-0.3,1.8s-0.5,1-0.9,1.4c-0.4,0.4-0.8,0.7-1.3,0.9c-0.5,0.2-1.1,0.3-1.8,0.3s-1.2-0.1-1.8-0.3
		c-0.5-0.2-1-0.5-1.4-0.9c-0.4-0.4-0.7-0.9-0.9-1.4C169.7,134.6,169.6,134,169.6,133.3z M171.5,132.9c0,1.3,0.2,2.3,0.7,3
		c0.5,0.7,1.1,1,1.8,1c0.8,0,1.3-0.3,1.7-0.9c0.4-0.6,0.6-1.4,0.6-2.4c0-0.6-0.1-1.1-0.2-1.6c-0.1-0.5-0.3-0.9-0.6-1.2
		c-0.2-0.3-0.5-0.6-0.8-0.8c-0.3-0.2-0.6-0.3-1-0.3c-0.7,0-1.3,0.3-1.6,0.9C171.7,131.2,171.5,131.9,171.5,132.9z"/>
	<path id="XMLID_406_" fill="#2B2D2A" d="M182.9,132c-0.1,0.3-0.1,0.6-0.2,0.9v2c0,0.4,0,0.8,0.1,1c0.1,0.3,0.2,0.5,0.3,0.6
		c0.1,0.2,0.3,0.3,0.5,0.3c0.2,0.1,0.5,0.1,0.8,0.1c0.1,0.2,0.1,0.4,0.1,0.8c-0.3,0-0.7,0-1.1,0c-0.4,0-0.9,0-1.3,0h-0.7
		c-0.2,0-0.5,0-0.7,0c-0.2,0-0.4,0-0.6,0c-0.2,0-0.3,0-0.5,0c0-0.4,0-0.6,0.1-0.8c0.5,0,0.9-0.1,1-0.4c0.2-0.2,0.3-0.6,0.3-1.3v-3.8
		c0-0.2,0-0.4,0-0.6c0-0.2-0.1-0.3-0.2-0.4c-0.1-0.1-0.2-0.2-0.4-0.2c-0.2-0.1-0.4-0.1-0.8-0.1c0-0.1,0-0.3,0-0.4
		c0-0.1,0.1-0.2,0.1-0.3c0.2,0,0.4,0,0.6-0.1c0.2,0,0.5-0.1,0.7-0.2c0.2-0.1,0.5-0.1,0.7-0.2s0.4-0.1,0.5-0.2c0.1,0,0.2,0.1,0.3,0.2
		c0.1,0.1,0.1,0.3,0.1,0.6c0,0.4,0,0.8-0.1,1.2l-0.2,0.8c0.1-0.2,0.1-0.4,0.2-0.5c0.1-0.2,0.2-0.4,0.3-0.6c0.3-0.4,0.6-0.8,1-1.1
		c0.4-0.3,0.8-0.4,1.3-0.4c0.3,0,0.5,0,0.7,0.1s0.4,0.2,0.6,0.3c-0.1,0.3-0.1,0.7-0.1,1.1c0,0.4,0,0.8,0,1.1c-0.1,0-0.3,0.1-0.5,0.1
		s-0.4,0.1-0.6,0.1c0-0.6-0.1-1-0.3-1.2c-0.2-0.2-0.4-0.3-0.6-0.3c-0.2,0-0.3,0.1-0.5,0.2c-0.2,0.1-0.4,0.3-0.5,0.6
		S183,131.6,182.9,132z"/>
	<path id="XMLID_409_" fill="#2B2D2A" d="M44.4,257.4c0.5,0,1.1,0,1.6,0c0.5,0,1.1,0,1.6,0c0.7,0,1.3,0.1,1.9,0.2
		c0.5,0.2,0.9,0.4,1.3,0.7c0.3,0.3,0.6,0.6,0.8,1c0.2,0.4,0.2,0.8,0.2,1.3c0,0.9-0.3,1.6-0.9,2.2c-0.6,0.6-1.3,1-2.3,1.2
		c0.2,0.2,0.3,0.3,0.5,0.5c0.2,0.2,0.3,0.4,0.5,0.6c0.2,0.2,0.3,0.5,0.5,0.8s0.4,0.7,0.6,1.1c0.4,0.8,0.9,1.4,1.3,1.8
		c0.4,0.4,1,0.6,1.6,0.6c0,0.2,0,0.3,0,0.4c0,0.1,0,0.3-0.1,0.4c-0.5,0-1,0-1.5,0s-1,0-1.5,0.1c-0.2-0.3-0.4-0.7-0.7-1.3
		c-0.3-0.5-0.6-1.1-0.9-1.7c-0.3-0.6-0.6-1.2-1.1-1.7c-0.3-0.5-0.7-0.9-1.1-1.3c-0.5,0-1,0-1.4,0v3.4c0,0.6,0.1,1.1,0.3,1.3
		c0.2,0.2,0.5,0.3,1,0.4c0,0.1,0.1,0.2,0.1,0.4s0,0.3,0,0.4c-0.4,0-0.8,0-1.3,0c-0.4,0-0.8,0-1,0h-0.6c-0.2,0-0.4,0-0.6,0
		c-0.2,0-0.4,0-0.6,0s-0.4,0-0.5,0c0-0.1,0-0.3,0-0.4c0-0.1,0-0.3,0.1-0.4c0.5,0,0.9-0.1,1-0.4c0.2-0.2,0.3-0.6,0.3-1.3v-8
		c0-0.6-0.1-1.1-0.3-1.3s-0.5-0.4-1-0.4c0-0.1-0.1-0.3-0.1-0.4c0-0.1,0-0.3,0-0.4c0.2,0,0.5,0,1,0C43.5,257.4,43.9,257.4,44.4,257.4
		z M45.9,258c-0.2,0-0.4,0.1-0.6,0.1v5.3c0.1,0,0.2,0,0.4,0c0.2,0,0.3,0,0.5,0c0.5,0,1-0.1,1.5-0.2s0.8-0.3,1.2-0.5
		c0.3-0.2,0.6-0.5,0.8-0.9c0.2-0.4,0.3-0.8,0.3-1.3c0-0.8-0.2-1.4-0.7-1.9s-1.3-0.8-2.4-0.8C46.4,258,46.1,258,45.9,258z"/>
	<path id="XMLID_412_" fill="#2B2D2A" d="M57.8,267.8c0,0.6,0.1,1.1,0.3,1.3c0.2,0.2,0.5,0.4,0.9,0.4c0,0.1,0.1,0.3,0.1,0.4
		c0,0.2,0,0.3,0,0.4c-0.3,0-0.7,0-1,0c-0.4,0-0.7,0-1.1,0c-0.4,0-0.7,0-1.1,0c-0.4,0-0.7,0-1.1,0c0-0.1,0-0.3,0-0.4
		c0-0.1,0-0.3,0.1-0.4c0.5,0,0.9-0.1,1-0.4s0.3-0.7,0.3-1.3V264c0-0.2,0-0.4,0-0.6c0-0.2-0.1-0.3-0.2-0.4c-0.1-0.1-0.2-0.2-0.4-0.3
		s-0.4-0.1-0.8-0.1c0-0.1,0-0.3,0-0.4c0-0.1,0.1-0.2,0.1-0.3c0.1,0,0.3,0,0.6-0.1s0.5-0.1,0.7-0.1c0.3-0.1,0.5-0.1,0.7-0.2
		c0.2-0.1,0.4-0.2,0.5-0.2c0.1,0,0.2,0.1,0.3,0.2c0.1,0.1,0.1,0.3,0.1,0.5V267.8z M55.7,258.1c0-0.3,0.1-0.6,0.3-0.8
		c0.2-0.2,0.5-0.3,0.8-0.3c0.3,0,0.6,0.1,0.8,0.3c0.2,0.2,0.3,0.5,0.3,0.8c0,0.3-0.1,0.5-0.3,0.8c-0.2,0.2-0.5,0.3-0.8,0.3
		c-0.3,0-0.6-0.1-0.8-0.3C55.8,258.6,55.7,258.4,55.7,258.1z"/>
	<path id="XMLID_413_" fill="#2B2D2A" d="M66.5,262c0,0.3,0,0.6,0,1s0,0.7,0.1,1c-0.3,0.2-0.6,0.2-1,0.2c0-0.3-0.1-0.5-0.2-0.8
		c-0.1-0.2-0.3-0.5-0.4-0.7s-0.4-0.4-0.7-0.5c-0.3-0.1-0.5-0.2-0.8-0.2c-0.4,0-0.7,0.1-0.9,0.3c-0.2,0.2-0.4,0.4-0.4,0.8
		c0,0.2,0,0.3,0.1,0.4c0,0.1,0.1,0.3,0.3,0.4c0.2,0.1,0.4,0.3,0.7,0.4c0.3,0.1,0.7,0.3,1.2,0.5c0.5,0.2,0.9,0.4,1.3,0.6
		c0.3,0.2,0.6,0.4,0.8,0.6c0.2,0.2,0.4,0.4,0.4,0.7c0.1,0.3,0.1,0.6,0.1,0.9c0,0.4-0.1,0.8-0.3,1.1c-0.2,0.3-0.4,0.6-0.7,0.8
		c-0.3,0.2-0.7,0.4-1.1,0.5c-0.4,0.1-0.9,0.2-1.4,0.2c-0.4,0-0.7,0-1,0c-0.3,0-0.6-0.1-0.8-0.1c-0.2-0.1-0.5-0.1-0.7-0.2
		c-0.2-0.1-0.4-0.2-0.6-0.3c0-0.2,0-0.3,0-0.5c0-0.2,0-0.4,0-0.6s0-0.4,0-0.6c0-0.2,0-0.4,0-0.5c0.1-0.1,0.2-0.1,0.4-0.2
		c0.2,0,0.4,0,0.6,0c0.1,0.8,0.3,1.4,0.7,1.8s0.9,0.6,1.6,0.6c0.5,0,0.9-0.1,1.2-0.3c0.3-0.2,0.4-0.5,0.4-0.9c0-0.2,0-0.3-0.1-0.4
		c-0.1-0.1-0.2-0.3-0.3-0.4c-0.2-0.1-0.4-0.2-0.6-0.4s-0.6-0.3-1-0.5c-0.5-0.2-1-0.4-1.3-0.6s-0.6-0.4-0.9-0.6
		c-0.2-0.2-0.4-0.5-0.5-0.7s-0.2-0.6-0.2-1c0-0.4,0.1-0.8,0.3-1.1c0.2-0.3,0.5-0.5,0.8-0.7c0.3-0.2,0.7-0.3,1-0.4
		c0.4-0.1,0.7-0.1,1-0.1c0.6,0,1.1,0.1,1.5,0.2S66.1,261.8,66.5,262z"/>
	<path id="XMLID_414_" fill="#2B2D2A" d="M70,259.3c0-0.2,0-0.4,0-0.6c0-0.2-0.1-0.3-0.2-0.4c-0.1-0.1-0.2-0.2-0.4-0.3
		c-0.2-0.1-0.4-0.1-0.8-0.1c0-0.1,0-0.3,0-0.4c0-0.1,0.1-0.2,0.1-0.3c0.1,0,0.3,0,0.6-0.1s0.5-0.1,0.7-0.1c0.3-0.1,0.5-0.1,0.7-0.2
		c0.2-0.1,0.4-0.2,0.5-0.2c0.1,0,0.2,0.1,0.3,0.2c0.1,0.1,0.1,0.3,0.1,0.5v7.9l1.3-1.2c0.4-0.4,0.7-0.7,0.9-1s0.3-0.4,0.3-0.6
		c0-0.2-0.2-0.3-0.6-0.3c-0.1-0.2-0.1-0.5-0.1-0.8c0.4,0,0.8,0,1.1,0h1.7c0.3,0,0.6,0,1,0c0,0.1,0,0.3,0,0.4s-0.1,0.3-0.1,0.4
		c-0.4,0-0.7,0.1-1.1,0.3c-0.4,0.2-0.8,0.5-1.2,0.9l-1.7,1.5c0.1,0.1,0.2,0.3,0.3,0.4c0.2,0.2,0.5,0.5,0.7,0.8
		c0.2,0.3,0.5,0.6,0.8,0.9c0.3,0.3,0.6,0.7,0.9,1.1c0.2,0.3,0.4,0.5,0.6,0.6c0.2,0.2,0.3,0.3,0.4,0.4c0.1,0.1,0.3,0.1,0.4,0.2
		c0.2,0,0.3,0,0.6,0.1c0,0.4,0,0.6-0.1,0.8c-0.5,0-0.9,0-1.2,0c-0.4,0-0.8,0.1-1.2,0.1c-0.2-0.3-0.4-0.6-0.7-1
		c-0.3-0.4-0.7-0.9-1-1.3s-0.8-0.9-1.1-1.4c-0.3-0.3-0.5-0.6-0.8-0.9v2c0,0.6,0.1,1.1,0.3,1.3s0.5,0.4,0.9,0.4
		c0,0.1,0.1,0.3,0.1,0.4c0,0.2,0,0.3,0,0.4c-0.3,0-0.7,0-1,0c-0.4,0-0.7,0-1.1,0c-0.4,0-0.7,0-1.1,0c-0.4,0-0.7,0-1.1,0
		c0-0.1,0-0.3,0-0.4c0-0.1,0-0.3,0.1-0.4c0.5,0,0.9-0.1,1-0.4s0.3-0.7,0.3-1.3V259.3z"/>
	<path id="XMLID_415_" fill="#2B2D2A" d="M83.8,261.7v-2.5c0.3-0.1,0.5-0.2,0.8-0.3c0.3-0.1,0.5-0.3,0.7-0.5l0.2,0.1l0.1,0.2
		c0,0.1,0,0.2,0,0.3c0,0.1,0,0.3,0,0.5v2.3H88c0,0.3-0.1,0.6-0.2,0.8c-0.9,0-1.7,0.1-2.3,0.2v4.8c0,0.6,0.1,1.1,0.3,1.4
		c0.2,0.3,0.5,0.4,0.8,0.4c0.3,0,0.5,0,0.7-0.1s0.4-0.2,0.6-0.3c0.2,0.2,0.3,0.4,0.3,0.6c-0.2,0.2-0.5,0.4-0.9,0.6
		c-0.4,0.2-0.8,0.2-1.2,0.2c-0.8,0-1.3-0.2-1.7-0.6c-0.4-0.4-0.5-1-0.5-1.9v-5.1c-0.2-0.1-0.4-0.1-0.6-0.2c-0.2,0-0.5-0.1-0.8-0.1
		c0-0.2,0-0.3,0-0.4s0.1-0.3,0.1-0.4H83.8z"/>
	<path id="XMLID_418_" fill="#2B2D2A" d="M89.3,265.9c0-0.6,0.1-1.2,0.3-1.8c0.2-0.6,0.5-1,0.9-1.4s0.8-0.7,1.4-1
		c0.5-0.2,1.1-0.3,1.7-0.3c0.7,0,1.3,0.1,1.8,0.3c0.5,0.2,1,0.5,1.3,0.9c0.4,0.4,0.6,0.9,0.8,1.4c0.2,0.6,0.3,1.2,0.3,1.8
		c0,0.6-0.1,1.2-0.3,1.8s-0.5,1-0.9,1.4c-0.4,0.4-0.8,0.7-1.3,0.9c-0.5,0.2-1.1,0.3-1.8,0.3s-1.2-0.1-1.8-0.3
		c-0.5-0.2-1-0.5-1.4-0.9c-0.4-0.4-0.7-0.9-0.9-1.4C89.4,267.2,89.3,266.5,89.3,265.9z M91.2,265.5c0,1.3,0.2,2.3,0.7,3
		c0.5,0.7,1.1,1,1.8,1c0.8,0,1.3-0.3,1.7-0.9c0.4-0.6,0.6-1.4,0.6-2.4c0-0.6-0.1-1.1-0.2-1.6c-0.1-0.5-0.3-0.9-0.6-1.2
		c-0.2-0.3-0.5-0.6-0.8-0.8c-0.3-0.2-0.6-0.3-1-0.3c-0.7,0-1.3,0.3-1.6,0.9C91.4,263.7,91.2,264.5,91.2,265.5z"/>
	<path id="XMLID_419_" fill="#2B2D2A" d="M100.3,259.3c0-0.2,0-0.4,0-0.6c0-0.2-0.1-0.3-0.2-0.4c-0.1-0.1-0.2-0.2-0.4-0.3
		c-0.2-0.1-0.4-0.1-0.8-0.1c0-0.1,0-0.3,0-0.4c0-0.1,0.1-0.2,0.1-0.3c0.1,0,0.3,0,0.6-0.1s0.5-0.1,0.7-0.1c0.3-0.1,0.5-0.1,0.7-0.2
		c0.2-0.1,0.4-0.2,0.5-0.2c0.1,0,0.2,0.1,0.3,0.2c0.1,0.1,0.1,0.3,0.1,0.5v10.5c0,0.6,0.1,1.1,0.3,1.3s0.5,0.4,0.9,0.4
		c0,0.1,0.1,0.3,0.1,0.4c0,0.2,0,0.3,0,0.4c-0.3,0-0.7,0-1,0c-0.4,0-0.7,0-1.1,0c-0.4,0-0.7,0-1.1,0c-0.4,0-0.7,0-1.1,0
		c0-0.1,0-0.3,0-0.4c0-0.1,0-0.3,0.1-0.4c0.5,0,0.9-0.1,1-0.4s0.3-0.7,0.3-1.3V259.3z"/>
	<path id="XMLID_422_" fill="#2B2D2A" d="M107.8,266c-0.4,0-0.8,0-1.2,0.1c0,0.3,0,0.6,0.1,0.8c0.1,0.5,0.2,0.9,0.4,1.2
		s0.5,0.7,0.8,0.9c0.4,0.2,0.8,0.3,1.4,0.3c0.4,0,0.8-0.1,1.2-0.3c0.4-0.2,0.8-0.5,1.1-0.8c0.1,0.1,0.2,0.2,0.3,0.3
		c0.1,0.1,0.1,0.2,0.2,0.3c-0.4,0.6-0.9,1-1.5,1.2c-0.6,0.2-1.2,0.4-1.9,0.4c-0.7,0-1.3-0.1-1.8-0.4c-0.5-0.2-0.9-0.6-1.3-1
		s-0.6-0.9-0.8-1.4s-0.2-1.1-0.2-1.8c0-0.6,0.1-1.2,0.3-1.7c0.2-0.5,0.4-1,0.8-1.4c0.3-0.4,0.7-0.7,1.2-1c0.5-0.2,1-0.4,1.6-0.4
		c0.6,0,1.1,0.1,1.6,0.3s0.8,0.5,1.1,0.8c0.3,0.4,0.5,0.8,0.6,1.2c0.1,0.5,0.2,1,0.3,1.5c-0.1,0.3-0.1,0.5-0.3,0.6h-1
		c-0.4,0-0.9,0-1.5,0C108.9,265.9,108.4,265.9,107.8,266z M106.7,263.9c-0.1,0.3-0.1,0.7-0.2,1.2h3.6c0-0.8-0.2-1.5-0.5-2
		s-0.7-0.8-1.3-0.8c-0.2,0-0.5,0-0.7,0.1s-0.4,0.3-0.6,0.5C107,263.1,106.8,263.5,106.7,263.9z"/>
	<path id="XMLID_423_" fill="#2B2D2A" d="M116.9,264.5c-0.1,0.3-0.1,0.6-0.2,0.9v2c0,0.4,0,0.8,0.1,1c0.1,0.3,0.2,0.5,0.3,0.6
		c0.1,0.2,0.3,0.3,0.5,0.3c0.2,0.1,0.5,0.1,0.8,0.1c0.1,0.2,0.1,0.4,0.1,0.8c-0.3,0-0.7,0-1.1,0c-0.4,0-0.9,0-1.3,0h-0.7
		c-0.2,0-0.5,0-0.7,0c-0.2,0-0.4,0-0.6,0c-0.2,0-0.3,0-0.5,0c0-0.4,0-0.6,0.1-0.8c0.5,0,0.9-0.1,1-0.4c0.2-0.2,0.3-0.6,0.3-1.3V264
		c0-0.2,0-0.4,0-0.6c0-0.2-0.1-0.3-0.2-0.4c-0.1-0.1-0.2-0.2-0.4-0.2c-0.2-0.1-0.4-0.1-0.8-0.1c0-0.1,0-0.3,0-0.4
		c0-0.1,0.1-0.2,0.1-0.3c0.2,0,0.4,0,0.6-0.1c0.2,0,0.5-0.1,0.7-0.2c0.2-0.1,0.5-0.1,0.7-0.2s0.4-0.1,0.5-0.2c0.1,0,0.2,0.1,0.3,0.2
		c0.1,0.1,0.1,0.3,0.1,0.6c0,0.4,0,0.8-0.1,1.2l-0.2,0.8c0.1-0.2,0.1-0.4,0.2-0.5c0.1-0.2,0.2-0.4,0.3-0.6c0.3-0.4,0.6-0.8,1-1.1
		c0.4-0.3,0.8-0.4,1.3-0.4c0.3,0,0.5,0,0.7,0.1s0.4,0.2,0.6,0.3c-0.1,0.3-0.1,0.7-0.1,1.1c0,0.4,0,0.8,0,1.1c-0.1,0-0.3,0.1-0.5,0.1
		s-0.4,0.1-0.6,0.1c0-0.6-0.1-1-0.3-1.2c-0.2-0.2-0.4-0.3-0.6-0.3c-0.2,0-0.3,0.1-0.5,0.2c-0.2,0.1-0.4,0.3-0.5,0.6
		S117,264.2,116.9,264.5z"/>
	<path id="XMLID_426_" fill="#2B2D2A" d="M128.4,267.4c0,0.6,0.1,1,0.2,1.2c0.1,0.2,0.4,0.3,0.9,0.3c0,0.1,0,0.3,0,0.5
		s-0.1,0.3-0.1,0.4c-0.3,0.1-0.7,0.1-1.1,0.2c-0.4,0.1-0.7,0.2-1,0.4c-0.1-0.1-0.2-0.1-0.3-0.3c-0.1-0.1-0.1-0.4-0.1-0.6
		c0-0.2,0-0.3,0-0.5c0-0.1,0-0.2,0-0.3c-0.1,0.2-0.1,0.3-0.2,0.5c-0.1,0.2-0.3,0.3-0.5,0.6c-0.2,0.2-0.5,0.3-0.8,0.5
		c-0.3,0.1-0.7,0.2-1.1,0.2c-0.8,0-1.4-0.2-1.9-0.5c-0.4-0.4-0.6-0.8-0.6-1.5c0-0.6,0.2-1.1,0.5-1.5c0.4-0.4,0.8-0.7,1.3-0.9
		c0.5-0.2,1-0.4,1.6-0.5c0.6-0.1,1-0.2,1.4-0.3c0-0.4,0-0.7,0-1c0-0.3,0-0.5-0.1-0.6s-0.1-0.3-0.1-0.4c-0.1-0.1-0.1-0.2-0.2-0.3
		c-0.3-0.4-0.7-0.6-1.2-0.6c-0.3,0-0.5,0.1-0.7,0.2s-0.4,0.3-0.5,0.6c-0.1,0.2-0.2,0.5-0.3,0.7c-0.1,0.3-0.1,0.5-0.1,0.7
		c-0.1,0-0.3,0-0.5,0c-0.2,0-0.4-0.1-0.5-0.1c0-0.3,0-0.7,0-1.1c0-0.4-0.1-0.7-0.1-1c0.5-0.3,1-0.5,1.6-0.6c0.6-0.2,1.1-0.2,1.7-0.2
		c0.4,0,0.8,0.1,1.1,0.2c0.3,0.1,0.6,0.3,0.8,0.5c0.2,0.2,0.3,0.3,0.4,0.5c0.1,0.2,0.2,0.4,0.2,0.7c0.1,0.3,0.1,0.6,0.1,0.9
		s0,0.7,0,1.2V267.4z M126.7,265.9c-0.3,0-0.7,0.1-1,0.2c-0.4,0.1-0.7,0.2-1,0.3s-0.5,0.3-0.7,0.6s-0.3,0.6-0.3,1
		c0,0.5,0.1,0.8,0.3,1c0.2,0.2,0.5,0.3,0.8,0.3c0.2,0,0.4-0.1,0.6-0.2c0.2-0.1,0.4-0.3,0.6-0.5c0.2-0.2,0.3-0.5,0.5-0.8
		c0.1-0.3,0.2-0.7,0.2-1.2V265.9z"/>
	<path id="XMLID_427_" fill="#2B2D2A" d="M139.5,267.8c0,0.7,0.1,1.1,0.3,1.3s0.5,0.3,0.8,0.3c0,0.1,0.1,0.2,0.1,0.4
		c0,0.1,0,0.3,0,0.5c-0.3,0-0.6,0-1,0c-0.4,0-0.7,0-1.1,0s-0.8,0-1.2,0s-0.8,0-1.1,0c0-0.4,0-0.6,0.1-0.8c0.5,0,0.8-0.1,1-0.4
		s0.3-0.7,0.3-1.3v-2.9c0-0.4,0-0.8-0.1-1.1c-0.1-0.3-0.2-0.5-0.4-0.7c-0.2-0.2-0.3-0.3-0.6-0.4s-0.4-0.1-0.7-0.1s-0.5,0.1-0.8,0.2
		c-0.3,0.1-0.5,0.3-0.7,0.6c-0.2,0.3-0.4,0.6-0.5,1c-0.1,0.4-0.2,0.9-0.2,1.5v2c0,0.6,0.1,1.1,0.3,1.3s0.5,0.4,1,0.4
		c0,0.1,0.1,0.2,0.1,0.4c0,0.1,0,0.3,0,0.5c-0.3,0-0.6,0-1,0s-0.8,0-1.2,0s-0.8,0-1.2,0c-0.4,0-0.8,0-1,0c0-0.4,0-0.6,0.1-0.8
		c0.5,0,0.8-0.1,1-0.4c0.2-0.2,0.3-0.7,0.3-1.3V264c0-0.2,0-0.4,0-0.6c0-0.2-0.1-0.3-0.2-0.4c-0.1-0.1-0.2-0.2-0.4-0.2
		c-0.2-0.1-0.4-0.1-0.8-0.1c0-0.1,0-0.3,0-0.4c0-0.1,0.1-0.2,0.1-0.3c0.2,0,0.4,0,0.6-0.1c0.2,0,0.5-0.1,0.7-0.2
		c0.2-0.1,0.5-0.1,0.7-0.2s0.4-0.1,0.5-0.2c0.1,0,0.2,0.1,0.3,0.2c0.1,0.1,0.1,0.3,0.1,0.6c0,0.2,0,0.3,0,0.5c0,0.2-0.1,0.4-0.1,0.6
		l0.1-0.2c0-0.1,0.1-0.2,0.2-0.3c0.1-0.2,0.2-0.3,0.4-0.5c0.2-0.2,0.4-0.3,0.6-0.4s0.5-0.2,0.8-0.3c0.3-0.1,0.6-0.1,0.9-0.1
		c0.4,0,0.7,0.1,1,0.2c0.3,0.1,0.6,0.3,0.9,0.5s0.5,0.6,0.6,1c0.1,0.4,0.2,0.9,0.2,1.5V267.8z"/>
	<path id="XMLID_428_" fill="#2B2D2A" d="M149.2,268.7c-0.3,0.5-0.8,1-1.3,1.2c-0.5,0.3-1.1,0.4-1.8,0.4c-0.5,0-1-0.1-1.4-0.3
		c-0.5-0.2-0.9-0.5-1.3-0.8c-0.4-0.4-0.7-0.8-0.9-1.4c-0.2-0.6-0.3-1.2-0.3-2c0-0.6,0.1-1.1,0.3-1.7c0.2-0.5,0.4-1,0.8-1.5
		s0.7-0.8,1.2-1c0.5-0.3,1.1-0.4,1.7-0.4c1.2,0,2.1,0.3,2.9,0.9c-0.1,0.4-0.1,0.7-0.1,1.1s0,0.7,0,1.1c-0.1,0.1-0.2,0.1-0.4,0.1
		s-0.3,0-0.5,0c-0.1-0.7-0.3-1.3-0.6-1.7c-0.4-0.4-0.8-0.6-1.4-0.6c-0.6,0-1.1,0.3-1.5,0.9c-0.4,0.6-0.5,1.4-0.5,2.5
		c0,0.5,0.1,0.9,0.2,1.4c0.1,0.4,0.3,0.8,0.5,1.2s0.5,0.6,0.8,0.8c0.3,0.2,0.7,0.3,1.2,0.3c0.8,0,1.6-0.4,2.1-1.1
		c0.1,0.1,0.2,0.1,0.3,0.2C149.1,268.5,149.2,268.6,149.2,268.7z"/>
	<path id="XMLID_431_" fill="#2B2D2A" d="M153.8,266c-0.4,0-0.8,0-1.2,0.1c0,0.3,0,0.6,0.1,0.8c0.1,0.5,0.2,0.9,0.4,1.2
		s0.5,0.7,0.8,0.9c0.4,0.2,0.8,0.3,1.4,0.3c0.4,0,0.8-0.1,1.2-0.3c0.4-0.2,0.8-0.5,1.1-0.8c0.1,0.1,0.2,0.2,0.3,0.3
		c0.1,0.1,0.1,0.2,0.2,0.3c-0.4,0.6-0.9,1-1.5,1.2c-0.6,0.2-1.2,0.4-1.9,0.4c-0.7,0-1.3-0.1-1.8-0.4c-0.5-0.2-0.9-0.6-1.3-1
		s-0.6-0.9-0.8-1.4s-0.2-1.1-0.2-1.8c0-0.6,0.1-1.2,0.3-1.7c0.2-0.5,0.4-1,0.8-1.4c0.3-0.4,0.7-0.7,1.2-1c0.5-0.2,1-0.4,1.6-0.4
		c0.6,0,1.1,0.1,1.6,0.3s0.8,0.5,1.1,0.8c0.3,0.4,0.5,0.8,0.6,1.2c0.1,0.5,0.2,1,0.3,1.5c-0.1,0.3-0.1,0.5-0.3,0.6h-1
		c-0.4,0-0.9,0-1.5,0C154.9,265.9,154.3,265.9,153.8,266z M152.7,263.9c-0.1,0.3-0.1,0.7-0.2,1.2h3.6c0-0.8-0.2-1.5-0.5-2
		s-0.7-0.8-1.3-0.8c-0.2,0-0.5,0-0.7,0.1s-0.4,0.3-0.6,0.5C152.9,263.1,152.8,263.5,152.7,263.9z"/>
	<polyline id="XMLID_432_" fill="#6EA34E" points="80,62.6 109,62.6 109,59.6 80,59.6 	"/>
	<path id="XMLID_435_" d="M85,166.1c0.5,0,0.9,0,1.4,0c0.5,0,0.9,0,1.4,0c0.6,0,1.2,0.1,1.7,0.2c0.5,0.1,0.8,0.3,1.1,0.6
		c0.3,0.3,0.5,0.6,0.7,0.9c0.1,0.3,0.2,0.7,0.2,1.1c0,0.8-0.3,1.5-0.8,2c-0.5,0.5-1.2,0.9-2,1.1c0.1,0.1,0.3,0.3,0.4,0.4
		c0.2,0.2,0.3,0.4,0.5,0.6c0.1,0.2,0.3,0.5,0.5,0.7s0.3,0.6,0.6,1c0.4,0.7,0.8,1.3,1.2,1.6s0.9,0.6,1.4,0.6c0,0.1,0,0.3,0,0.4
		s0,0.2-0.1,0.4c-0.4,0-0.9,0-1.3,0c-0.5,0-0.9,0-1.3,0.1c-0.2-0.3-0.4-0.7-0.7-1.1c-0.3-0.5-0.5-1-0.8-1.5c-0.3-0.5-0.6-1-1-1.5
		c-0.3-0.4-0.6-0.8-1-1.2c-0.5,0-0.9,0-1.2,0v3c0,0.6,0.1,0.9,0.2,1.1s0.5,0.3,0.9,0.3c0,0.1,0.1,0.2,0.1,0.3c0,0.1,0,0.3,0,0.4
		c-0.4,0-0.7,0-1.1,0c-0.4,0-0.7,0-0.9,0h-0.5c-0.2,0-0.4,0-0.6,0c-0.2,0-0.4,0-0.5,0s-0.3,0-0.5,0c0-0.1,0-0.2,0-0.4
		c0-0.1,0-0.2,0.1-0.4c0.5,0,0.8-0.1,0.9-0.3c0.2-0.2,0.2-0.6,0.2-1.1v-7.2c0-0.6-0.1-1-0.2-1.2c-0.2-0.2-0.5-0.3-0.9-0.3
		c0-0.1-0.1-0.2-0.1-0.3s0-0.2,0-0.4c0.2,0,0.5,0,0.8,0C84.2,166.1,84.6,166.1,85,166.1z M86.4,166.8c-0.2,0-0.4,0.1-0.6,0.1v4.8
		c0.1,0,0.2,0,0.3,0c0.1,0,0.3,0,0.4,0c0.5,0,0.9,0,1.3-0.1s0.8-0.2,1.1-0.5c0.3-0.2,0.5-0.5,0.7-0.8c0.2-0.3,0.3-0.7,0.3-1.1
		c0-0.7-0.2-1.3-0.6-1.7c-0.4-0.4-1.1-0.7-2.2-0.7C86.8,166.7,86.6,166.7,86.4,166.8z"/>
	<path id="XMLID_438_" d="M96.7,173.8c-0.4,0-0.7,0-1.1,0.1c0,0.2,0,0.5,0.1,0.7c0.1,0.4,0.2,0.8,0.4,1.1c0.2,0.3,0.4,0.6,0.8,0.8
		c0.3,0.2,0.7,0.3,1.2,0.3c0.4,0,0.7-0.1,1.1-0.2c0.4-0.2,0.7-0.4,1-0.7c0.1,0.1,0.2,0.1,0.3,0.2c0.1,0.1,0.1,0.2,0.2,0.3
		c-0.4,0.5-0.8,0.9-1.3,1.1c-0.5,0.2-1.1,0.3-1.7,0.3c-0.6,0-1.1-0.1-1.6-0.3c-0.5-0.2-0.8-0.5-1.1-0.9c-0.3-0.4-0.5-0.8-0.7-1.3
		s-0.2-1-0.2-1.6c0-0.5,0.1-1.1,0.2-1.5c0.2-0.5,0.4-0.9,0.7-1.3s0.7-0.7,1.1-0.9c0.4-0.2,0.9-0.3,1.5-0.3c0.6,0,1,0.1,1.4,0.3
		c0.4,0.2,0.7,0.4,1,0.8c0.2,0.3,0.4,0.7,0.6,1.1c0.1,0.4,0.2,0.9,0.2,1.4c0,0.2-0.1,0.4-0.3,0.6h-0.9c-0.4,0-0.8,0-1.3,0
		C97.8,173.8,97.3,173.8,96.7,173.8z M95.8,172c-0.1,0.3-0.1,0.6-0.1,1h3.3c0-0.7-0.1-1.4-0.4-1.8s-0.7-0.7-1.2-0.7
		c-0.2,0-0.4,0-0.6,0.1s-0.4,0.2-0.6,0.5C96,171.3,95.9,171.6,95.8,172z"/>
	<path id="XMLID_439_" d="M102.9,170v-2.2c0.2-0.1,0.5-0.1,0.7-0.3c0.2-0.1,0.4-0.3,0.6-0.4l0.1,0.1l0.1,0.1c0,0.1,0,0.1,0,0.2
		c0,0.1,0,0.2,0,0.4v2h2.2c0,0.2-0.1,0.5-0.2,0.7c-0.8,0-1.5,0.1-2,0.2v4.2c0,0.6,0.1,1,0.3,1.2c0.2,0.3,0.4,0.4,0.7,0.4
		c0.2,0,0.4,0,0.6-0.1c0.2-0.1,0.3-0.2,0.5-0.3c0.1,0.2,0.2,0.4,0.3,0.6c-0.2,0.2-0.5,0.4-0.8,0.5c-0.4,0.1-0.7,0.2-1.1,0.2
		c-0.7,0-1.2-0.2-1.5-0.5c-0.3-0.3-0.5-0.9-0.5-1.7V171c-0.2-0.1-0.3-0.1-0.5-0.1c-0.2,0-0.4-0.1-0.7-0.1c0-0.1,0-0.3,0-0.4
		c0-0.1,0.1-0.2,0.1-0.4H102.9z"/>
	<path id="XMLID_442_" d="M110.7,175.5c0,0.6,0.1,1,0.2,1.2s0.4,0.3,0.8,0.3c0,0.1,0.1,0.3,0.1,0.4s0,0.3,0,0.3c-0.3,0-0.6,0-0.9,0
		c-0.3,0-0.7,0-1,0s-0.7,0-1,0c-0.3,0-0.7,0-0.9,0c0-0.1,0-0.2,0-0.4c0-0.1,0-0.3,0.1-0.4c0.5,0,0.8-0.1,0.9-0.3
		c0.2-0.2,0.2-0.6,0.2-1.2v-3.4c0-0.2,0-0.4,0-0.5c0-0.1-0.1-0.3-0.2-0.4c-0.1-0.1-0.2-0.2-0.4-0.2s-0.4-0.1-0.7-0.1
		c0-0.1,0-0.2,0-0.3c0-0.1,0.1-0.2,0.1-0.3c0.1,0,0.3,0,0.5-0.1s0.4-0.1,0.7-0.1c0.2-0.1,0.4-0.1,0.6-0.2c0.2-0.1,0.4-0.1,0.5-0.2
		c0.1,0,0.2,0.1,0.3,0.2c0.1,0.1,0.1,0.3,0.1,0.5V175.5z M108.8,166.8c0-0.3,0.1-0.6,0.3-0.7c0.2-0.2,0.4-0.3,0.7-0.3
		c0.3,0,0.6,0.1,0.7,0.3s0.3,0.4,0.3,0.7c0,0.3-0.1,0.5-0.3,0.7s-0.4,0.3-0.7,0.3c-0.3,0-0.5-0.1-0.7-0.3
		C108.9,167.3,108.8,167.1,108.8,166.8z"/>
	<path id="XMLID_443_" d="M116,172.6c-0.1,0.2-0.1,0.5-0.1,0.8v1.8c0,0.4,0,0.7,0.1,0.9s0.1,0.4,0.3,0.5c0.1,0.1,0.3,0.2,0.5,0.3
		s0.4,0.1,0.7,0.1c0.1,0.2,0.1,0.4,0.1,0.7c-0.3,0-0.6,0-1,0c-0.4,0-0.8,0-1.2,0h-0.6c-0.2,0-0.4,0-0.6,0c-0.2,0-0.4,0-0.6,0
		c-0.2,0-0.3,0-0.4,0c0-0.3,0-0.6,0.1-0.7c0.5,0,0.8-0.1,0.9-0.3c0.2-0.2,0.2-0.6,0.2-1.1v-3.4c0-0.2,0-0.4,0-0.5
		c0-0.1-0.1-0.3-0.2-0.4c-0.1-0.1-0.2-0.2-0.4-0.2c-0.2-0.1-0.4-0.1-0.7-0.1c0-0.1,0-0.2,0-0.3c0-0.1,0.1-0.2,0.1-0.3
		c0.2,0,0.4,0,0.6-0.1c0.2,0,0.4-0.1,0.6-0.1c0.2-0.1,0.4-0.1,0.6-0.2s0.3-0.1,0.5-0.2c0.1,0,0.2,0.1,0.3,0.2
		c0.1,0.1,0.1,0.3,0.1,0.5c0,0.4,0,0.7-0.1,1.1l-0.2,0.7c0.1-0.2,0.1-0.3,0.2-0.5c0.1-0.2,0.1-0.4,0.2-0.5c0.2-0.4,0.5-0.7,0.9-1
		s0.7-0.4,1.2-0.4c0.2,0,0.4,0,0.6,0.1c0.2,0.1,0.4,0.2,0.6,0.3c0,0.3-0.1,0.6-0.1,1c0,0.4,0,0.7,0,1c-0.1,0-0.2,0.1-0.4,0.1
		c-0.2,0-0.4,0.1-0.6,0.1c0-0.5-0.1-0.9-0.3-1.1c-0.2-0.2-0.3-0.3-0.6-0.3c-0.1,0-0.3,0.1-0.5,0.2c-0.2,0.1-0.3,0.3-0.5,0.5
		C116.2,172,116.1,172.3,116,172.6z"/>
	<path id="XMLID_446_" d="M123,173.8c-0.4,0-0.7,0-1.1,0.1c0,0.2,0,0.5,0.1,0.7c0.1,0.4,0.2,0.8,0.4,1.1c0.2,0.3,0.4,0.6,0.8,0.8
		c0.3,0.2,0.7,0.3,1.2,0.3c0.4,0,0.7-0.1,1.1-0.2c0.4-0.2,0.7-0.4,1-0.7c0.1,0.1,0.2,0.1,0.3,0.2c0.1,0.1,0.1,0.2,0.2,0.3
		c-0.4,0.5-0.8,0.9-1.3,1.1c-0.5,0.2-1.1,0.3-1.7,0.3c-0.6,0-1.1-0.1-1.6-0.3c-0.5-0.2-0.8-0.5-1.1-0.9c-0.3-0.4-0.5-0.8-0.7-1.3
		s-0.2-1-0.2-1.6c0-0.5,0.1-1.1,0.2-1.5c0.2-0.5,0.4-0.9,0.7-1.3s0.7-0.7,1.1-0.9c0.4-0.2,0.9-0.3,1.5-0.3c0.6,0,1,0.1,1.4,0.3
		c0.4,0.2,0.7,0.4,1,0.8c0.2,0.3,0.4,0.7,0.6,1.1c0.1,0.4,0.2,0.9,0.2,1.4c0,0.2-0.1,0.4-0.3,0.6h-0.9c-0.4,0-0.8,0-1.3,0
		C124.1,173.8,123.6,173.8,123,173.8z M122.1,172c-0.1,0.3-0.1,0.6-0.1,1h3.3c0-0.7-0.1-1.4-0.4-1.8s-0.7-0.7-1.2-0.7
		c-0.2,0-0.4,0-0.6,0.1s-0.4,0.2-0.6,0.5C122.3,171.3,122.2,171.6,122.1,172z"/>
	<path id="XMLID_447_" d="M128.4,170.3c0.1,0,0.3,0,0.5-0.1s0.4-0.1,0.6-0.1c0.2-0.1,0.4-0.1,0.6-0.2s0.3-0.1,0.5-0.2
		c0.1,0,0.2,0.1,0.3,0.2c0.1,0.1,0.1,0.3,0.1,0.5c0,0.2,0,0.4,0,0.6c0,0.1,0,0.3,0,0.4c0-0.1,0.1-0.2,0.1-0.2
		c0.1-0.1,0.1-0.2,0.2-0.3c0.1-0.1,0.2-0.3,0.4-0.4c0.2-0.1,0.3-0.3,0.5-0.4s0.4-0.2,0.7-0.3c0.3-0.1,0.5-0.1,0.8-0.1
		c0.5,0,0.9,0.1,1.3,0.3c0.4,0.2,0.7,0.6,0.9,1.1c0,0.1,0.1,0.3,0.1,0.4c0-0.1,0.1-0.2,0.1-0.3c0.1-0.1,0.1-0.2,0.2-0.3
		c0.1-0.1,0.2-0.3,0.4-0.4c0.2-0.1,0.3-0.3,0.5-0.4c0.2-0.1,0.4-0.2,0.7-0.3c0.3-0.1,0.5-0.1,0.8-0.1c0.3,0,0.6,0,0.9,0.1
		c0.3,0.1,0.5,0.3,0.8,0.5c0.2,0.2,0.4,0.5,0.5,0.9c0.1,0.4,0.2,0.8,0.2,1.3v2.9c0,0.3,0,0.5,0.1,0.7c0,0.2,0.1,0.3,0.2,0.4
		c0.1,0.1,0.2,0.2,0.3,0.2c0.1,0,0.3,0.1,0.5,0.1c0,0.1,0.1,0.2,0.1,0.3c0,0.1,0,0.2,0,0.4c-0.3,0-0.5,0-0.9,0c-0.3,0-0.6,0-1,0
		s-0.7,0-1.1,0c-0.4,0-0.7,0-1,0c0-0.3,0-0.6,0.1-0.7c0.5,0,0.8-0.1,0.9-0.3s0.2-0.6,0.2-1.1v-2.6c0-0.4,0-0.7-0.1-1
		c-0.1-0.3-0.2-0.5-0.3-0.6c-0.1-0.2-0.3-0.3-0.5-0.3c-0.2-0.1-0.4-0.1-0.6-0.1c-0.2,0-0.4,0.1-0.7,0.2c-0.2,0.1-0.4,0.3-0.6,0.5
		c-0.2,0.2-0.3,0.5-0.4,0.9c-0.1,0.4-0.2,0.8-0.2,1.3v1.8c0,0.3,0,0.5,0.1,0.7c0,0.2,0.1,0.3,0.2,0.4c0.1,0.1,0.2,0.2,0.4,0.2
		c0.2,0,0.3,0.1,0.6,0.1c0,0.1,0.1,0.2,0.1,0.3c0,0.1,0,0.2,0,0.4c-0.3,0-0.6,0-1,0c-0.4,0-0.7,0-1,0c-0.3,0-0.7,0-1,0
		c-0.4,0-0.7,0-1,0c0-0.3,0-0.6,0.1-0.7c0.5,0,0.8-0.1,0.9-0.3c0.2-0.2,0.2-0.6,0.2-1.1v-2.7c0-0.4,0-0.7-0.1-1
		c-0.1-0.3-0.2-0.5-0.3-0.6c-0.1-0.2-0.3-0.3-0.5-0.3c-0.2-0.1-0.4-0.1-0.6-0.1c-0.2,0-0.4,0.1-0.7,0.2c-0.2,0.1-0.4,0.3-0.6,0.5
		c-0.2,0.2-0.3,0.5-0.4,0.9c-0.1,0.4-0.2,0.8-0.2,1.3v1.9c0,0.6,0.1,0.9,0.3,1.1c0.2,0.2,0.5,0.3,0.9,0.3c0,0.1,0.1,0.2,0.1,0.3
		c0,0.1,0,0.2,0,0.4c-0.3,0-0.6,0-1,0c-0.4,0-0.7,0-1,0s-0.6,0-1,0c-0.4,0-0.7,0-1,0c0-0.3,0-0.6,0.1-0.7c0.5,0,0.8-0.1,0.9-0.3
		c0.2-0.2,0.2-0.6,0.2-1.1v-3.4c0-0.2,0-0.4,0-0.5c0-0.1-0.1-0.3-0.2-0.4c-0.1-0.1-0.2-0.2-0.4-0.2c-0.2-0.1-0.4-0.1-0.7-0.1
		c0-0.1,0-0.2,0-0.3C128.3,170.5,128.3,170.4,128.4,170.3z"/>
	<path id="XMLID_450_" d="M146.1,173.8c-0.4,0-0.7,0-1.1,0.1c0,0.2,0,0.5,0.1,0.7c0.1,0.4,0.2,0.8,0.4,1.1c0.2,0.3,0.4,0.6,0.8,0.8
		c0.3,0.2,0.7,0.3,1.2,0.3c0.4,0,0.7-0.1,1.1-0.2c0.4-0.2,0.7-0.4,1-0.7c0.1,0.1,0.2,0.1,0.3,0.2c0.1,0.1,0.1,0.2,0.2,0.3
		c-0.4,0.5-0.8,0.9-1.3,1.1c-0.5,0.2-1.1,0.3-1.7,0.3c-0.6,0-1.1-0.1-1.6-0.3c-0.5-0.2-0.8-0.5-1.1-0.9c-0.3-0.4-0.5-0.8-0.7-1.3
		s-0.2-1-0.2-1.6c0-0.5,0.1-1.1,0.2-1.5c0.2-0.5,0.4-0.9,0.7-1.3s0.7-0.7,1.1-0.9c0.4-0.2,0.9-0.3,1.5-0.3c0.6,0,1,0.1,1.4,0.3
		c0.4,0.2,0.7,0.4,1,0.8c0.2,0.3,0.4,0.7,0.6,1.1c0.1,0.4,0.2,0.9,0.2,1.4c0,0.2-0.1,0.4-0.3,0.6h-0.9c-0.4,0-0.8,0-1.3,0
		C147.1,173.8,146.6,173.8,146.1,173.8z M145.1,172c-0.1,0.3-0.1,0.6-0.1,1h3.3c0-0.7-0.1-1.4-0.4-1.8s-0.7-0.7-1.2-0.7
		c-0.2,0-0.4,0-0.6,0.1s-0.4,0.2-0.6,0.5C145.4,171.3,145.2,171.6,145.1,172z"/>
	<path id="XMLID_451_" d="M159.2,175.5c0,0.6,0.1,1,0.2,1.2c0.2,0.2,0.4,0.3,0.8,0.3c0,0.1,0.1,0.2,0.1,0.3c0,0.1,0,0.2,0,0.4
		c-0.2,0-0.5,0-0.9,0c-0.3,0-0.7,0-1,0c-0.4,0-0.7,0-1.1,0c-0.4,0-0.7,0-0.9,0c0-0.3,0-0.6,0.1-0.7c0.4,0,0.7-0.1,0.9-0.3
		s0.3-0.6,0.3-1.2v-2.6c0-0.4,0-0.7-0.1-1c-0.1-0.3-0.2-0.5-0.3-0.6c-0.1-0.2-0.3-0.3-0.5-0.3c-0.2-0.1-0.4-0.1-0.6-0.1
		s-0.5,0.1-0.7,0.2c-0.2,0.1-0.4,0.3-0.6,0.5s-0.3,0.5-0.5,0.9c-0.1,0.4-0.2,0.8-0.2,1.3v1.8c0,0.6,0.1,1,0.3,1.2s0.5,0.3,0.9,0.3
		c0,0.1,0.1,0.2,0.1,0.3c0,0.1,0,0.2,0,0.4c-0.2,0-0.5,0-0.9,0c-0.4,0-0.7,0-1.1,0s-0.7,0-1.1,0c-0.4,0-0.7,0-0.9,0
		c0-0.3,0-0.6,0.1-0.7c0.4,0,0.7-0.1,0.9-0.3s0.3-0.6,0.3-1.2v-3.4c0-0.2,0-0.4,0-0.5c0-0.1-0.1-0.3-0.2-0.4
		c-0.1-0.1-0.2-0.2-0.4-0.2c-0.2-0.1-0.4-0.1-0.7-0.1c0-0.1,0-0.2,0-0.3c0-0.1,0.1-0.2,0.1-0.3c0.2,0,0.4,0,0.6-0.1
		c0.2,0,0.4-0.1,0.6-0.1c0.2-0.1,0.4-0.1,0.6-0.2s0.3-0.1,0.5-0.2c0.1,0,0.2,0.1,0.3,0.2c0.1,0.1,0.1,0.3,0.1,0.5c0,0.1,0,0.3,0,0.5
		c0,0.2,0,0.4-0.1,0.5l0.1-0.2c0-0.1,0.1-0.2,0.2-0.2c0.1-0.1,0.2-0.3,0.4-0.4c0.2-0.1,0.3-0.3,0.6-0.4c0.2-0.1,0.4-0.2,0.7-0.3
		c0.3-0.1,0.5-0.1,0.8-0.1c0.3,0,0.6,0,0.9,0.1c0.3,0.1,0.6,0.3,0.8,0.5c0.2,0.2,0.4,0.5,0.5,0.9c0.1,0.4,0.2,0.8,0.2,1.3V175.5z"/>
	<path id="XMLID_452_" d="M162.4,170v-2.2c0.2-0.1,0.5-0.1,0.7-0.3c0.2-0.1,0.4-0.3,0.6-0.4l0.1,0.1l0.1,0.1c0,0.1,0,0.1,0,0.2
		c0,0.1,0,0.2,0,0.4v2h2.2c0,0.2-0.1,0.5-0.2,0.7c-0.8,0-1.5,0.1-2,0.2v4.2c0,0.6,0.1,1,0.3,1.2c0.2,0.3,0.4,0.4,0.7,0.4
		c0.2,0,0.4,0,0.6-0.1c0.2-0.1,0.3-0.2,0.5-0.3c0.1,0.2,0.2,0.4,0.3,0.6c-0.2,0.2-0.5,0.4-0.8,0.5c-0.4,0.1-0.7,0.2-1.1,0.2
		c-0.7,0-1.2-0.2-1.5-0.5c-0.3-0.3-0.5-0.9-0.5-1.7V171c-0.2-0.1-0.3-0.1-0.5-0.1c-0.2,0-0.4-0.1-0.7-0.1c0-0.1,0-0.3,0-0.4
		c0-0.1,0.1-0.2,0.1-0.4H162.4z"/>
	<path id="XMLID_456_" d="M228.1,166.1c0.4,0,0.8,0,1.2,0c0.4,0,0.8,0,1.2,0c0.5,0,0.9,0,1.4,0.1c0.4,0.1,0.8,0.2,1.2,0.4
		c0.3,0.2,0.6,0.4,0.8,0.8c0.2,0.3,0.3,0.7,0.3,1.2c0,0.7-0.2,1.4-0.7,1.9s-1,0.8-1.8,0.9c0.4,0,0.9,0.1,1.3,0.2
		c0.4,0.1,0.8,0.3,1.1,0.5c0.3,0.2,0.5,0.5,0.7,0.9s0.3,0.8,0.3,1.3c0,0.5-0.1,0.9-0.2,1.3c-0.2,0.4-0.4,0.8-0.7,1.1
		c-0.3,0.3-0.8,0.5-1.3,0.7c-0.5,0.2-1.1,0.3-1.9,0.3h-1.1c-0.4,0-0.9,0-1.3,0c-0.4,0-0.9,0-1.2,0s-0.7,0-0.9,0c0-0.3,0-0.6,0.1-0.7
		c0.2,0,0.4,0,0.6-0.1s0.3-0.1,0.4-0.3c0.1-0.1,0.2-0.3,0.2-0.5c0-0.2,0.1-0.5,0.1-0.8v-7c0-0.6-0.1-0.9-0.2-1.1
		c-0.2-0.2-0.5-0.3-0.9-0.3c0-0.1-0.1-0.2-0.1-0.3c0-0.1,0-0.3,0-0.4c0.2,0,0.5,0,0.8,0C227.5,166.1,227.8,166.1,228.1,166.1z
		 M229.5,166.9c-0.1,0-0.2,0-0.3,0.1v4.3h0.5c0.5,0,1-0.1,1.3-0.2c0.4-0.1,0.6-0.3,0.8-0.5s0.3-0.4,0.4-0.7s0.1-0.5,0.1-0.8
		c0-0.4-0.1-0.8-0.2-1.1s-0.4-0.5-0.6-0.7c-0.2-0.2-0.5-0.3-0.8-0.4c-0.3-0.1-0.6-0.1-0.9-0.1C229.7,166.8,229.6,166.8,229.5,166.9z
		 M229.2,172v3.3c0,0.4,0,0.6,0.1,0.8c0,0.2,0.1,0.4,0.2,0.5c0.1,0.1,0.3,0.2,0.5,0.2c0.2,0,0.5,0.1,0.8,0.1c0.8,0,1.5-0.2,1.8-0.6
		c0.4-0.4,0.6-1,0.6-1.8c0-0.5-0.1-0.9-0.3-1.3c-0.2-0.3-0.5-0.6-0.9-0.8c-0.4-0.2-0.7-0.3-1.2-0.4s-0.8-0.1-1.3-0.1H229.2z"/>
	<path id="XMLID_457_" d="M242.4,172c0-0.2,0-0.4,0-0.5c0-0.1-0.1-0.3-0.2-0.4c-0.1-0.1-0.2-0.2-0.4-0.2c-0.2-0.1-0.4-0.1-0.7-0.1
		c0-0.1,0-0.2,0-0.3s0-0.2,0.1-0.3c0.4,0,0.9-0.1,1.3-0.2s0.8-0.2,1-0.3c0.1,0,0.2,0.1,0.3,0.2s0.1,0.3,0.1,0.5v4.9
		c0,0.2,0,0.4,0,0.5c0,0.1,0.1,0.3,0.2,0.4c0.1,0.1,0.2,0.2,0.3,0.2c0.1,0.1,0.4,0.1,0.6,0.1c0,0.1,0,0.2,0,0.4s0,0.2-0.1,0.4
		c-0.1,0-0.3,0-0.5,0s-0.4,0.1-0.6,0.1c-0.2,0-0.4,0.1-0.6,0.2c-0.2,0.1-0.3,0.1-0.4,0.2c-0.1,0-0.2-0.1-0.3-0.2s-0.1-0.3-0.1-0.6
		c0-0.2,0-0.5,0-0.7v-0.2c-0.1,0.2-0.3,0.5-0.5,0.7c-0.6,0.6-1.3,0.9-2.1,0.9c-0.4,0-0.8-0.1-1.1-0.2c-0.3-0.1-0.6-0.3-0.8-0.5
		c-0.2-0.2-0.4-0.5-0.5-0.9c-0.1-0.4-0.2-0.9-0.2-1.4v-2.6c0-0.2,0-0.4,0-0.5s-0.1-0.3-0.1-0.4c-0.1-0.1-0.2-0.2-0.3-0.2
		c-0.1-0.1-0.4-0.1-0.6-0.1c0-0.1,0-0.2,0-0.3c0-0.1,0-0.2,0.1-0.3c0.2,0,0.4,0,0.6-0.1s0.4-0.1,0.6-0.1c0.2-0.1,0.4-0.1,0.6-0.2
		s0.3-0.1,0.5-0.2c0.1,0,0.2,0.1,0.3,0.2s0.1,0.3,0.1,0.5v3.9c0,0.9,0.1,1.5,0.3,1.8c0.2,0.4,0.6,0.5,1.2,0.5c0.2,0,0.5-0.1,0.7-0.2
		c0.2-0.1,0.4-0.3,0.6-0.5c0.2-0.2,0.3-0.5,0.4-0.9c0.1-0.4,0.2-0.8,0.2-1.3V172z"/>
	<path id="XMLID_460_" d="M249.1,175.5c0,0.6,0.1,1,0.2,1.2s0.4,0.3,0.8,0.3c0,0.1,0.1,0.3,0.1,0.4s0,0.3,0,0.3c-0.3,0-0.6,0-0.9,0
		c-0.3,0-0.7,0-1,0s-0.7,0-1,0c-0.3,0-0.7,0-0.9,0c0-0.1,0-0.2,0-0.4c0-0.1,0-0.3,0.1-0.4c0.5,0,0.8-0.1,0.9-0.3
		c0.2-0.2,0.2-0.6,0.2-1.2v-3.4c0-0.2,0-0.4,0-0.5c0-0.1-0.1-0.3-0.2-0.4c-0.1-0.1-0.2-0.2-0.4-0.2s-0.4-0.1-0.7-0.1
		c0-0.1,0-0.2,0-0.3c0-0.1,0.1-0.2,0.1-0.3c0.1,0,0.3,0,0.5-0.1s0.4-0.1,0.7-0.1c0.2-0.1,0.4-0.1,0.6-0.2c0.2-0.1,0.4-0.1,0.5-0.2
		c0.1,0,0.2,0.1,0.3,0.2c0.1,0.1,0.1,0.3,0.1,0.5V175.5z M247.2,166.8c0-0.3,0.1-0.6,0.3-0.7c0.2-0.2,0.4-0.3,0.7-0.3
		c0.3,0,0.6,0.1,0.7,0.3s0.3,0.4,0.3,0.7c0,0.3-0.1,0.5-0.3,0.7s-0.4,0.3-0.7,0.3c-0.3,0-0.5-0.1-0.7-0.3
		C247.3,167.3,247.2,167.1,247.2,166.8z"/>
	<path id="XMLID_461_" d="M252.7,167.9c0-0.2,0-0.4,0-0.5c0-0.1-0.1-0.3-0.2-0.4c-0.1-0.1-0.2-0.2-0.4-0.2s-0.4-0.1-0.7-0.1
		c0-0.1,0-0.2,0-0.3c0-0.1,0.1-0.2,0.1-0.3c0.1,0,0.3,0,0.5-0.1s0.4-0.1,0.7-0.1c0.2-0.1,0.4-0.1,0.6-0.2c0.2-0.1,0.4-0.1,0.5-0.2
		c0.1,0,0.2,0.1,0.3,0.2c0.1,0.1,0.1,0.3,0.1,0.5v9.3c0,0.6,0.1,1,0.2,1.2c0.2,0.2,0.4,0.3,0.8,0.3c0,0.1,0.1,0.3,0.1,0.4
		c0,0.1,0,0.3,0,0.3c-0.3,0-0.6,0-0.9,0c-0.3,0-0.7,0-1,0s-0.7,0-1,0c-0.3,0-0.7,0-0.9,0c0-0.1,0-0.2,0-0.4c0-0.1,0-0.3,0.1-0.4
		c0.5,0,0.8-0.1,0.9-0.3c0.2-0.2,0.2-0.6,0.2-1.2V167.9z"/>
	<path id="XMLID_464_" d="M260.8,169.7c0.3,0,0.6,0,0.9,0.1c0.2,0,0.4,0.1,0.6,0.2v-2.1c0-0.2,0-0.4,0-0.5c0-0.1-0.1-0.3-0.2-0.4
		c-0.1-0.1-0.2-0.2-0.4-0.2s-0.4-0.1-0.7-0.1c0-0.1,0-0.2,0-0.3c0-0.1,0.1-0.2,0.1-0.3c0.1,0,0.3,0,0.5-0.1s0.4-0.1,0.7-0.1
		c0.2-0.1,0.4-0.1,0.6-0.2c0.2-0.1,0.4-0.1,0.5-0.2c0.1,0,0.2,0.1,0.3,0.2c0.1,0.1,0.1,0.3,0.1,0.5v9.3c0,0.4,0.1,0.6,0.2,0.8
		c0.1,0.2,0.4,0.3,0.9,0.3c0,0.1,0,0.2,0,0.4c0,0.1,0,0.2-0.1,0.4c-0.1,0-0.3,0-0.5,0s-0.4,0.1-0.6,0.1c-0.2,0-0.4,0.1-0.5,0.2
		c-0.2,0.1-0.3,0.1-0.4,0.2c-0.1,0-0.2-0.1-0.3-0.2s-0.1-0.3-0.1-0.6c0-0.2,0-0.4,0-0.6c0-0.1,0-0.3,0.1-0.5c0,0.1-0.1,0.2-0.2,0.3
		c-0.1,0.2-0.2,0.3-0.2,0.4c-0.1,0.1-0.2,0.3-0.3,0.4c-0.1,0.1-0.3,0.3-0.5,0.4s-0.4,0.2-0.7,0.3c-0.2,0.1-0.5,0.1-0.8,0.1
		c-1,0-1.8-0.3-2.3-0.9s-0.8-1.6-0.8-2.9c0-0.6,0.1-1.1,0.3-1.7c0.2-0.5,0.5-1,0.9-1.4c0.4-0.4,0.8-0.7,1.3-0.9
		C259.6,169.8,260.2,169.7,260.8,169.7z M262,175c0.1-0.3,0.2-0.8,0.2-1.2v-2.7c-0.2-0.1-0.3-0.3-0.5-0.4c-0.3-0.2-0.6-0.2-1-0.2
		c-0.2,0-0.5,0-0.8,0.1c-0.3,0.1-0.5,0.3-0.8,0.5c-0.2,0.2-0.5,0.6-0.6,1c-0.2,0.4-0.3,1-0.3,1.7c0,0.5,0.1,1,0.2,1.4
		c0.1,0.4,0.3,0.7,0.5,0.9c0.2,0.2,0.4,0.4,0.6,0.5c0.2,0.1,0.4,0.2,0.6,0.2c0.2,0,0.5-0.1,0.7-0.2s0.5-0.3,0.7-0.6
		C261.8,175.7,261.9,175.4,262,175z"/>
	<path id="XMLID_467_" d="M268.9,175.5c0,0.6,0.1,1,0.2,1.2s0.4,0.3,0.8,0.3c0,0.1,0.1,0.3,0.1,0.4s0,0.3,0,0.3c-0.3,0-0.6,0-0.9,0
		c-0.3,0-0.7,0-1,0s-0.7,0-1,0c-0.3,0-0.7,0-0.9,0c0-0.1,0-0.2,0-0.4c0-0.1,0-0.3,0.1-0.4c0.5,0,0.8-0.1,0.9-0.3
		c0.2-0.2,0.2-0.6,0.2-1.2v-3.4c0-0.2,0-0.4,0-0.5c0-0.1-0.1-0.3-0.2-0.4c-0.1-0.1-0.2-0.2-0.4-0.2s-0.4-0.1-0.7-0.1
		c0-0.1,0-0.2,0-0.3c0-0.1,0.1-0.2,0.1-0.3c0.1,0,0.3,0,0.5-0.1s0.4-0.1,0.7-0.1c0.2-0.1,0.4-0.1,0.6-0.2c0.2-0.1,0.4-0.1,0.5-0.2
		c0.1,0,0.2,0.1,0.3,0.2c0.1,0.1,0.1,0.3,0.1,0.5V175.5z M267,166.8c0-0.3,0.1-0.6,0.3-0.7c0.2-0.2,0.4-0.3,0.7-0.3
		c0.3,0,0.6,0.1,0.7,0.3s0.3,0.4,0.3,0.7c0,0.3-0.1,0.5-0.3,0.7s-0.4,0.3-0.7,0.3c-0.3,0-0.5-0.1-0.7-0.3
		C267.1,167.3,267,167.1,267,166.8z"/>
	<path id="XMLID_468_" d="M279,175.5c0,0.6,0.1,1,0.2,1.2c0.2,0.2,0.4,0.3,0.8,0.3c0,0.1,0.1,0.2,0.1,0.3c0,0.1,0,0.2,0,0.4
		c-0.2,0-0.5,0-0.9,0c-0.3,0-0.7,0-1,0c-0.4,0-0.7,0-1.1,0c-0.4,0-0.7,0-0.9,0c0-0.3,0-0.6,0.1-0.7c0.4,0,0.7-0.1,0.9-0.3
		s0.3-0.6,0.3-1.2v-2.6c0-0.4,0-0.7-0.1-1c-0.1-0.3-0.2-0.5-0.3-0.6c-0.1-0.2-0.3-0.3-0.5-0.3c-0.2-0.1-0.4-0.1-0.6-0.1
		s-0.5,0.1-0.7,0.2c-0.2,0.1-0.4,0.3-0.6,0.5s-0.3,0.5-0.5,0.9c-0.1,0.4-0.2,0.8-0.2,1.3v1.8c0,0.6,0.1,1,0.3,1.2s0.5,0.3,0.9,0.3
		c0,0.1,0.1,0.2,0.1,0.3c0,0.1,0,0.2,0,0.4c-0.2,0-0.5,0-0.9,0c-0.4,0-0.7,0-1.1,0s-0.7,0-1.1,0c-0.4,0-0.7,0-0.9,0
		c0-0.3,0-0.6,0.1-0.7c0.4,0,0.7-0.1,0.9-0.3s0.3-0.6,0.3-1.2v-3.4c0-0.2,0-0.4,0-0.5c0-0.1-0.1-0.3-0.2-0.4
		c-0.1-0.1-0.2-0.2-0.4-0.2c-0.2-0.1-0.4-0.1-0.7-0.1c0-0.1,0-0.2,0-0.3c0-0.1,0.1-0.2,0.1-0.3c0.2,0,0.4,0,0.6-0.1
		c0.2,0,0.4-0.1,0.6-0.1c0.2-0.1,0.4-0.1,0.6-0.2s0.3-0.1,0.5-0.2c0.1,0,0.2,0.1,0.3,0.2c0.1,0.1,0.1,0.3,0.1,0.5c0,0.1,0,0.3,0,0.5
		c0,0.2,0,0.4-0.1,0.5l0.1-0.2c0-0.1,0.1-0.2,0.2-0.2c0.1-0.1,0.2-0.3,0.4-0.4c0.2-0.1,0.3-0.3,0.6-0.4c0.2-0.1,0.4-0.2,0.7-0.3
		c0.3-0.1,0.5-0.1,0.8-0.1c0.3,0,0.6,0,0.9,0.1c0.3,0.1,0.6,0.3,0.8,0.5c0.2,0.2,0.4,0.5,0.5,0.9c0.1,0.4,0.2,0.8,0.2,1.3V175.5z"/>
	<path id="XMLID_472_" d="M284.8,169.7c0.4,0,0.8,0.1,1.1,0.2h2.8c0,0.1,0.1,0.3,0.1,0.5c0,0.2,0,0.4,0,0.6c-0.1,0-0.3-0.1-0.5-0.1
		s-0.4-0.1-0.6-0.1s-0.4-0.1-0.6-0.1h-0.1l0.1,0.1c0.2,0.3,0.4,0.6,0.5,0.9c0.1,0.3,0.2,0.6,0.2,0.8c0,0.4-0.1,0.8-0.2,1.1
		s-0.3,0.6-0.6,0.9s-0.6,0.5-1,0.6c-0.4,0.1-0.8,0.2-1.3,0.2c-0.4,0-0.8-0.1-1.2-0.2l-0.1-0.1c-0.1,0.1-0.2,0.2-0.3,0.4
		c-0.1,0.2-0.1,0.3-0.1,0.4c0,0.2,0,0.3,0.1,0.4c0.1,0.1,0.2,0.2,0.3,0.2c0.2,0.1,0.4,0.1,0.7,0.1c0.3,0,0.8,0,1.3,0
		c0.6,0,1,0,1.4,0.1c0.4,0.1,0.7,0.2,1,0.3c0.2,0.1,0.4,0.3,0.5,0.6c0.1,0.2,0.2,0.5,0.2,0.9c0,0.4-0.1,0.8-0.3,1.2
		c-0.2,0.4-0.5,0.8-0.9,1.1s-0.8,0.6-1.3,0.8c-0.5,0.2-1.1,0.3-1.7,0.3c-1.1,0-1.8-0.2-2.3-0.6c-0.5-0.4-0.7-1-0.7-1.7
		c0-0.4,0.1-0.8,0.3-1.1c0.2-0.3,0.5-0.5,0.9-0.7c-0.1,0-0.2-0.1-0.3-0.1c-0.2-0.1-0.3-0.3-0.4-0.5c-0.1-0.2-0.1-0.4-0.1-0.7
		c0-0.4,0.1-0.7,0.3-1.1c0.2-0.3,0.4-0.5,0.6-0.7l-0.1-0.1c-0.3-0.2-0.5-0.5-0.7-0.9c-0.2-0.3-0.3-0.7-0.3-1.2
		c0-0.4,0.1-0.8,0.2-1.1c0.1-0.3,0.3-0.6,0.6-0.9c0.3-0.3,0.6-0.5,1-0.6S284.2,169.7,284.8,169.7z M284.4,177.9c-0.4,0-0.7,0-0.9,0
		c-0.2,0.2-0.3,0.3-0.4,0.5c-0.1,0.2-0.2,0.5-0.2,0.8c0,0.6,0.1,1,0.4,1.3s0.8,0.4,1.5,0.4c0.4,0,0.7-0.1,1-0.2
		c0.3-0.1,0.5-0.2,0.8-0.4c0.2-0.2,0.4-0.4,0.5-0.6s0.2-0.5,0.2-0.7c0-0.2,0-0.4-0.1-0.6c-0.1-0.2-0.2-0.3-0.4-0.4s-0.5-0.2-0.9-0.2
		C285.4,177.9,285,177.9,284.4,177.9z M284.6,170.5c-0.2,0-0.4,0.1-0.6,0.2c-0.2,0.1-0.3,0.2-0.4,0.4s-0.2,0.4-0.2,0.6
		c-0.1,0.2-0.1,0.5-0.1,0.7c0,0.7,0.2,1.3,0.5,1.6c0.3,0.4,0.7,0.6,1.3,0.6c0.4,0,0.7-0.2,0.9-0.5c0.2-0.3,0.4-0.8,0.4-1.4
		c0-0.3,0-0.6-0.1-0.9c-0.1-0.3-0.2-0.5-0.3-0.7c-0.1-0.2-0.3-0.4-0.5-0.5C285.1,170.5,284.9,170.5,284.6,170.5z"/>
	<path id="XMLID_473_" d="M293.2,166.1c0.3,0,0.6,0,1,0c0.4,0,0.7,0,1,0h0.5c0.2,0,0.3,0,0.5,0c0.2,0,0.4,0,0.6,0c0.2,0,0.4,0,0.5,0
		c0,0.1,0,0.2,0,0.3c0,0.1,0,0.3-0.1,0.4c-0.3,0-0.5,0.1-0.7,0.1c-0.2,0-0.3,0.1-0.3,0.2c-0.1,0.1-0.1,0.3,0,0.5
		c0,0.2,0.1,0.5,0.3,0.9c0.2,0.5,0.4,1.1,0.6,1.7c0.2,0.6,0.4,1.2,0.6,1.8s0.4,1.2,0.6,1.8c0.1,0.4,0.2,0.7,0.3,1.1l2.9-8.8
		c0.1,0,0.2-0.1,0.3-0.1c0.1,0,0.3,0,0.4,0c0.3,0.7,0.6,1.5,0.9,2.3s0.6,1.6,0.9,2.4c0.3,0.8,0.6,1.6,0.9,2.4
		c0.2,0.6,0.4,1.2,0.6,1.7l1.6-5.6c0.1-0.4,0.2-0.8,0.2-1.1c0-0.3,0-0.5,0-0.7c-0.1-0.2-0.2-0.3-0.3-0.4c-0.2-0.1-0.4-0.2-0.7-0.2
		c0-0.1-0.1-0.2-0.1-0.4c0-0.1,0-0.3,0-0.3c0.5,0,1,0.1,1.6,0.1c0.3,0,0.5,0,0.8,0c0.3,0,0.6,0,0.8,0c0,0.1,0,0.2,0,0.4
		c0,0.1,0,0.2-0.1,0.4c-0.1,0-0.3,0.1-0.4,0.2c-0.1,0.1-0.2,0.2-0.3,0.4c-0.1,0.2-0.2,0.4-0.3,0.7c-0.1,0.3-0.2,0.7-0.4,1.2
		l-2.5,8.4c-0.2,0.1-0.4,0.1-0.7,0.1c-0.3-0.7-0.5-1.5-0.8-2.3c-0.3-0.8-0.6-1.6-0.9-2.4s-0.6-1.6-0.9-2.4c-0.3-0.7-0.5-1.3-0.8-2
		l-2.9,8.9c-0.1,0-0.2,0.1-0.3,0.1c-0.1,0-0.3,0-0.4,0c-0.5-1.5-1-3-1.5-4.5c-0.5-1.5-1-3-1.5-4.5c-0.2-0.5-0.3-0.8-0.4-1.1
		c-0.1-0.3-0.2-0.4-0.3-0.6c-0.1-0.1-0.2-0.2-0.3-0.2c-0.1,0-0.2-0.1-0.4-0.1c0-0.1-0.1-0.2-0.1-0.4S293.2,166.2,293.2,166.1z"/>
	<path id="XMLID_476_" d="M312,173.8c-0.4,0-0.7,0-1.1,0.1c0,0.2,0,0.5,0.1,0.7c0.1,0.4,0.2,0.8,0.4,1.1c0.2,0.3,0.4,0.6,0.8,0.8
		c0.3,0.2,0.7,0.3,1.2,0.3c0.4,0,0.7-0.1,1.1-0.2c0.4-0.2,0.7-0.4,1-0.7c0.1,0.1,0.2,0.1,0.3,0.2c0.1,0.1,0.1,0.2,0.2,0.3
		c-0.4,0.5-0.8,0.9-1.3,1.1c-0.5,0.2-1.1,0.3-1.7,0.3c-0.6,0-1.1-0.1-1.6-0.3c-0.5-0.2-0.8-0.5-1.1-0.9c-0.3-0.4-0.5-0.8-0.7-1.3
		s-0.2-1-0.2-1.6c0-0.5,0.1-1.1,0.2-1.5c0.2-0.5,0.4-0.9,0.7-1.3s0.7-0.7,1.1-0.9c0.4-0.2,0.9-0.3,1.5-0.3c0.6,0,1,0.1,1.4,0.3
		c0.4,0.2,0.7,0.4,1,0.8c0.2,0.3,0.4,0.7,0.6,1.1c0.1,0.4,0.2,0.9,0.2,1.4c0,0.2-0.1,0.4-0.3,0.6h-0.9c-0.4,0-0.8,0-1.3,0
		C313,173.8,312.5,173.8,312,173.8z M311,172c-0.1,0.3-0.1,0.6-0.1,1h3.3c0-0.7-0.1-1.4-0.4-1.8s-0.7-0.7-1.2-0.7
		c-0.2,0-0.4,0-0.6,0.1s-0.4,0.2-0.6,0.5C311.2,171.3,311.1,171.6,311,172z"/>
	<path id="XMLID_479_" d="M323.3,175.1c0,0.5,0.1,0.9,0.2,1.1c0.1,0.2,0.4,0.3,0.8,0.3c0,0.1,0,0.3,0,0.4c0,0.2,0,0.3-0.1,0.4
		c-0.3,0-0.6,0.1-0.9,0.2c-0.3,0.1-0.6,0.2-0.9,0.3c-0.1,0-0.2-0.1-0.3-0.3c-0.1-0.1-0.1-0.3-0.1-0.6c0-0.2,0-0.3,0-0.4
		c0-0.1,0-0.2,0-0.3c0,0.1-0.1,0.3-0.2,0.4s-0.2,0.3-0.4,0.5c-0.2,0.2-0.4,0.3-0.7,0.4c-0.3,0.1-0.6,0.2-1,0.2
		c-0.7,0-1.3-0.2-1.7-0.5c-0.4-0.3-0.6-0.8-0.6-1.3c0-0.6,0.2-1,0.5-1.4c0.3-0.3,0.7-0.6,1.2-0.8s0.9-0.4,1.4-0.5
		c0.5-0.1,0.9-0.2,1.3-0.2c0-0.4,0-0.6,0-0.9c0-0.2,0-0.4-0.1-0.6c0-0.2-0.1-0.3-0.1-0.4c-0.1-0.1-0.1-0.2-0.2-0.3
		c-0.3-0.3-0.6-0.5-1.1-0.5c-0.3,0-0.5,0.1-0.7,0.2c-0.2,0.1-0.3,0.3-0.5,0.5s-0.2,0.4-0.3,0.6c-0.1,0.2-0.1,0.4-0.1,0.6
		c-0.1,0-0.3,0-0.5,0s-0.3,0-0.4-0.1c0-0.3,0-0.6,0-0.9c0-0.3,0-0.6-0.1-0.9c0.5-0.2,0.9-0.4,1.4-0.6s1-0.2,1.5-0.2
		c0.4,0,0.7,0.1,1,0.2s0.5,0.3,0.7,0.5c0.1,0.1,0.3,0.3,0.4,0.5s0.2,0.4,0.2,0.6c0.1,0.2,0.1,0.5,0.1,0.8c0,0.3,0,0.6,0,1.1V175.1z
		 M321.8,173.8c-0.3,0-0.6,0.1-0.9,0.1c-0.3,0.1-0.6,0.2-0.9,0.3c-0.3,0.1-0.5,0.3-0.7,0.5c-0.2,0.2-0.3,0.5-0.3,0.9
		c0,0.4,0.1,0.7,0.3,0.9c0.2,0.2,0.4,0.3,0.7,0.3c0.2,0,0.4,0,0.6-0.1s0.4-0.2,0.6-0.4s0.3-0.4,0.4-0.7c0.1-0.3,0.2-0.7,0.2-1.1
		V173.8z"/>
	<path id="XMLID_480_" d="M326.6,167.9c0-0.2,0-0.4,0-0.5c0-0.1-0.1-0.3-0.2-0.4c-0.1-0.1-0.2-0.2-0.4-0.2s-0.4-0.1-0.7-0.1
		c0-0.1,0-0.2,0-0.3c0-0.1,0.1-0.2,0.1-0.3c0.1,0,0.3,0,0.5-0.1s0.4-0.1,0.7-0.1c0.2-0.1,0.4-0.1,0.6-0.2c0.2-0.1,0.4-0.1,0.5-0.2
		c0.1,0,0.2,0.1,0.3,0.2c0.1,0.1,0.1,0.3,0.1,0.5v9.3c0,0.6,0.1,1,0.2,1.2c0.2,0.2,0.4,0.3,0.8,0.3c0,0.1,0.1,0.3,0.1,0.4
		c0,0.1,0,0.3,0,0.3c-0.3,0-0.6,0-0.9,0c-0.3,0-0.7,0-1,0s-0.7,0-1,0c-0.3,0-0.7,0-0.9,0c0-0.1,0-0.2,0-0.4c0-0.1,0-0.3,0.1-0.4
		c0.5,0,0.8-0.1,0.9-0.3c0.2-0.2,0.2-0.6,0.2-1.2V167.9z"/>
	<path id="XMLID_481_" d="M331.4,170v-2.2c0.2-0.1,0.5-0.1,0.7-0.3c0.2-0.1,0.4-0.3,0.6-0.4l0.1,0.1l0.1,0.1c0,0.1,0,0.1,0,0.2
		c0,0.1,0,0.2,0,0.4v2h2.2c0,0.2-0.1,0.5-0.2,0.7c-0.8,0-1.5,0.1-2,0.2v4.2c0,0.6,0.1,1,0.3,1.2c0.2,0.3,0.4,0.4,0.7,0.4
		c0.2,0,0.4,0,0.6-0.1c0.2-0.1,0.3-0.2,0.5-0.3c0.1,0.2,0.2,0.4,0.3,0.6c-0.2,0.2-0.5,0.4-0.8,0.5c-0.4,0.1-0.7,0.2-1.1,0.2
		c-0.7,0-1.2-0.2-1.5-0.5c-0.3-0.3-0.5-0.9-0.5-1.7V171c-0.2-0.1-0.3-0.1-0.5-0.1c-0.2,0-0.4-0.1-0.7-0.1c0-0.1,0-0.3,0-0.4
		c0-0.1,0.1-0.2,0.1-0.4H331.4z"/>
	<path id="XMLID_482_" d="M344.3,175.5c0,0.6,0.1,1,0.2,1.2c0.2,0.2,0.4,0.3,0.8,0.3c0,0.1,0.1,0.2,0.1,0.3c0,0.1,0,0.2,0,0.4
		c-0.2,0-0.5,0-0.9,0c-0.3,0-0.7,0-1,0c-0.4,0-0.7,0-1.1,0c-0.4,0-0.7,0-0.9,0c0-0.3,0-0.6,0.1-0.7c0.4,0,0.7-0.1,0.9-0.3
		s0.3-0.6,0.3-1.2v-2.6c0-0.4,0-0.7-0.1-1c-0.1-0.3-0.2-0.5-0.3-0.6c-0.1-0.2-0.3-0.3-0.5-0.3c-0.2-0.1-0.4-0.1-0.6-0.1
		s-0.5,0.1-0.7,0.2c-0.2,0.1-0.4,0.3-0.6,0.5s-0.3,0.5-0.5,0.9c-0.1,0.4-0.2,0.8-0.2,1.3v1.8c0,0.6,0.1,1,0.3,1.2
		c0.2,0.2,0.5,0.3,0.9,0.3c0,0.1,0.1,0.2,0.1,0.3c0,0.1,0,0.2,0,0.4c-0.2,0-0.5,0-0.9,0c-0.4,0-0.7,0-1.1,0c-0.4,0-0.7,0-1.1,0
		c-0.4,0-0.7,0-0.9,0c0-0.3,0-0.6,0.1-0.7c0.4,0,0.7-0.1,0.9-0.3c0.2-0.2,0.3-0.6,0.3-1.2v-7.6c0-0.2,0-0.4,0-0.5
		c0-0.1-0.1-0.3-0.2-0.4c-0.1-0.1-0.2-0.2-0.4-0.2s-0.4-0.1-0.7-0.1c0-0.1,0-0.2,0-0.3c0-0.1,0.1-0.2,0.1-0.3c0.1,0,0.3,0,0.5-0.1
		s0.4-0.1,0.7-0.1c0.2-0.1,0.4-0.1,0.6-0.2c0.2-0.1,0.4-0.1,0.5-0.2c0.1,0,0.2,0.1,0.3,0.2c0.1,0.1,0.1,0.3,0.1,0.5v4.3
		c0,0.1,0,0.3,0,0.5c0,0.2,0,0.4-0.1,0.5l0.1-0.2c0-0.1,0.1-0.2,0.2-0.2c0.1-0.1,0.2-0.3,0.4-0.4c0.2-0.1,0.3-0.3,0.6-0.4
		c0.2-0.1,0.4-0.2,0.7-0.3c0.3-0.1,0.5-0.1,0.8-0.1c0.3,0,0.6,0,0.9,0.1c0.3,0.1,0.6,0.3,0.8,0.5c0.2,0.2,0.4,0.5,0.5,0.9
		c0.1,0.4,0.2,0.8,0.2,1.3V175.5z"/>
	<polyline id="XMLID_483_" fill="#D0D2CC" points="41,90.6 350,90.6 350,89.6 41,89.6 	"/>
	<polyline id="XMLID_484_" fill="#D0D2CC" points="41,223.6 350,223.6 350,222.6 41,222.6 	"/>
	<polyline id="XMLID_485_" fill="#D0D2CC" points="42,307.6 351,307.6 351,302.6 42,302.6 	"/>
	<polyline id="XMLID_486_" fill="#D0D2CC" points="349,294.6 349,315.6 351,315.6 351,294.6 	"/>
	<polyline id="XMLID_487_" fill="#D0D2CC" points="41,294.6 41,315.6 43,315.6 43,294.6 	"/>
	<polyline id="XMLID_488_" fill="#D0D2CC" points="195,294.6 195,315.6 197,315.6 197,294.6 	"/>
	<polyline id="XMLID_489_" fill="#D0D2CC" points="272,294.6 272,315.6 274,315.6 274,294.6 	"/>
	<polyline id="XMLID_490_" fill="#D0D2CC" points="118,294.6 118,315.6 120,315.6 120,294.6 	"/>
	<circle id="XMLID_491_" fill="#6EA34E" cx="273" cy="305" r="11"/>
	<g id="XMLID_496_">
		<defs>
			<path id="XMLID_495_" d="M196,415.4c17.8,0,35,3.5,51.2,10.3c15.7,6.6,29.8,16.1,41.9,28.2c12.1,12.1,21.6,26.2,28.2,41.9
				c6.9,16.2,10.3,33.5,10.3,51.2c0,17.8-3.5,35-10.3,51.2c-6.6,15.7-16.1,29.8-28.2,41.9c-12.1,12.1-26.2,21.6-41.9,28.2
				c-16.2,6.9-33.5,10.3-51.2,10.3s-35-3.5-51.2-10.3c-15.7-6.6-29.8-16.1-41.9-28.2C90.8,628,81.3,614,74.7,598.3
				c-6.9-16.2-10.3-33.5-10.3-51.2c0-17.8,3.5-35,10.3-51.2c6.6-15.7,16.1-29.8,28.2-41.9c12.1-12.1,26.2-21.6,41.9-28.2
				C161,418.9,178.2,415.4,196,415.4 M196,392c-85.6,0-155,69.4-155,155c0,85.6,69.4,155,155,155c85.6,0,155-69.4,155-155
				C351,461.4,281.6,392,196,392"/>
		</defs>
		<clipPath id="XMLID_75_">
			<use xlink:href="#XMLID_495_"  overflow="visible"/>
		</clipPath>
		<path id="XMLID_497_" clip-path="url(#XMLID_75_)" fill="#6EA34E" d="M196.2,546.5L196.2,546.5l24.2,153.1l0.1,0l0-0.1
			c-8.9,1.4-17.6,2.1-26.1,2.1c-32.1,0-61.8-9.9-89.1-29.8l-0.1,0.1l0.1,0.1L196.2,546.5L196.2,546.5L196.2,546.5L196.2,546.5
			L196.2,546.5L105,671.9l0.1,0.1c27.4,19.9,57.1,29.8,89.2,29.8c8.6,0,17.3-0.7,26.2-2.1l0.1,0l-24.3-153.3L196.2,546.5
			L196.2,546.5"/>
		<path id="XMLID_498_" clip-path="url(#XMLID_75_)" fill="#6EA34E" d="M196.2,546.5L196.2,546.5l109.5,109.6l0.1-0.1l-0.1-0.1
			c-24.2,24.2-51.5,38.1-85.3,43.5l0,0.1l0.1,0L196.2,546.5L196.2,546.5L196.2,546.5L196.2,546.5L196.2,546.5l24.2,153.1l0.1,0
			c33.8-5.4,61.2-19.3,85.4-43.5l0.1-0.1L196,546.3L196.2,546.5L196.2,546.5z"/>
		<path id="XMLID_499_" clip-path="url(#XMLID_75_)" fill="#6EA34E" d="M196.2,546.5L196.2,546.5l147.3,48l0-0.1l-0.1,0
			c-7.9,24.4-19.6,43.5-37.8,61.7l0.1,0.1l0.1-0.1L196.2,546.5L196.2,546.5L196.2,546.5L196.2,546.5L196.2,546.5l109.6,109.7
			l0.1-0.1c18.2-18.2,29.9-37.3,37.8-61.7l0-0.1l-147.8-48L196.2,546.5L196.2,546.5z"/>
		<path id="XMLID_500_" clip-path="url(#XMLID_75_)" fill="#6EA34E" d="M196.2,546.5L196.2,546.5l153,24.3l0-0.1l-0.1,0
			c-1.3,8.4-3,15.5-5.7,23.6l0.1,0l0-0.1L196.2,546.5L196.2,546.5L196.2,546.5L196.2,546.5L196.2,546.5l147.4,48l0-0.1
			c2.6-8.1,4.3-15.2,5.7-23.7l0-0.1L196.2,546.5L196.2,546.5L196.2,546.5z"/>
		<path id="XMLID_501_" clip-path="url(#XMLID_75_)" fill="#5D8742" d="M196.2,546.5l153-24.2c2.7,16.9,2.7,31.6,0,48.5L196.2,546.5
			z"/>
		<path id="XMLID_502_" clip-path="url(#XMLID_75_)" fill="#6EA34E" d="M196.2,546.5L196.2,546.5l153.1-24.2l0-0.1l-0.1,0
			c1.3,8.4,2,16.3,2,24.2c0,7.9-0.7,15.8-2,24.2l0.1,0l0-0.1L196.2,546.5L196.2,546.5L196.2,546.5L196.2,546.5L196.2,546.5
			l153.1,24.3l0-0.1c1.3-8.5,2-16.4,2-24.3c0-7.9-0.7-15.8-2-24.3l0-0.1L196.2,546.5h-0.5H196.2L196.2,546.5z"/>
		<path id="XMLID_503_" clip-path="url(#XMLID_75_)" fill="#6EA34E" d="M196.2,546.5L196.2,546.5L305.8,437l-0.1-0.1l-0.1,0.1
			c24.2,24.2,38.1,51.5,43.5,85.3l0.1,0l0-0.1L196.2,546.5L196.2,546.5L196.2,546.5L196.2,546.5L196.2,546.5l153.1-24.2l0-0.1
			c-5.4-33.8-19.3-61.2-43.5-85.4l-0.1-0.1L195.9,546.6L196.2,546.5L196.2,546.5z"/>
		<path id="XMLID_504_" clip-path="url(#XMLID_75_)" fill="#6EA34E" d="M196.2,546.5l47.9-147.4c24.4,7.9,43.5,19.6,61.7,37.8
			L196.2,546.5z"/>
		<path id="XMLID_505_" clip-path="url(#XMLID_75_)" fill="#6EA34E" d="M196.2,546.5L196.2,546.5l48-147.3l-0.1,0l0,0.1
			c24.4,7.9,43.5,19.6,61.7,37.8l0.1-0.1l-0.1-0.1L196.2,546.5L196.2,546.5L196.2,546.5L196.2,546.5L196.2,546.5l109.7-109.6
			l-0.1-0.1c-18.2-18.2-37.3-29.9-61.7-37.8l-0.1,0l-48,147.8L196.2,546.5L196.2,546.5z"/>
		<path id="XMLID_506_" clip-path="url(#XMLID_75_)" fill="#42632D" d="M196.2,546.5l24.2,153c-42.3,6.7-80.7-2.5-115.3-27.7
			L196.2,546.5"/>
		<path id="XMLID_507_" clip-path="url(#XMLID_75_)" fill="#4C8229" d="M196.2,546.5l109.6,109.6c-24.2,24.2-51.5,38.1-85.3,43.5
			L196.2,546.5z"/>
		<path id="XMLID_508_" clip-path="url(#XMLID_75_)" fill="#4B7A2C" d="M196.2,546.5l147.4,47.9c-7.9,24.4-19.6,43.5-37.8,61.7
			L196.2,546.5z"/>
		<path id="XMLID_509_" clip-path="url(#XMLID_75_)" fill="#628949" d="M196.2,546.5l153,24.2c-1.3,8.5-3,15.5-5.7,23.6L196.2,546.5
			z"/>
		<path id="XMLID_510_" clip-path="url(#XMLID_75_)" fill="#47722A" d="M196.2,546.5l109.6-109.6c24.2,24.2,38.1,51.5,43.5,85.3
			L196.2,546.5z"/>
		<path id="XMLID_511_" clip-path="url(#XMLID_75_)" fill="#6EA34E" d="M196.2,546.5v-155c17.1,0,31.6,2.3,47.9,7.6L196.2,546.5"/>
		<path id="XMLID_512_" clip-path="url(#XMLID_75_)" fill="#6EA34E" d="M196.2,546.5L196.2,546.5l0.1-155h-0.1v0.1
			c17.1,0,31.6,2.3,47.9,7.6l0-0.1l-0.1,0L196.2,546.5L196.2,546.5L196.2,546.5L196.2,546.5L196.2,546.5l48-147.4l-0.1,0
			c-16.3-5.3-30.8-7.6-47.9-7.6h-0.1V547L196.2,546.5L196.2,546.5"/>
		<path id="XMLID_513_" clip-path="url(#XMLID_75_)" fill="#232621" d="M196.2,546.5L70.8,455.4c5-6.9,9.7-12.4,15.8-18.5
			L196.2,546.5"/>
		<path id="XMLID_514_" clip-path="url(#XMLID_75_)" fill="#1C1E1B" d="M196.2,546.5l-70.3-138.1c22.9-11.7,44.7-16.9,70.3-16.9
			V546.5"/>
		<path id="XMLID_515_" clip-path="url(#XMLID_75_)" fill="#2B2D2A" d="M196.2,546.5L86.6,436.9c12.1-12.1,24-20.7,39.2-28.5
			L196.2,546.5"/>
		<path id="XMLID_516_" clip-path="url(#XMLID_75_)" fill="#1C1E1B" d="M196.2,546.5L58.1,476.2c3.9-7.6,7.7-13.8,12.7-20.7
			L196.2,546.5"/>
		<path id="XMLID_517_" clip-path="url(#XMLID_75_)" fill="#1C1E1C" d="M196.2,546.5L48.8,498.6c2.6-8.1,5.4-14.8,9.3-22.5
			L196.2,546.5"/>
		<path id="XMLID_518_" clip-path="url(#XMLID_75_)" fill="#282B27" d="M196.2,546.5h-155c0-17.1,2.3-31.6,7.6-47.9L196.2,546.5"/>
		<path id="XMLID_519_" clip-path="url(#XMLID_75_)" fill="#1C1E1B" d="M196.2,546.5l-91.1,125.4c-41.5-30.2-63.9-74-63.9-125.4
			H196.2"/>
		<g id="XMLID_522_" clip-path="url(#XMLID_75_)">
			<defs>
				<path id="XMLID_521_" d="M125.7,408.4c-15.3,7.8-27.1,16.4-39.2,28.5c-6.1,6.1-10.7,11.6-15.8,18.5c-5,6.9-8.8,13.1-12.7,20.7
					c-3.9,7.6-6.7,14.3-9.3,22.5c-5.3,16.3-7.6,30.8-7.6,47.9c0,51.3,22.2,95.2,63.8,125.4l91-125.4v-155
					C171,391.5,148.6,396.8,125.7,408.4"/>
			</defs>
			<clipPath id="XMLID_76_">
				<use xlink:href="#XMLID_521_"  overflow="visible"/>
			</clipPath>
			<path id="XMLID_525_" clip-path="url(#XMLID_76_)" fill="#FFFFFF" d="M66,631.6c1,1.5,2,3.1,3.1,4.6
				c9.6,13.4,21.6,25.3,35.9,35.7l0,0C89.2,660.3,76.1,646.7,66,631.6 M58.2,476c-0.5,0.9-1,1.9-1.4,2.8c-3.2,6.6-5.6,12.6-8,19.8
				c-5.3,16.3-7.6,30.8-7.6,47.9c0,14.9,1.9,29.2,5.6,42.7c0.2,0.8,0.5,1.7,0.7,2.5c-4.2-14.2-6.3-29.4-6.3-45.3l0,0l0,0l0,0
				c0-17.1,2.3-31.6,7.6-47.9l0,0c2.6-8.1,5.4-14.8,9.3-22.5l0,0C58.1,476.1,58.1,476.1,58.2,476"/>
			<polyline id="XMLID_526_" clip-path="url(#XMLID_76_)" fill="#9ABF83" points="105,671.8 105,671.9 105,671.9 105,671.8 
				105,671.8 			"/>
			<path id="XMLID_527_" clip-path="url(#XMLID_76_)" fill="#656864" d="M86.7,437.1c-5.7,5.7-11,11.9-15.8,18.4l18.9,13.7
				c4-5.4,8.3-10.5,13.1-15.2c0.1-0.1,0.2-0.2,0.4-0.4L86.7,437.1"/>
			<path id="XMLID_528_" clip-path="url(#XMLID_76_)" fill="#616260" d="M196,392c-25.2,0-49,6-70,16.7l10.6,20.8
				c2.7-1.4,5.4-2.6,8.2-3.8c16.2-6.9,33.5-10.3,51.2-10.3c0,0,0,0,0,0L196,392C196,392,196,392,196,392"/>
			<path id="XMLID_529_" clip-path="url(#XMLID_76_)" fill="#6B6C6A" d="M126,408.7c-14.5,7.4-27.8,17-39.2,28.4l16.5,16.5
				c9.9-9.8,21-17.9,33.3-24.1L126,408.7"/>
			<path id="XMLID_530_" clip-path="url(#XMLID_76_)" fill="#616260" d="M70.9,455.5c-4.8,6.5-9,13.3-12.7,20.5c0,0,0,0.1-0.1,0.1
				l20.8,10.6c3.2-6.1,6.8-12,10.9-17.5L70.9,455.5"/>
			<path id="XMLID_531_" clip-path="url(#XMLID_76_)" fill="#616261" d="M58.1,476.2c-3.9,7.6-6.7,14.3-9.3,22.5l22.1,7.2
				c1.1-3.4,2.4-6.7,3.8-10c1.3-3.1,2.7-6.1,4.2-9.1L58.1,476.2"/>
			<path id="XMLID_532_" clip-path="url(#XMLID_76_)" fill="#696B68" d="M48.8,498.6c-5.3,16.3-7.6,30.8-7.6,47.9h23.1
				c0.1-14,2.3-27.6,6.6-40.7L48.8,498.6"/>
			<path id="XMLID_533_" clip-path="url(#XMLID_76_)" fill="#616260" d="M64.3,546.5H41.2l0,0l0,0c0,15.9,2.1,31,6.3,45.3
				c4.3,14.2,10.6,27.6,18.5,39.8c10.1,15.2,23.1,28.7,39,40.2c0,0,0,0,0,0l13.3-18.4c-5.5-4-10.6-8.4-15.5-13.3
				C90.8,628,81.3,614,74.7,598.3c-6.9-16.2-10.3-33.5-10.3-51.2C64.3,546.9,64.3,546.7,64.3,546.5"/>
		</g>
	</g>
	<path id="XMLID_535_" fill="#2B2D2A" d="M108,574.5v-10.9h4c0.8,0,1.4,0.1,1.9,0.2c0.5,0.1,1,0.3,1.3,0.6c0.3,0.3,0.6,0.6,0.7,0.9
		c0.2,0.4,0.2,0.8,0.2,1.2c0,0.2,0,0.5-0.1,0.7c-0.1,0.2-0.2,0.4-0.3,0.6c-0.2,0.2-0.3,0.4-0.6,0.5c-0.2,0.2-0.5,0.3-0.8,0.4
		c0.7,0.2,1.3,0.5,1.6,0.9c0.3,0.4,0.5,0.9,0.5,1.5c0,0.5-0.1,0.9-0.3,1.3s-0.4,0.8-0.8,1s-0.8,0.5-1.3,0.7
		c-0.5,0.2-1.1,0.3-1.8,0.3H108z M110.5,568.2h1.3c0.3,0,0.5,0,0.8-0.1c0.2,0,0.4-0.1,0.6-0.2c0.2-0.1,0.3-0.2,0.4-0.4
		c0.1-0.2,0.1-0.4,0.1-0.7c0-0.3,0-0.5-0.1-0.7s-0.2-0.3-0.3-0.4c-0.1-0.1-0.3-0.2-0.5-0.2c-0.2,0-0.5-0.1-0.7-0.1h-1.5V568.2z
		 M110.5,569.9v2.7h1.8c0.3,0,0.6,0,0.8-0.1s0.4-0.2,0.5-0.3c0.1-0.1,0.2-0.3,0.2-0.5s0.1-0.3,0.1-0.5c0-0.2,0-0.4-0.1-0.5
		c-0.1-0.2-0.1-0.3-0.3-0.4c-0.1-0.1-0.3-0.2-0.5-0.3c-0.2-0.1-0.5-0.1-0.8-0.1H110.5z"/>
	<path id="XMLID_538_" fill="#2B2D2A" d="M130.1,569.1c0,0.8-0.1,1.5-0.4,2.2c-0.3,0.7-0.7,1.3-1.2,1.8c-0.5,0.5-1.1,0.9-1.8,1.2
		c-0.7,0.3-1.5,0.4-2.3,0.4c-0.9,0-1.6-0.1-2.3-0.4c-0.7-0.3-1.3-0.7-1.8-1.2c-0.5-0.5-0.9-1.1-1.2-1.8c-0.3-0.7-0.4-1.4-0.4-2.2
		c0-0.8,0.1-1.5,0.4-2.2c0.3-0.7,0.7-1.3,1.2-1.8c0.5-0.5,1.1-0.9,1.8-1.2c0.7-0.3,1.5-0.4,2.3-0.4c0.9,0,1.6,0.1,2.3,0.4
		c0.7,0.3,1.3,0.7,1.8,1.2c0.5,0.5,0.9,1.1,1.2,1.8C130,567.6,130.1,568.3,130.1,569.1z M127.5,569.1c0-0.5-0.1-1-0.2-1.5
		c-0.1-0.4-0.3-0.8-0.6-1.1c-0.3-0.3-0.6-0.5-1-0.7c-0.4-0.2-0.8-0.2-1.3-0.2c-0.5,0-0.9,0.1-1.3,0.2c-0.4,0.2-0.7,0.4-1,0.7
		c-0.3,0.3-0.5,0.7-0.6,1.1c-0.1,0.4-0.2,0.9-0.2,1.5c0,0.5,0.1,1,0.2,1.5c0.1,0.4,0.3,0.8,0.6,1.1c0.3,0.3,0.6,0.5,1,0.7
		c0.4,0.2,0.8,0.2,1.3,0.2c0.5,0,0.9-0.1,1.3-0.2c0.4-0.2,0.7-0.4,1-0.7c0.3-0.3,0.5-0.7,0.6-1.1
		C127.4,570.1,127.5,569.6,127.5,569.1z"/>
	<path id="XMLID_539_" fill="#2B2D2A" d="M134.5,563.6l0.2,0.1l0.2,0.1l0.2,0.2l5.2,6.6c0-0.2,0-0.4,0-0.6c0-0.2,0-0.4,0-0.6v-5.8
		h2.2v10.9h-1.3c-0.2,0-0.4,0-0.5-0.1c-0.1-0.1-0.3-0.2-0.4-0.3l-5.2-6.5c0,0.2,0,0.4,0,0.6c0,0.2,0,0.4,0,0.5v5.9h-2.2v-10.9h1.3
		C134.3,563.6,134.4,563.6,134.5,563.6z"/>
	<path id="XMLID_542_" fill="#2B2D2A" d="M155.6,569.1c0,0.8-0.1,1.5-0.4,2.2c-0.3,0.7-0.7,1.2-1.2,1.7c-0.5,0.5-1.1,0.9-1.8,1.1
		c-0.7,0.3-1.5,0.4-2.3,0.4h-4.3v-10.9h4.3c0.9,0,1.6,0.1,2.3,0.4c0.7,0.3,1.3,0.7,1.8,1.1c0.5,0.5,0.9,1.1,1.2,1.7
		C155.5,567.6,155.6,568.3,155.6,569.1z M153,569.1c0-0.5-0.1-1-0.2-1.5s-0.3-0.8-0.6-1.1c-0.3-0.3-0.6-0.5-1-0.7
		c-0.4-0.2-0.8-0.2-1.3-0.2h-1.7v7h1.7c0.5,0,0.9-0.1,1.3-0.2c0.4-0.2,0.7-0.4,1-0.7c0.3-0.3,0.5-0.7,0.6-1.1S153,569.6,153,569.1z"
		/>
	<path id="XMLID_543_" fill="#2B2D2A" d="M164.4,565.8c-0.1,0.1-0.2,0.2-0.2,0.3c-0.1,0.1-0.2,0.1-0.3,0.1c-0.1,0-0.2,0-0.4-0.1
		c-0.1-0.1-0.3-0.2-0.5-0.2c-0.2-0.1-0.4-0.2-0.6-0.2s-0.5-0.1-0.7-0.1c-0.5,0-0.8,0.1-1.1,0.3s-0.3,0.5-0.3,0.8
		c0,0.2,0.1,0.4,0.2,0.5s0.3,0.3,0.6,0.4c0.2,0.1,0.5,0.2,0.8,0.3c0.3,0.1,0.6,0.2,0.9,0.3c0.3,0.1,0.6,0.2,0.9,0.4s0.6,0.3,0.8,0.6
		s0.4,0.5,0.6,0.8c0.1,0.3,0.2,0.7,0.2,1.2c0,0.5-0.1,1-0.3,1.4c-0.2,0.4-0.4,0.8-0.8,1.2s-0.7,0.6-1.2,0.8c-0.5,0.2-1,0.3-1.7,0.3
		c-0.3,0-0.7,0-1-0.1c-0.4-0.1-0.7-0.2-1-0.3c-0.3-0.1-0.6-0.3-0.9-0.5c-0.3-0.2-0.5-0.4-0.8-0.6l0.8-1.2c0.1-0.1,0.1-0.2,0.2-0.2
		c0.1-0.1,0.2-0.1,0.3-0.1c0.2,0,0.3,0,0.5,0.1c0.2,0.1,0.3,0.2,0.5,0.3c0.2,0.1,0.4,0.2,0.7,0.3c0.3,0.1,0.5,0.1,0.9,0.1
		c0.5,0,0.8-0.1,1.1-0.3c0.3-0.2,0.4-0.5,0.4-1c0-0.3-0.1-0.5-0.2-0.6s-0.3-0.3-0.6-0.4c-0.2-0.1-0.5-0.2-0.8-0.3s-0.6-0.2-0.9-0.3
		c-0.3-0.1-0.6-0.2-0.9-0.4c-0.3-0.1-0.5-0.3-0.8-0.6c-0.2-0.2-0.4-0.5-0.6-0.9c-0.1-0.3-0.2-0.8-0.2-1.3c0-0.4,0.1-0.8,0.2-1.2
		c0.2-0.4,0.4-0.7,0.7-1c0.3-0.3,0.7-0.5,1.2-0.7s1-0.3,1.6-0.3c0.3,0,0.7,0,1,0.1c0.3,0.1,0.6,0.1,0.9,0.2c0.3,0.1,0.6,0.2,0.8,0.4
		c0.2,0.1,0.5,0.3,0.7,0.5L164.4,565.8z"/>
	<path id="XMLID_546_" fill="#2B2D2A" d="M129.8,541.1h3.8v1.8c0,0.2-0.1,0.3-0.2,0.5c-0.1,0.1-0.3,0.2-0.5,0.2h-3.1v6.6H127v-6.6
		h-11.1c-0.2,0-0.4-0.1-0.6-0.2c-0.2-0.1-0.3-0.3-0.3-0.5l-0.3-1.6l12.2-16.2h2.9V541.1z M127,530.8c0-0.3,0-0.6,0-1
		s0.1-0.7,0.1-1.1l-9.1,12.4h9V530.8z"/>
	<path id="XMLID_549_" fill="#2B2D2A" d="M157.1,537.6c0,2.2-0.2,4.1-0.7,5.7c-0.5,1.6-1.1,2.9-1.9,4c-0.8,1.1-1.8,1.8-2.9,2.3
		c-1.1,0.5-2.3,0.8-3.6,0.8c-1.3,0-2.5-0.3-3.6-0.8c-1.1-0.5-2.1-1.3-2.9-2.3s-1.5-2.4-1.9-4c-0.5-1.6-0.7-3.5-0.7-5.7
		c0-2.2,0.2-4.1,0.7-5.7c0.5-1.6,1.1-2.9,1.9-4s1.8-1.8,2.9-2.4c1.1-0.5,2.3-0.8,3.6-0.8c1.3,0,2.5,0.3,3.6,0.8
		c1.1,0.5,2.1,1.3,2.9,2.4c0.8,1.1,1.5,2.4,1.9,4C156.8,533.5,157.1,535.4,157.1,537.6z M153.8,537.6c0-1.9-0.2-3.5-0.5-4.8
		c-0.3-1.3-0.8-2.4-1.3-3.1c-0.5-0.8-1.2-1.4-1.9-1.7c-0.7-0.3-1.5-0.5-2.2-0.5c-0.8,0-1.5,0.2-2.2,0.5c-0.7,0.3-1.3,0.9-1.9,1.7
		c-0.5,0.8-1,1.8-1.3,3.1s-0.5,2.9-0.5,4.8c0,1.9,0.2,3.5,0.5,4.8c0.3,1.3,0.8,2.3,1.3,3.1c0.5,0.8,1.2,1.4,1.9,1.7
		c0.7,0.3,1.5,0.5,2.2,0.5c0.8,0,1.5-0.2,2.2-0.5c0.7-0.3,1.3-0.9,1.9-1.7c0.5-0.8,1-1.8,1.3-3.1
		C153.7,541.2,153.8,539.6,153.8,537.6z"/>
	<path id="XMLID_550_" fill="#6EA34E" d="M223.4,565.8c-0.1,0.1-0.2,0.2-0.2,0.3c-0.1,0.1-0.2,0.1-0.3,0.1c-0.1,0-0.2,0-0.4-0.1
		c-0.1-0.1-0.3-0.2-0.5-0.2c-0.2-0.1-0.4-0.2-0.6-0.2s-0.5-0.1-0.7-0.1c-0.5,0-0.8,0.1-1.1,0.3s-0.3,0.5-0.3,0.8
		c0,0.2,0.1,0.4,0.2,0.5s0.3,0.3,0.6,0.4c0.2,0.1,0.5,0.2,0.8,0.3c0.3,0.1,0.6,0.2,0.9,0.3c0.3,0.1,0.6,0.2,0.9,0.4s0.6,0.3,0.8,0.6
		s0.4,0.5,0.6,0.8c0.1,0.3,0.2,0.7,0.2,1.2c0,0.5-0.1,1-0.3,1.4c-0.2,0.4-0.4,0.8-0.8,1.2s-0.7,0.6-1.2,0.8c-0.5,0.2-1,0.3-1.7,0.3
		c-0.3,0-0.7,0-1-0.1c-0.4-0.1-0.7-0.2-1-0.3c-0.3-0.1-0.6-0.3-0.9-0.5c-0.3-0.2-0.5-0.4-0.8-0.6l0.8-1.2c0.1-0.1,0.1-0.2,0.2-0.2
		c0.1-0.1,0.2-0.1,0.3-0.1c0.2,0,0.3,0,0.5,0.1c0.2,0.1,0.3,0.2,0.5,0.3c0.2,0.1,0.4,0.2,0.7,0.3c0.3,0.1,0.5,0.1,0.9,0.1
		c0.5,0,0.8-0.1,1.1-0.3c0.3-0.2,0.4-0.5,0.4-1c0-0.3-0.1-0.5-0.2-0.6s-0.3-0.3-0.6-0.4c-0.2-0.1-0.5-0.2-0.8-0.3s-0.6-0.2-0.9-0.3
		c-0.3-0.1-0.6-0.2-0.9-0.4c-0.3-0.1-0.5-0.3-0.8-0.6c-0.2-0.2-0.4-0.5-0.6-0.9c-0.1-0.3-0.2-0.8-0.2-1.3c0-0.4,0.1-0.8,0.2-1.2
		c0.2-0.4,0.4-0.7,0.7-1c0.3-0.3,0.7-0.5,1.2-0.7s1-0.3,1.6-0.3c0.3,0,0.7,0,1,0.1c0.3,0.1,0.6,0.1,0.9,0.2c0.3,0.1,0.6,0.2,0.8,0.4
		c0.2,0.1,0.5,0.3,0.7,0.5L223.4,565.8z"/>
	<polygon id="XMLID_551_" fill="#6EA34E" points="234.9,563.6 234.9,565.6 231.8,565.6 231.8,574.5 229.3,574.5 229.3,565.6 
		226.2,565.6 226.2,563.6 	"/>
	<path id="XMLID_554_" fill="#6EA34E" d="M247.8,569.1c0,0.8-0.1,1.5-0.4,2.2c-0.3,0.7-0.7,1.3-1.2,1.8c-0.5,0.5-1.1,0.9-1.8,1.2
		c-0.7,0.3-1.5,0.4-2.3,0.4c-0.9,0-1.6-0.1-2.3-0.4c-0.7-0.3-1.3-0.7-1.8-1.2c-0.5-0.5-0.9-1.1-1.2-1.8c-0.3-0.7-0.4-1.4-0.4-2.2
		c0-0.8,0.1-1.5,0.4-2.2c0.3-0.7,0.7-1.3,1.2-1.8c0.5-0.5,1.1-0.9,1.8-1.2c0.7-0.3,1.5-0.4,2.3-0.4c0.9,0,1.6,0.1,2.3,0.4
		c0.7,0.3,1.3,0.7,1.8,1.2c0.5,0.5,0.9,1.1,1.2,1.8C247.7,567.6,247.8,568.3,247.8,569.1z M245.2,569.1c0-0.5-0.1-1-0.2-1.5
		c-0.1-0.4-0.3-0.8-0.6-1.1c-0.3-0.3-0.6-0.5-1-0.7c-0.4-0.2-0.8-0.2-1.3-0.2c-0.5,0-0.9,0.1-1.3,0.2c-0.4,0.2-0.7,0.4-1,0.7
		c-0.3,0.3-0.5,0.7-0.6,1.1c-0.1,0.4-0.2,0.9-0.2,1.5c0,0.5,0.1,1,0.2,1.5c0.1,0.4,0.3,0.8,0.6,1.1c0.3,0.3,0.6,0.5,1,0.7
		c0.4,0.2,0.8,0.2,1.3,0.2c0.5,0,0.9-0.1,1.3-0.2c0.4-0.2,0.7-0.4,1-0.7c0.3-0.3,0.5-0.7,0.6-1.1
		C245.1,570.1,245.2,569.6,245.2,569.1z"/>
	<path id="XMLID_555_" fill="#6EA34E" d="M257.9,571.7l0.2,0l0.2,0.1l1,1.1c-0.4,0.6-1,1-1.7,1.3s-1.4,0.4-2.4,0.4
		c-0.8,0-1.6-0.1-2.2-0.4c-0.7-0.3-1.2-0.7-1.7-1.2c-0.5-0.5-0.8-1.1-1.1-1.8c-0.2-0.7-0.4-1.4-0.4-2.2c0-0.8,0.1-1.6,0.4-2.2
		c0.3-0.7,0.7-1.3,1.2-1.8s1.1-0.9,1.8-1.2s1.5-0.4,2.3-0.4c0.4,0,0.8,0,1.2,0.1c0.4,0.1,0.7,0.2,1,0.3c0.3,0.1,0.6,0.3,0.9,0.5
		s0.5,0.4,0.7,0.6l-0.9,1.1l-0.2,0.2c-0.1,0.1-0.2,0.1-0.3,0.1l-0.3-0.1c-0.1,0-0.2-0.1-0.3-0.1s-0.2-0.1-0.3-0.2
		c-0.1-0.1-0.2-0.1-0.4-0.2c-0.1-0.1-0.3-0.1-0.5-0.1s-0.4-0.1-0.7-0.1c-0.5,0-0.9,0.1-1.3,0.2c-0.4,0.2-0.7,0.4-1,0.7
		s-0.5,0.7-0.6,1.1s-0.2,0.9-0.2,1.4c0,0.6,0.1,1.1,0.2,1.5s0.4,0.8,0.6,1.1c0.3,0.3,0.6,0.5,0.9,0.7c0.4,0.2,0.7,0.2,1.1,0.2
		c0.2,0,0.4,0,0.6,0c0.2,0,0.4-0.1,0.5-0.1c0.2-0.1,0.3-0.1,0.5-0.2c0.1-0.1,0.3-0.2,0.4-0.3l0.2-0.1L257.9,571.7z"/>
	<path id="XMLID_556_" fill="#6EA34E" d="M264.4,568h0.4c0.4,0,0.6-0.1,0.8-0.4l2.5-3.6c0.1-0.2,0.3-0.3,0.5-0.4s0.4-0.1,0.6-0.1
		h2.2l-3.2,4.4c-0.1,0.2-0.2,0.3-0.4,0.4c-0.1,0.1-0.3,0.2-0.4,0.3c0.2,0.1,0.4,0.2,0.5,0.3c0.2,0.1,0.3,0.3,0.4,0.5l3.3,5.1h-2.3
		c-0.1,0-0.3,0-0.4,0c-0.1,0-0.2,0-0.3-0.1l-0.2-0.1l-0.2-0.2l-2.5-3.8c-0.1-0.1-0.2-0.2-0.3-0.3s-0.3-0.1-0.6-0.1h-0.6v4.7h-2.5
		v-10.9h2.5V568z"/>
	<path id="XMLID_557_" fill="#6EA34E" d="M280.2,565.8c-0.1,0.1-0.2,0.2-0.2,0.3c-0.1,0.1-0.2,0.1-0.3,0.1c-0.1,0-0.2,0-0.4-0.1
		c-0.1-0.1-0.3-0.2-0.5-0.2c-0.2-0.1-0.4-0.2-0.6-0.2s-0.5-0.1-0.7-0.1c-0.5,0-0.8,0.1-1.1,0.3s-0.3,0.5-0.3,0.8
		c0,0.2,0.1,0.4,0.2,0.5s0.3,0.3,0.6,0.4c0.2,0.1,0.5,0.2,0.8,0.3c0.3,0.1,0.6,0.2,0.9,0.3c0.3,0.1,0.6,0.2,0.9,0.4s0.6,0.3,0.8,0.6
		s0.4,0.5,0.6,0.8c0.1,0.3,0.2,0.7,0.2,1.2c0,0.5-0.1,1-0.3,1.4c-0.2,0.4-0.4,0.8-0.8,1.2s-0.7,0.6-1.2,0.8c-0.5,0.2-1,0.3-1.7,0.3
		c-0.3,0-0.7,0-1-0.1c-0.4-0.1-0.7-0.2-1-0.3c-0.3-0.1-0.6-0.3-0.9-0.5c-0.3-0.2-0.5-0.4-0.8-0.6l0.8-1.2c0.1-0.1,0.1-0.2,0.2-0.2
		c0.1-0.1,0.2-0.1,0.3-0.1c0.2,0,0.3,0,0.5,0.1c0.2,0.1,0.3,0.2,0.5,0.3c0.2,0.1,0.4,0.2,0.7,0.3c0.3,0.1,0.5,0.1,0.9,0.1
		c0.5,0,0.8-0.1,1.1-0.3c0.3-0.2,0.4-0.5,0.4-1c0-0.3-0.1-0.5-0.2-0.6s-0.3-0.3-0.6-0.4c-0.2-0.1-0.5-0.2-0.8-0.3s-0.6-0.2-0.9-0.3
		c-0.3-0.1-0.6-0.2-0.9-0.4c-0.3-0.1-0.5-0.3-0.8-0.6c-0.2-0.2-0.4-0.5-0.6-0.9c-0.1-0.3-0.2-0.8-0.2-1.3c0-0.4,0.1-0.8,0.2-1.2
		c0.2-0.4,0.4-0.7,0.7-1c0.3-0.3,0.7-0.5,1.2-0.7s1-0.3,1.6-0.3c0.3,0,0.7,0,1,0.1c0.3,0.1,0.6,0.1,0.9,0.2c0.3,0.1,0.6,0.2,0.8,0.4
		c0.2,0.1,0.5,0.3,0.7,0.5L280.2,565.8z"/>
	<path id="XMLID_560_" fill="#6EA34E" d="M238.3,534.8c1,0,2,0.2,2.9,0.5c0.9,0.3,1.7,0.8,2.4,1.5c0.7,0.6,1.2,1.4,1.6,2.3
		c0.4,0.9,0.6,2,0.6,3.2c0,1.2-0.2,2.2-0.6,3.2c-0.4,1-1,1.9-1.8,2.6c-0.8,0.7-1.7,1.3-2.7,1.7c-1.1,0.4-2.2,0.6-3.5,0.6
		c-1.3,0-2.4-0.2-3.4-0.6s-1.9-1-2.6-1.7c-0.7-0.7-1.3-1.6-1.7-2.7s-0.6-2.2-0.6-3.5c0-1.1,0.2-2.3,0.7-3.5c0.5-1.2,1.3-2.6,2.3-4
		l6.4-8.6c0.2-0.2,0.4-0.4,0.7-0.5c0.3-0.1,0.6-0.2,1-0.2h2.8l-8.7,11c0.6-0.4,1.3-0.7,2-1S237.5,534.8,238.3,534.8z M231.8,542.4
		c0,0.8,0.1,1.5,0.4,2.2s0.6,1.2,1,1.7c0.4,0.5,1,0.9,1.6,1.1c0.6,0.3,1.4,0.4,2.2,0.4c0.8,0,1.6-0.1,2.3-0.4s1.3-0.6,1.7-1.1
		c0.5-0.5,0.9-1,1.1-1.7c0.3-0.7,0.4-1.4,0.4-2.1c0-0.8-0.1-1.6-0.4-2.2c-0.3-0.7-0.6-1.2-1.1-1.7c-0.5-0.5-1-0.8-1.7-1.1
		c-0.7-0.2-1.4-0.4-2.2-0.4c-0.8,0-1.6,0.1-2.3,0.4c-0.7,0.3-1.3,0.7-1.7,1.2c-0.5,0.5-0.8,1-1.1,1.7
		C231.9,541.1,231.8,541.8,231.8,542.4z"/>
	<path id="XMLID_563_" fill="#6EA34E" d="M270,537.6c0,2.2-0.2,4.1-0.7,5.7c-0.5,1.6-1.1,2.9-1.9,4c-0.8,1.1-1.8,1.8-2.9,2.3
		c-1.1,0.5-2.3,0.8-3.6,0.8c-1.3,0-2.5-0.3-3.6-0.8c-1.1-0.5-2.1-1.3-2.9-2.3s-1.5-2.4-1.9-4c-0.5-1.6-0.7-3.5-0.7-5.7
		c0-2.2,0.2-4.1,0.7-5.7c0.5-1.6,1.1-2.9,1.9-4s1.8-1.8,2.9-2.4c1.1-0.5,2.3-0.8,3.6-0.8c1.3,0,2.5,0.3,3.6,0.8
		c1.1,0.5,2.1,1.3,2.9,2.4c0.8,1.1,1.5,2.4,1.9,4C269.8,533.5,270,535.4,270,537.6z M266.8,537.6c0-1.9-0.2-3.5-0.5-4.8
		c-0.3-1.3-0.8-2.4-1.3-3.1c-0.5-0.8-1.2-1.4-1.9-1.7c-0.7-0.3-1.5-0.5-2.2-0.5c-0.8,0-1.5,0.2-2.2,0.5c-0.7,0.3-1.3,0.9-1.9,1.7
		c-0.5,0.8-1,1.8-1.3,3.1s-0.5,2.9-0.5,4.8c0,1.9,0.2,3.5,0.5,4.8c0.3,1.3,0.8,2.3,1.3,3.1c0.5,0.8,1.2,1.4,1.9,1.7
		c0.7,0.3,1.5,0.5,2.2,0.5c0.8,0,1.5-0.2,2.2-0.5c0.7-0.3,1.3-0.9,1.9-1.7c0.5-0.8,1-1.8,1.3-3.1
		C266.6,541.2,266.8,539.6,266.8,537.6z"/>
	<polyline id="XMLID_564_" fill="#B0B3AB" points="194,500.6 194,592.6 195,592.6 195,500.6 	"/>
	<path id="XMLID_567_" fill="#D0D2CC" d="M314.7,332.5v3.2h-2V327h2.8c0.6,0,1.2,0.1,1.6,0.2c0.4,0.1,0.8,0.3,1.1,0.5
		c0.3,0.2,0.5,0.5,0.6,0.8c0.1,0.3,0.2,0.7,0.2,1c0,0.3,0,0.6-0.1,0.8c-0.1,0.3-0.2,0.5-0.3,0.7c-0.1,0.2-0.3,0.4-0.6,0.6
		c-0.2,0.2-0.5,0.3-0.8,0.4c0.1,0.1,0.3,0.2,0.4,0.3c0.1,0.1,0.2,0.2,0.3,0.4l1.9,3H318c-0.3,0-0.6-0.1-0.7-0.4l-1.5-2.5
		c-0.1-0.1-0.1-0.2-0.2-0.2s-0.2-0.1-0.4-0.1H314.7z M314.7,331.1h0.8c0.3,0,0.5,0,0.7-0.1c0.2-0.1,0.4-0.2,0.5-0.3s0.2-0.3,0.3-0.4
		c0.1-0.2,0.1-0.3,0.1-0.5c0-0.4-0.1-0.7-0.4-0.9c-0.2-0.2-0.6-0.3-1.2-0.3h-0.8V331.1z"/>
	<rect id="XMLID_568_" x="322.1" y="327" fill="#D0D2CC" width="2" height="8.7"/>
	<path id="XMLID_569_" fill="#D0D2CC" d="M331.8,328.8c-0.1,0.1-0.1,0.2-0.2,0.2c-0.1,0-0.2,0.1-0.3,0.1c-0.1,0-0.2,0-0.3-0.1
		c-0.1-0.1-0.2-0.1-0.4-0.2c-0.1-0.1-0.3-0.1-0.5-0.2c-0.2-0.1-0.4-0.1-0.6-0.1c-0.4,0-0.7,0.1-0.8,0.2c-0.2,0.2-0.3,0.4-0.3,0.7
		c0,0.2,0.1,0.3,0.2,0.4c0.1,0.1,0.3,0.2,0.4,0.3c0.2,0.1,0.4,0.2,0.6,0.2c0.2,0.1,0.5,0.1,0.7,0.2c0.2,0.1,0.5,0.2,0.7,0.3
		s0.4,0.3,0.6,0.4c0.2,0.2,0.3,0.4,0.4,0.7c0.1,0.3,0.2,0.6,0.2,0.9c0,0.4-0.1,0.8-0.2,1.1s-0.3,0.7-0.6,0.9s-0.6,0.5-1,0.6
		s-0.8,0.2-1.3,0.2c-0.3,0-0.5,0-0.8-0.1c-0.3-0.1-0.6-0.1-0.8-0.2c-0.3-0.1-0.5-0.2-0.7-0.4s-0.4-0.3-0.6-0.5l0.6-0.9l0.2-0.2
		c0.1,0,0.2-0.1,0.3-0.1c0.1,0,0.2,0,0.4,0.1c0.1,0.1,0.3,0.2,0.4,0.3c0.2,0.1,0.3,0.2,0.5,0.3c0.2,0.1,0.4,0.1,0.7,0.1
		c0.4,0,0.7-0.1,0.9-0.2s0.3-0.4,0.3-0.8c0-0.2-0.1-0.4-0.2-0.5c-0.1-0.1-0.3-0.2-0.4-0.3c-0.2-0.1-0.4-0.2-0.6-0.2
		c-0.2-0.1-0.5-0.1-0.7-0.2c-0.2-0.1-0.5-0.2-0.7-0.3c-0.2-0.1-0.4-0.3-0.6-0.4c-0.2-0.2-0.3-0.4-0.4-0.7s-0.2-0.6-0.2-1
		c0-0.3,0.1-0.6,0.2-1c0.1-0.3,0.3-0.6,0.6-0.8c0.3-0.2,0.6-0.4,0.9-0.6c0.4-0.1,0.8-0.2,1.3-0.2c0.3,0,0.5,0,0.8,0.1
		c0.3,0,0.5,0.1,0.7,0.2c0.2,0.1,0.4,0.2,0.6,0.3c0.2,0.1,0.4,0.2,0.5,0.4L331.8,328.8z"/>
	<path id="XMLID_570_" fill="#D0D2CC" d="M336.7,330.6h0.3c0.3,0,0.5-0.1,0.6-0.3l2-2.9c0.1-0.2,0.2-0.3,0.4-0.3
		c0.1-0.1,0.3-0.1,0.5-0.1h1.8l-2.6,3.5c-0.1,0.1-0.2,0.2-0.3,0.3c-0.1,0.1-0.2,0.2-0.3,0.2c0.2,0.1,0.3,0.1,0.4,0.2
		c0.1,0.1,0.2,0.2,0.3,0.4l2.6,4.1h-1.8c-0.1,0-0.2,0-0.3,0l-0.2-0.1l-0.2-0.1l-0.1-0.2l-2-3c-0.1-0.1-0.2-0.2-0.3-0.2
		c-0.1,0-0.3-0.1-0.4-0.1h-0.5v3.7h-2V327h2V330.6z"/>
	<path id="XMLID_571_" fill="#D0D2CC" d="M348.8,332.4v3.3h-2v-3.3l-3.2-5.4h1.8c0.2,0,0.3,0,0.4,0.1s0.2,0.2,0.3,0.3l1.2,2.5
		c0.1,0.2,0.2,0.4,0.3,0.6s0.2,0.3,0.2,0.5c0.1-0.2,0.1-0.3,0.2-0.5s0.2-0.4,0.3-0.6l1.2-2.5l0.1-0.2l0.1-0.1l0.2-0.1l0.2,0h1.8
		L348.8,332.4z"/>
	<path id="XMLID_572_" fill="#D0D2CC" d="M47.6,333.5l0.1,0l0.1,0.1l0.8,0.8c-0.4,0.5-0.8,0.8-1.3,1c-0.5,0.2-1.2,0.4-1.9,0.4
		c-0.7,0-1.3-0.1-1.8-0.3c-0.5-0.2-1-0.5-1.3-0.9c-0.4-0.4-0.6-0.9-0.8-1.4c-0.2-0.5-0.3-1.1-0.3-1.8c0-0.7,0.1-1.3,0.3-1.8
		c0.2-0.5,0.5-1,0.9-1.4c0.4-0.4,0.9-0.7,1.4-0.9s1.2-0.3,1.9-0.3c0.3,0,0.6,0,0.9,0.1s0.6,0.1,0.8,0.2c0.3,0.1,0.5,0.2,0.7,0.4
		c0.2,0.1,0.4,0.3,0.6,0.5l-0.7,0.9l-0.2,0.2c-0.1,0-0.1,0.1-0.3,0.1l-0.2,0l-0.2-0.1l-0.2-0.1c-0.1-0.1-0.2-0.1-0.3-0.2
		c-0.1,0-0.3-0.1-0.4-0.1c-0.2,0-0.3,0-0.6,0c-0.4,0-0.7,0.1-1,0.2c-0.3,0.1-0.6,0.3-0.8,0.6c-0.2,0.2-0.4,0.5-0.5,0.9
		c-0.1,0.3-0.2,0.7-0.2,1.2c0,0.4,0.1,0.8,0.2,1.2c0.1,0.3,0.3,0.6,0.5,0.9s0.5,0.4,0.7,0.5c0.3,0.1,0.6,0.2,0.9,0.2
		c0.2,0,0.4,0,0.5,0c0.2,0,0.3,0,0.4-0.1c0.1,0,0.3-0.1,0.4-0.2c0.1-0.1,0.2-0.2,0.4-0.3l0.2-0.1L47.6,333.5z"/>
	<path id="XMLID_575_" fill="#D0D2CC" d="M59.4,331.4c0,0.6-0.1,1.2-0.3,1.8c-0.2,0.5-0.5,1-0.9,1.4c-0.4,0.4-0.9,0.7-1.4,0.9
		c-0.6,0.2-1.2,0.3-1.9,0.3s-1.3-0.1-1.9-0.3c-0.6-0.2-1-0.5-1.4-0.9c-0.4-0.4-0.7-0.9-0.9-1.4c-0.2-0.5-0.3-1.1-0.3-1.8
		s0.1-1.2,0.3-1.8c0.2-0.5,0.5-1,0.9-1.4c0.4-0.4,0.9-0.7,1.4-0.9c0.6-0.2,1.2-0.3,1.9-0.3s1.3,0.1,1.9,0.3c0.6,0.2,1,0.5,1.4,0.9
		c0.4,0.4,0.7,0.9,0.9,1.4C59.3,330.2,59.4,330.8,59.4,331.4z M57.3,331.4c0-0.4-0.1-0.8-0.2-1.2s-0.3-0.6-0.5-0.9s-0.5-0.4-0.8-0.6
		c-0.3-0.1-0.7-0.2-1-0.2c-0.4,0-0.7,0.1-1,0.2c-0.3,0.1-0.6,0.3-0.8,0.6c-0.2,0.2-0.4,0.5-0.5,0.9c-0.1,0.3-0.2,0.7-0.2,1.2
		c0,0.4,0.1,0.8,0.2,1.2c0.1,0.3,0.3,0.6,0.5,0.9c0.2,0.2,0.5,0.4,0.8,0.5c0.3,0.1,0.7,0.2,1,0.2c0.4,0,0.7-0.1,1-0.2
		c0.3-0.1,0.6-0.3,0.8-0.5c0.2-0.2,0.4-0.5,0.5-0.9C57.3,332.2,57.3,331.8,57.3,331.4z"/>
	<path id="XMLID_576_" fill="#D0D2CC" d="M62.9,327l0.2,0l0.1,0.1l0.1,0.2l4.2,5.2c0-0.2,0-0.3,0-0.5c0-0.2,0-0.3,0-0.4V327h1.8v8.7
		h-1.1c-0.2,0-0.3,0-0.4-0.1s-0.2-0.1-0.3-0.3l-4.1-5.2c0,0.2,0,0.3,0,0.4c0,0.1,0,0.3,0,0.4v4.7h-1.8V327h1.1L62.9,327z"/>
	<path id="XMLID_577_" fill="#D0D2CC" d="M76.7,328.8c-0.1,0.1-0.1,0.2-0.2,0.2c-0.1,0-0.2,0.1-0.3,0.1c-0.1,0-0.2,0-0.3-0.1
		c-0.1-0.1-0.2-0.1-0.4-0.2c-0.1-0.1-0.3-0.1-0.5-0.2c-0.2-0.1-0.4-0.1-0.6-0.1c-0.4,0-0.7,0.1-0.8,0.2c-0.2,0.2-0.3,0.4-0.3,0.7
		c0,0.2,0.1,0.3,0.2,0.4c0.1,0.1,0.3,0.2,0.4,0.3c0.2,0.1,0.4,0.2,0.6,0.2c0.2,0.1,0.5,0.1,0.7,0.2c0.2,0.1,0.5,0.2,0.7,0.3
		s0.4,0.3,0.6,0.4c0.2,0.2,0.3,0.4,0.4,0.7c0.1,0.3,0.2,0.6,0.2,0.9c0,0.4-0.1,0.8-0.2,1.1s-0.3,0.7-0.6,0.9s-0.6,0.5-1,0.6
		s-0.8,0.2-1.3,0.2c-0.3,0-0.5,0-0.8-0.1c-0.3-0.1-0.6-0.1-0.8-0.2c-0.3-0.1-0.5-0.2-0.7-0.4s-0.4-0.3-0.6-0.5l0.6-0.9l0.2-0.2
		c0.1,0,0.2-0.1,0.3-0.1c0.1,0,0.2,0,0.4,0.1c0.1,0.1,0.3,0.2,0.4,0.3c0.2,0.1,0.3,0.2,0.5,0.3c0.2,0.1,0.4,0.1,0.7,0.1
		c0.4,0,0.7-0.1,0.9-0.2s0.3-0.4,0.3-0.8c0-0.2-0.1-0.4-0.2-0.5c-0.1-0.1-0.3-0.2-0.4-0.3c-0.2-0.1-0.4-0.2-0.6-0.2
		c-0.2-0.1-0.5-0.1-0.7-0.2c-0.2-0.1-0.5-0.2-0.7-0.3c-0.2-0.1-0.4-0.3-0.6-0.4c-0.2-0.2-0.3-0.4-0.4-0.7s-0.2-0.6-0.2-1
		c0-0.3,0.1-0.6,0.2-1c0.1-0.3,0.3-0.6,0.6-0.8c0.3-0.2,0.6-0.4,0.9-0.6c0.4-0.1,0.8-0.2,1.3-0.2c0.3,0,0.5,0,0.8,0.1
		c0.3,0,0.5,0.1,0.7,0.2c0.2,0.1,0.4,0.2,0.6,0.3c0.2,0.1,0.4,0.2,0.5,0.4L76.7,328.8z"/>
	<polygon id="XMLID_578_" fill="#D0D2CC" points="85.2,327 85.2,328.6 81.6,328.6 81.6,330.6 84.4,330.6 84.4,332.1 81.6,332.1 
		81.6,334.2 85.2,334.2 85.2,335.8 79.6,335.8 79.6,327 	"/>
	<path id="XMLID_581_" fill="#D0D2CC" d="M89.6,332.5v3.2h-2V327h2.8c0.6,0,1.2,0.1,1.6,0.2c0.4,0.1,0.8,0.3,1.1,0.5
		c0.3,0.2,0.5,0.5,0.6,0.8c0.1,0.3,0.2,0.7,0.2,1c0,0.3,0,0.6-0.1,0.8c-0.1,0.3-0.2,0.5-0.3,0.7c-0.1,0.2-0.3,0.4-0.6,0.6
		c-0.2,0.2-0.5,0.3-0.8,0.4c0.1,0.1,0.3,0.2,0.4,0.3c0.1,0.1,0.2,0.2,0.3,0.4l1.9,3h-1.8c-0.3,0-0.6-0.1-0.7-0.4l-1.5-2.5
		c-0.1-0.1-0.1-0.2-0.2-0.2s-0.2-0.1-0.4-0.1H89.6z M89.6,331.1h0.8c0.3,0,0.5,0,0.7-0.1c0.2-0.1,0.4-0.2,0.5-0.3s0.2-0.3,0.3-0.4
		c0.1-0.2,0.1-0.3,0.1-0.5c0-0.4-0.1-0.7-0.4-0.9c-0.2-0.2-0.6-0.3-1.2-0.3h-0.8V331.1z"/>
	<path id="XMLID_582_" fill="#D0D2CC" d="M96,327h1.6c0.2,0,0.3,0,0.4,0.1s0.2,0.2,0.2,0.3l1.7,4.7c0.1,0.2,0.2,0.4,0.2,0.7
		s0.2,0.5,0.2,0.8c0.1-0.3,0.1-0.5,0.2-0.8c0.1-0.2,0.1-0.5,0.2-0.7l1.7-4.7c0-0.1,0.1-0.2,0.2-0.3c0.1-0.1,0.3-0.1,0.4-0.1h1.6
		l-3.5,8.7h-1.8L96,327z"/>
	<path id="XMLID_585_" fill="#D0D2CC" d="M113.7,335.8h-1.6c-0.2,0-0.3,0-0.4-0.1c-0.1-0.1-0.2-0.2-0.2-0.3l-0.5-1.5h-3.3l-0.5,1.5
		c0,0.1-0.1,0.2-0.2,0.3s-0.3,0.1-0.4,0.1h-1.6l3.4-8.7h2.1L113.7,335.8z M108.1,332.4h2.4l-0.8-2.4c-0.1-0.2-0.1-0.3-0.2-0.5
		c-0.1-0.2-0.1-0.4-0.2-0.7c-0.1,0.2-0.1,0.5-0.2,0.7c-0.1,0.2-0.1,0.4-0.2,0.5L108.1,332.4z"/>
	<polygon id="XMLID_586_" fill="#D0D2CC" points="121,327 121,328.6 118.5,328.6 118.5,335.8 116.5,335.8 116.5,328.6 114.1,328.6 
		114.1,327 	"/>
	<rect id="XMLID_587_" x="123.2" y="327" fill="#D0D2CC" width="2" height="8.7"/>
	<path id="XMLID_588_" fill="#D0D2CC" d="M127.4,327h1.6c0.2,0,0.3,0,0.4,0.1s0.2,0.2,0.2,0.3l1.7,4.7c0.1,0.2,0.2,0.4,0.2,0.7
		s0.2,0.5,0.2,0.8c0.1-0.3,0.1-0.5,0.2-0.8c0.1-0.2,0.1-0.5,0.2-0.7l1.7-4.7c0-0.1,0.1-0.2,0.2-0.3c0.1-0.1,0.3-0.1,0.4-0.1h1.6
		l-3.5,8.7h-1.8L127.4,327z"/>
	<polygon id="XMLID_589_" fill="#D0D2CC" points="143.8,327 143.8,328.6 140.2,328.6 140.2,330.6 142.9,330.6 142.9,332.1 
		140.2,332.1 140.2,334.2 143.8,334.2 143.8,335.8 138.1,335.8 138.1,327 	"/>
	<circle id="XMLID_590_" fill="#FFFFFF" cx="55.2" cy="172.8" r="14"/>
	<path id="XMLID_591_" fill="#B0B3AB" d="M69.2,172.8h-1.5c0,3.5-1.4,6.6-3.7,8.8c-2.3,2.3-5.4,3.7-8.8,3.7c-3.5,0-6.6-1.4-8.8-3.7
		c-2.3-2.3-3.7-5.4-3.7-8.8c0-3.5,1.4-6.6,3.7-8.8c2.3-2.3,5.4-3.7,8.8-3.7c3.5,0,6.6,1.4,8.8,3.7c2.3,2.3,3.7,5.4,3.7,8.8H69.2h1.5
		c0-8.6-6.9-15.5-15.5-15.5c-8.6,0-15.5,6.9-15.5,15.5c0,8.6,6.9,15.5,15.5,15.5c8.6,0,15.5-6.9,15.5-15.5H69.2z"/>
	<circle id="XMLID_592_" fill="#FFFFFF" cx="200.2" cy="172.8" r="14"/>
	<path id="XMLID_593_" fill="#B0B3AB" d="M214.2,172.8h-1.5c0,3.5-1.4,6.6-3.7,8.8c-2.3,2.3-5.4,3.7-8.8,3.7c-3.5,0-6.6-1.4-8.8-3.7
		c-2.3-2.3-3.7-5.4-3.7-8.8c0-3.5,1.4-6.6,3.7-8.8c2.3-2.3,5.4-3.7,8.8-3.7c3.5,0,6.6,1.4,8.8,3.7c2.3,2.3,3.7,5.4,3.7,8.8H214.2
		h1.5c0-8.6-6.9-15.5-15.5-15.5c-8.6,0-15.5,6.9-15.5,15.5c0,8.6,6.9,15.5,15.5,15.5c8.6,0,15.5-6.9,15.5-15.5H214.2z"/>
	<circle id="XMLID_594_" fill="#6EA34E" cx="200.1" cy="172.4" r="8"/>
	<path id="XMLID_595_" fill="#6EA34E" d="M87.7,37.3c0.7,0,1.3,0.1,1.8,0.3s1,0.5,1.4,0.8s0.7,0.7,0.9,1.2c0.2,0.5,0.3,1,0.3,1.5
		c0,0.5-0.1,0.9-0.2,1.2c-0.1,0.4-0.3,0.7-0.5,0.9c-0.2,0.3-0.4,0.5-0.7,0.7s-0.6,0.3-1,0.5c0.9,0.3,1.5,0.7,2,1.3
		c0.4,0.6,0.7,1.3,0.7,2.1c0,0.7-0.1,1.4-0.4,1.9c-0.3,0.6-0.6,1-1.1,1.4c-0.5,0.4-1,0.7-1.6,0.9s-1.2,0.3-1.9,0.3
		c-0.7,0-1.4-0.1-1.9-0.3c-0.5-0.2-1-0.4-1.4-0.8c-0.4-0.3-0.8-0.7-1-1.2s-0.5-1-0.7-1.7l1.1-0.5c0.2-0.1,0.4-0.1,0.6-0.1
		c0.2,0,0.3,0,0.5,0.1s0.2,0.2,0.3,0.3c0.1,0.2,0.3,0.5,0.4,0.7c0.1,0.2,0.3,0.4,0.5,0.6c0.2,0.2,0.4,0.3,0.7,0.4
		c0.3,0.1,0.6,0.2,1,0.2c0.4,0,0.8-0.1,1.1-0.2s0.6-0.3,0.8-0.5c0.2-0.2,0.4-0.5,0.5-0.7c0.1-0.3,0.2-0.6,0.2-0.8c0-0.4,0-0.7-0.1-1
		c-0.1-0.3-0.2-0.5-0.5-0.7s-0.6-0.4-1-0.5c-0.4-0.1-1-0.2-1.8-0.2v-1.8c0.6,0,1.1-0.1,1.5-0.2s0.7-0.3,1-0.5
		c0.2-0.2,0.4-0.4,0.5-0.7c0.1-0.3,0.1-0.6,0.1-0.9c0-0.7-0.2-1.2-0.6-1.6c-0.4-0.4-0.9-0.5-1.6-0.5c-0.6,0-1.1,0.2-1.5,0.5
		c-0.4,0.3-0.7,0.7-0.8,1.2c-0.1,0.3-0.2,0.4-0.3,0.6c-0.1,0.1-0.3,0.2-0.6,0.2c-0.1,0-0.2,0-0.3,0l-1.3-0.2
		c0.1-0.7,0.3-1.3,0.6-1.9c0.3-0.5,0.7-1,1.1-1.3s0.9-0.6,1.5-0.8C86.4,37.4,87,37.3,87.7,37.3z"/>
	<path id="XMLID_596_" fill="#6EA34E" d="M99.3,37.3c0.7,0,1.3,0.1,1.9,0.3s1,0.5,1.4,0.8c0.4,0.4,0.7,0.8,0.9,1.3
		c0.2,0.5,0.3,1.1,0.3,1.7c0,0.5-0.1,1-0.2,1.5c-0.2,0.5-0.4,0.9-0.6,1.3c-0.3,0.4-0.6,0.8-0.9,1.2c-0.4,0.4-0.7,0.8-1.1,1.2
		l-3.3,3.4c0.3-0.1,0.6-0.2,1-0.2c0.3-0.1,0.6-0.1,0.9-0.1h3.8c0.3,0,0.5,0.1,0.6,0.2c0.2,0.2,0.2,0.4,0.2,0.6v1.5H94v-0.8
		c0-0.2,0-0.3,0.1-0.5s0.2-0.4,0.3-0.5l4.5-4.5c0.4-0.4,0.7-0.7,1-1.1c0.3-0.3,0.5-0.7,0.7-1c0.2-0.3,0.4-0.7,0.5-1s0.2-0.7,0.2-1.1
		c0-0.4-0.1-0.7-0.2-0.9c-0.1-0.3-0.2-0.5-0.4-0.7c-0.2-0.2-0.4-0.3-0.7-0.4c-0.3-0.1-0.6-0.1-0.9-0.1c-0.6,0-1.1,0.2-1.5,0.5
		s-0.7,0.7-0.8,1.2c-0.1,0.3-0.2,0.4-0.3,0.6c-0.1,0.1-0.3,0.2-0.6,0.2c-0.1,0-0.2,0-0.3,0l-1.3-0.2c0.1-0.7,0.3-1.3,0.6-1.9
		c0.3-0.5,0.7-1,1.1-1.3s0.9-0.6,1.5-0.8C98,37.4,98.6,37.3,99.3,37.3z"/>
</g>
</svg>
