<?xml version="1.0" encoding="utf-8"?>
<!-- Generator: Adobe Illustrator 19.0.0, SVG Export Plug-In . SVG Version: 6.00 Build 0)  -->
<!DOCTYPE svg PUBLIC "-//W3C//DTD SVG 1.1//EN" "http://www.w3.org/Graphics/SVG/1.1/DTD/svg11.dtd">
<svg version="1.1" id="Layer_1" xmlns="http://www.w3.org/2000/svg" xmlns:xlink="http://www.w3.org/1999/xlink" x="0px" y="0px"
	 viewBox="0 0 533.6 328.4" enable-background="new 0 0 533.6 328.4" xml:space="preserve">
<polyline id="XMLID_490_" fill="#D1D2CD" points="2.4,284.4 2.4,0.4 1.4,0.4 1.4,284.4 "/>
<polyline id="XMLID_491_" fill="#D1D2CD" points="1.4,285.4 532.4,285.4 532.4,284.4 1.4,284.4 "/>
<path id="XMLID_626_" fill="#D1D2CD" d="M532.4,214.4L532.4,214.4l0-1h0V214.4z M528.4,214.4h2v-1h-2V214.4z M524.4,214.4h2v-1h-2
	V214.4z M520.4,214.4h2v-1h-2V214.4z M516.4,214.4h2v-1h-2V214.4z M512.4,214.4h2v-1h-2V214.4z M508.4,214.4h2v-1h-2V214.4z
	 M504.4,214.4h2v-1h-2V214.4z M500.4,214.4h2v-1h-2V214.4z M496.4,214.4h2v-1h-2V214.4z M492.4,214.4h2v-1h-2V214.4z M488.4,214.4h2
	v-1h-2V214.4z M484.4,214.4h2v-1h-2V214.4z M480.4,214.4h2v-1h-2V214.4z M476.4,214.4h2v-1h-2V214.4z M472.4,214.4h2v-1h-2V214.4z
	 M468.4,214.4h2v-1h-2V214.4z M464.4,214.4h2v-1h-2V214.4z M460.4,214.4h2v-1h-2V214.4z M456.4,214.4h2v-1h-2V214.4z M452.4,214.4h2
	v-1h-2V214.4z M448.4,214.4h2v-1h-2V214.4z M444.4,214.4h2v-1h-2V214.4z M440.4,214.4h2v-1h-2V214.4z M436.4,214.4h2v-1h-2V214.4z
	 M432.4,214.4h2v-1h-2V214.4z M428.4,214.4h2v-1h-2V214.4z M424.4,214.4h2v-1h-2V214.4z M420.4,214.4h2v-1h-2V214.4z M416.4,214.4h2
	v-1h-2V214.4z M412.4,214.4h2v-1h-2V214.4z M408.4,214.4h2v-1h-2V214.4z M404.4,214.4h2v-1h-2V214.4z M400.4,214.4h2v-1h-2V214.4z
	 M396.4,214.4h2v-1h-2V214.4z M392.4,214.4h2v-1h-2V214.4z M388.4,214.4h2v-1h-2V214.4z M384.4,214.4h2v-1h-2V214.4z M380.4,214.4h2
	v-1h-2V214.4z M376.4,214.4h2v-1h-2V214.4z M372.4,214.4h2v-1h-2V214.4z M368.4,214.4h2v-1h-2V214.4z M364.4,214.4h2v-1h-2V214.4z
	 M360.4,214.4h2v-1h-2V214.4z M356.4,214.4h2v-1h-2V214.4z M352.4,214.4h2v-1h-2V214.4z M348.4,214.4h2v-1h-2V214.4z M344.4,214.4h2
	v-1h-2V214.4z M340.4,214.4h2v-1h-2V214.4z M336.4,214.4h2v-1h-2V214.4z M332.4,214.4h2v-1h-2V214.4z M328.4,214.4h2v-1h-2V214.4z
	 M324.4,214.4h2v-1h-2V214.4z M320.4,214.4h2v-1h-2V214.4z M316.4,214.4h2v-1h-2V214.4z M312.4,214.4h2v-1h-2V214.4z M308.4,214.4h2
	v-1h-2V214.4z M304.4,214.4h2v-1h-2V214.4z M300.4,214.4h2v-1h-2V214.4z M296.4,214.4h2v-1h-2V214.4z M292.4,214.4h2v-1h-2V214.4z
	 M288.4,214.4h2v-1h-2V214.4z M284.4,214.4h2v-1h-2V214.4z M280.4,214.4h2v-1h-2V214.4z M276.4,214.4h2v-1h-2V214.4z M272.4,214.4h2
	v-1h-2V214.4z M268.4,214.4h2v-1h-2V214.4z M264.4,214.4h2v-1h-2V214.4z M260.4,214.4h2v-1h-2V214.4z M256.4,214.4h2v-1h-2V214.4z
	 M252.4,214.4h2v-1h-2V214.4z M248.4,214.4h2v-1h-2V214.4z M244.4,214.4h2v-1h-2V214.4z M240.4,214.4h2v-1h-2V214.4z M236.4,214.4h2
	v-1h-2V214.4z M232.4,214.4h2v-1h-2V214.4z M228.4,214.4h2v-1h-2V214.4z M224.4,214.4h2v-1h-2V214.4z M220.4,214.4h2v-1h-2V214.4z
	 M216.4,214.4h2v-1h-2V214.4z M212.4,214.4h2v-1h-2V214.4z M208.4,214.4h2v-1h-2V214.4z M204.4,214.4h2v-1h-2V214.4z M200.4,214.4h2
	v-1h-2V214.4z M196.4,214.4h2v-1h-2V214.4z M192.4,214.4h2v-1h-2V214.4z M188.4,214.4h2v-1h-2V214.4z M184.4,214.4h2v-1h-2V214.4z
	 M180.4,214.4h2v-1h-2V214.4z M176.4,214.4h2v-1h-2V214.4z M172.4,214.4h2v-1h-2V214.4z M168.4,214.4h2v-1h-2V214.4z M164.4,214.4h2
	v-1h-2V214.4z M160.4,214.4h2v-1h-2V214.4z M156.4,214.4h2v-1h-2V214.4z M152.4,214.4h2v-1h-2V214.4z M148.4,214.4h2v-1h-2V214.4z
	 M144.4,214.4h2v-1h-2V214.4z M140.4,214.4h2v-1h-2V214.4z M136.4,214.4h2v-1h-2V214.4z M132.4,214.4h2v-1h-2V214.4z M128.4,214.4h2
	v-1h-2V214.4z M124.4,214.4h2v-1h-2V214.4z M120.4,214.4h2v-1h-2V214.4z M116.4,214.4h2v-1h-2V214.4z M112.4,214.4h2v-1h-2V214.4z
	 M108.4,214.4h2v-1h-2V214.4z M104.4,214.4h2v-1h-2V214.4z M100.4,214.4h2v-1h-2V214.4z M96.4,214.4h2v-1h-2V214.4z M92.4,214.4h2
	v-1h-2V214.4z M88.4,214.4h2v-1h-2V214.4z M84.4,214.4h2v-1h-2V214.4z M80.4,214.4h2v-1h-2V214.4z M76.4,214.4h2v-1h-2V214.4z
	 M72.4,214.4h2v-1h-2V214.4z M68.4,214.4h2v-1h-2V214.4z M64.4,214.4h2v-1h-2V214.4z M60.4,214.4h2v-1h-2V214.4z M56.4,214.4h2v-1
	h-2V214.4z M52.4,214.4h2v-1h-2V214.4z M48.4,214.4h2v-1h-2V214.4z M44.4,214.4h2v-1h-2V214.4z M40.4,214.4h2v-1h-2V214.4z
	 M36.4,214.4h2v-1h-2V214.4z M32.4,214.4h2v-1h-2V214.4z M28.4,214.4h2v-1h-2V214.4z M24.4,214.4h2v-1h-2V214.4z M20.4,214.4h2v-1
	h-2V214.4z M16.4,214.4h2v-1h-2V214.4z M12.4,214.4h2v-1h-2V214.4z M8.4,214.4h2v-1h-2V214.4z M4.4,214.4h2v-1h-2V214.4z M0.4,214.4
	h2v-1h-2V214.4z"/>
<path id="XMLID_761_" fill="#D1D2CD" d="M532.4,69.4L532.4,69.4l0-1h0V69.4z M528.4,69.4h2v-1h-2V69.4z M524.4,69.4h2v-1h-2V69.4z
	 M520.4,69.4h2v-1h-2V69.4z M516.4,69.4h2v-1h-2V69.4z M512.4,69.4h2v-1h-2V69.4z M508.4,69.4h2v-1h-2V69.4z M504.4,69.4h2v-1h-2
	V69.4z M500.4,69.4h2v-1h-2V69.4z M496.4,69.4h2v-1h-2V69.4z M492.4,69.4h2v-1h-2V69.4z M488.4,69.4h2v-1h-2V69.4z M484.4,69.4h2v-1
	h-2V69.4z M480.4,69.4h2v-1h-2V69.4z M476.4,69.4h2v-1h-2V69.4z M472.4,69.4h2v-1h-2V69.4z M468.4,69.4h2v-1h-2V69.4z M464.4,69.4h2
	v-1h-2V69.4z M460.4,69.4h2v-1h-2V69.4z M456.4,69.4h2v-1h-2V69.4z M452.4,69.4h2v-1h-2V69.4z M448.4,69.4h2v-1h-2V69.4z
	 M444.4,69.4h2v-1h-2V69.4z M440.4,69.4h2v-1h-2V69.4z M436.4,69.4h2v-1h-2V69.4z M432.4,69.4h2v-1h-2V69.4z M428.4,69.4h2v-1h-2
	V69.4z M424.4,69.4h2v-1h-2V69.4z M420.4,69.4h2v-1h-2V69.4z M416.4,69.4h2v-1h-2V69.4z M412.4,69.4h2v-1h-2V69.4z M408.4,69.4h2v-1
	h-2V69.4z M404.4,69.4h2v-1h-2V69.4z M400.4,69.4h2v-1h-2V69.4z M396.4,69.4h2v-1h-2V69.4z M392.4,69.4h2v-1h-2V69.4z M388.4,69.4h2
	v-1h-2V69.4z M384.4,69.4h2v-1h-2V69.4z M380.4,69.4h2v-1h-2V69.4z M376.4,69.4h2v-1h-2V69.4z M372.4,69.4h2v-1h-2V69.4z
	 M368.4,69.4h2v-1h-2V69.4z M364.4,69.4h2v-1h-2V69.4z M360.4,69.4h2v-1h-2V69.4z M356.4,69.4h2v-1h-2V69.4z M352.4,69.4h2v-1h-2
	V69.4z M348.4,69.4h2v-1h-2V69.4z M344.4,69.4h2v-1h-2V69.4z M340.4,69.4h2v-1h-2V69.4z M336.4,69.4h2v-1h-2V69.4z M332.4,69.4h2v-1
	h-2V69.4z M328.4,69.4h2v-1h-2V69.4z M324.4,69.4h2v-1h-2V69.4z M320.4,69.4h2v-1h-2V69.4z M316.4,69.4h2v-1h-2V69.4z M312.4,69.4h2
	v-1h-2V69.4z M308.4,69.4h2v-1h-2V69.4z M304.4,69.4h2v-1h-2V69.4z M300.4,69.4h2v-1h-2V69.4z M296.4,69.4h2v-1h-2V69.4z
	 M292.4,69.4h2v-1h-2V69.4z M288.4,69.4h2v-1h-2V69.4z M284.4,69.4h2v-1h-2V69.4z M280.4,69.4h2v-1h-2V69.4z M276.4,69.4h2v-1h-2
	V69.4z M272.4,69.4h2v-1h-2V69.4z M268.4,69.4h2v-1h-2V69.4z M264.4,69.4h2v-1h-2V69.4z M260.4,69.4h2v-1h-2V69.4z M256.4,69.4h2v-1
	h-2V69.4z M252.4,69.4h2v-1h-2V69.4z M248.4,69.4h2v-1h-2V69.4z M244.4,69.4h2v-1h-2V69.4z M240.4,69.4h2v-1h-2V69.4z M236.4,69.4h2
	v-1h-2V69.4z M232.4,69.4h2v-1h-2V69.4z M228.4,69.4h2v-1h-2V69.4z M224.4,69.4h2v-1h-2V69.4z M220.4,69.4h2v-1h-2V69.4z
	 M216.4,69.4h2v-1h-2V69.4z M212.4,69.4h2v-1h-2V69.4z M208.4,69.4h2v-1h-2V69.4z M204.4,69.4h2v-1h-2V69.4z M200.4,69.4h2v-1h-2
	V69.4z M196.4,69.4h2v-1h-2V69.4z M192.4,69.4h2v-1h-2V69.4z M188.4,69.4h2v-1h-2V69.4z M184.4,69.4h2v-1h-2V69.4z M180.4,69.4h2v-1
	h-2V69.4z M176.4,69.4h2v-1h-2V69.4z M172.4,69.4h2v-1h-2V69.4z M168.4,69.4h2v-1h-2V69.4z M164.4,69.4h2v-1h-2V69.4z M160.4,69.4h2
	v-1h-2V69.4z M156.4,69.4h2v-1h-2V69.4z M152.4,69.4h2v-1h-2V69.4z M148.4,69.4h2v-1h-2V69.4z M144.4,69.4h2v-1h-2V69.4z
	 M140.4,69.4h2v-1h-2V69.4z M136.4,69.4h2v-1h-2V69.4z M132.4,69.4h2v-1h-2V69.4z M128.4,69.4h2v-1h-2V69.4z M124.4,69.4h2v-1h-2
	V69.4z M120.4,69.4h2v-1h-2V69.4z M116.4,69.4h2v-1h-2V69.4z M112.4,69.4h2v-1h-2V69.4z M108.4,69.4h2v-1h-2V69.4z M104.4,69.4h2v-1
	h-2V69.4z M100.4,69.4h2v-1h-2V69.4z M96.4,69.4h2v-1h-2V69.4z M92.4,69.4h2v-1h-2V69.4z M88.4,69.4h2v-1h-2V69.4z M84.4,69.4h2v-1
	h-2V69.4z M80.4,69.4h2v-1h-2V69.4z M76.4,69.4h2v-1h-2V69.4z M72.4,69.4h2v-1h-2V69.4z M68.4,69.4h2v-1h-2V69.4z M64.4,69.4h2v-1
	h-2V69.4z M60.4,69.4h2v-1h-2V69.4z M56.4,69.4h2v-1h-2V69.4z M52.4,69.4h2v-1h-2V69.4z M48.4,69.4h2v-1h-2V69.4z M44.4,69.4h2v-1
	h-2V69.4z M40.4,69.4h2v-1h-2V69.4z M36.4,69.4h2v-1h-2V69.4z M32.4,69.4h2v-1h-2V69.4z M28.4,69.4h2v-1h-2V69.4z M24.4,69.4h2v-1
	h-2V69.4z M20.4,69.4h2v-1h-2V69.4z M16.4,69.4h2v-1h-2V69.4z M12.4,69.4h2v-1h-2V69.4z M8.4,69.4h2v-1h-2V69.4z M4.4,69.4h2v-1h-2
	V69.4z M0.4,69.4h2v-1h-2V69.4z"/>
<path id="XMLID_896_" fill="#D1D2CD" d="M532.4,142.4L532.4,142.4l0-1h0V142.4z M528.4,142.4h2v-1h-2V142.4z M524.4,142.4h2v-1h-2
	V142.4z M520.4,142.4h2v-1h-2V142.4z M516.4,142.4h2v-1h-2V142.4z M512.4,142.4h2v-1h-2V142.4z M508.4,142.4h2v-1h-2V142.4z
	 M504.4,142.4h2v-1h-2V142.4z M500.4,142.4h2v-1h-2V142.4z M496.4,142.4h2v-1h-2V142.4z M492.4,142.4h2v-1h-2V142.4z M488.4,142.4h2
	v-1h-2V142.4z M484.4,142.4h2v-1h-2V142.4z M480.4,142.4h2v-1h-2V142.4z M476.4,142.4h2v-1h-2V142.4z M472.4,142.4h2v-1h-2V142.4z
	 M468.4,142.4h2v-1h-2V142.4z M464.4,142.4h2v-1h-2V142.4z M460.4,142.4h2v-1h-2V142.4z M456.4,142.4h2v-1h-2V142.4z M452.4,142.4h2
	v-1h-2V142.4z M448.4,142.4h2v-1h-2V142.4z M444.4,142.4h2v-1h-2V142.4z M440.4,142.4h2v-1h-2V142.4z M436.4,142.4h2v-1h-2V142.4z
	 M432.4,142.4h2v-1h-2V142.4z M428.4,142.4h2v-1h-2V142.4z M424.4,142.4h2v-1h-2V142.4z M420.4,142.4h2v-1h-2V142.4z M416.4,142.4h2
	v-1h-2V142.4z M412.4,142.4h2v-1h-2V142.4z M408.4,142.4h2v-1h-2V142.4z M404.4,142.4h2v-1h-2V142.4z M400.4,142.4h2v-1h-2V142.4z
	 M396.4,142.4h2v-1h-2V142.4z M392.4,142.4h2v-1h-2V142.4z M388.4,142.4h2v-1h-2V142.4z M384.4,142.4h2v-1h-2V142.4z M380.4,142.4h2
	v-1h-2V142.4z M376.4,142.4h2v-1h-2V142.4z M372.4,142.4h2v-1h-2V142.4z M368.4,142.4h2v-1h-2V142.4z M364.4,142.4h2v-1h-2V142.4z
	 M360.4,142.4h2v-1h-2V142.4z M356.4,142.4h2v-1h-2V142.4z M352.4,142.4h2v-1h-2V142.4z M348.4,142.4h2v-1h-2V142.4z M344.4,142.4h2
	v-1h-2V142.4z M340.4,142.4h2v-1h-2V142.4z M336.4,142.4h2v-1h-2V142.4z M332.4,142.4h2v-1h-2V142.4z M328.4,142.4h2v-1h-2V142.4z
	 M324.4,142.4h2v-1h-2V142.4z M320.4,142.4h2v-1h-2V142.4z M316.4,142.4h2v-1h-2V142.4z M312.4,142.4h2v-1h-2V142.4z M308.4,142.4h2
	v-1h-2V142.4z M304.4,142.4h2v-1h-2V142.4z M300.4,142.4h2v-1h-2V142.4z M296.4,142.4h2v-1h-2V142.4z M292.4,142.4h2v-1h-2V142.4z
	 M288.4,142.4h2v-1h-2V142.4z M284.4,142.4h2v-1h-2V142.4z M280.4,142.4h2v-1h-2V142.4z M276.4,142.4h2v-1h-2V142.4z M272.4,142.4h2
	v-1h-2V142.4z M268.4,142.4h2v-1h-2V142.4z M264.4,142.4h2v-1h-2V142.4z M260.4,142.4h2v-1h-2V142.4z M256.4,142.4h2v-1h-2V142.4z
	 M252.4,142.4h2v-1h-2V142.4z M248.4,142.4h2v-1h-2V142.4z M244.4,142.4h2v-1h-2V142.4z M240.4,142.4h2v-1h-2V142.4z M236.4,142.4h2
	v-1h-2V142.4z M232.4,142.4h2v-1h-2V142.4z M228.4,142.4h2v-1h-2V142.4z M224.4,142.4h2v-1h-2V142.4z M220.4,142.4h2v-1h-2V142.4z
	 M216.4,142.4h2v-1h-2V142.4z M212.4,142.4h2v-1h-2V142.4z M208.4,142.4h2v-1h-2V142.4z M204.4,142.4h2v-1h-2V142.4z M200.4,142.4h2
	v-1h-2V142.4z M196.4,142.4h2v-1h-2V142.4z M192.4,142.4h2v-1h-2V142.4z M188.4,142.4h2v-1h-2V142.4z M184.4,142.4h2v-1h-2V142.4z
	 M180.4,142.4h2v-1h-2V142.4z M176.4,142.4h2v-1h-2V142.4z M172.4,142.4h2v-1h-2V142.4z M168.4,142.4h2v-1h-2V142.4z M164.4,142.4h2
	v-1h-2V142.4z M160.4,142.4h2v-1h-2V142.4z M156.4,142.4h2v-1h-2V142.4z M152.4,142.4h2v-1h-2V142.4z M148.4,142.4h2v-1h-2V142.4z
	 M144.4,142.4h2v-1h-2V142.4z M140.4,142.4h2v-1h-2V142.4z M136.4,142.4h2v-1h-2V142.4z M132.4,142.4h2v-1h-2V142.4z M128.4,142.4h2
	v-1h-2V142.4z M124.4,142.4h2v-1h-2V142.4z M120.4,142.4h2v-1h-2V142.4z M116.4,142.4h2v-1h-2V142.4z M112.4,142.4h2v-1h-2V142.4z
	 M108.4,142.4h2v-1h-2V142.4z M104.4,142.4h2v-1h-2V142.4z M100.4,142.4h2v-1h-2V142.4z M96.4,142.4h2v-1h-2V142.4z M92.4,142.4h2
	v-1h-2V142.4z M88.4,142.4h2v-1h-2V142.4z M84.4,142.4h2v-1h-2V142.4z M80.4,142.4h2v-1h-2V142.4z M76.4,142.4h2v-1h-2V142.4z
	 M72.4,142.4h2v-1h-2V142.4z M68.4,142.4h2v-1h-2V142.4z M64.4,142.4h2v-1h-2V142.4z M60.4,142.4h2v-1h-2V142.4z M56.4,142.4h2v-1
	h-2V142.4z M52.4,142.4h2v-1h-2V142.4z M48.4,142.4h2v-1h-2V142.4z M44.4,142.4h2v-1h-2V142.4z M40.4,142.4h2v-1h-2V142.4z
	 M36.4,142.4h2v-1h-2V142.4z M32.4,142.4h2v-1h-2V142.4z M28.4,142.4h2v-1h-2V142.4z M24.4,142.4h2v-1h-2V142.4z M20.4,142.4h2v-1
	h-2V142.4z M16.4,142.4h2v-1h-2V142.4z M12.4,142.4h2v-1h-2V142.4z M8.4,142.4h2v-1h-2V142.4z M4.4,142.4h2v-1h-2V142.4z M0.4,142.4
	h2v-1h-2V142.4z"/>
<polyline id="XMLID_897_" fill="#D1D2CD" points="266.4,284.4 266.4,0.4 265.4,0.4 265.4,284.4 "/>
<polyline id="XMLID_898_" fill="#D1D2CD" points="532.4,284.4 532.4,0.4 531.4,0.4 531.4,284.4 "/>
<rect id="XMLID_899_" x="37.7" y="309.8" fill="#6EA34E" width="2.4" height="10.2"/>
<path id="XMLID_900_" fill="#6EA34E" d="M44.9,309.8l0.2,0.1l0.2,0.1l0.2,0.2l4.8,6.1c0-0.2,0-0.4,0-0.6c0-0.2,0-0.4,0-0.5v-5.4h2.1
	V320H51c-0.2,0-0.3,0-0.5-0.1s-0.2-0.2-0.4-0.3l-4.8-6.1c0,0.2,0,0.4,0,0.5c0,0.2,0,0.3,0,0.5v5.5h-2.1v-10.2h1.2
	C44.7,309.8,44.8,309.8,44.9,309.8z"/>
<path id="XMLID_901_" fill="#6EA34E" d="M54.5,309.8h1.9c0.2,0,0.4,0,0.5,0.1s0.2,0.2,0.3,0.4l2,5.5c0.1,0.2,0.2,0.5,0.3,0.8
	c0.1,0.3,0.2,0.6,0.3,0.9c0.1-0.3,0.1-0.6,0.2-0.9c0.1-0.3,0.2-0.5,0.3-0.8l2-5.5c0-0.1,0.1-0.2,0.3-0.4c0.1-0.1,0.3-0.2,0.5-0.2
	h1.9L60.7,320h-2.1L54.5,309.8z"/>
<polygon id="XMLID_902_" fill="#6EA34E" points="73.6,309.8 73.6,311.6 69.4,311.6 69.4,314 72.7,314 72.7,315.7 69.4,315.7 
	69.4,318.1 73.6,318.1 73.6,320 67.1,320 67.1,309.8 "/>
<path id="XMLID_903_" fill="#6EA34E" d="M82,311.8c-0.1,0.1-0.1,0.2-0.2,0.3s-0.2,0.1-0.3,0.1c-0.1,0-0.2,0-0.3-0.1
	c-0.1-0.1-0.3-0.1-0.4-0.2s-0.3-0.2-0.5-0.2c-0.2-0.1-0.4-0.1-0.7-0.1c-0.4,0-0.8,0.1-1,0.3s-0.3,0.4-0.3,0.8c0,0.2,0.1,0.4,0.2,0.5
	c0.1,0.1,0.3,0.3,0.5,0.3c0.2,0.1,0.5,0.2,0.7,0.3c0.3,0.1,0.6,0.2,0.8,0.3c0.3,0.1,0.6,0.2,0.8,0.4s0.5,0.3,0.7,0.5
	c0.2,0.2,0.4,0.5,0.5,0.8c0.1,0.3,0.2,0.7,0.2,1.1c0,0.5-0.1,0.9-0.2,1.3c-0.2,0.4-0.4,0.8-0.7,1.1c-0.3,0.3-0.7,0.5-1.1,0.7
	s-1,0.3-1.6,0.3c-0.3,0-0.6,0-1-0.1c-0.3-0.1-0.6-0.2-1-0.3c-0.3-0.1-0.6-0.3-0.9-0.4c-0.3-0.2-0.5-0.3-0.7-0.5l0.7-1.1
	c0.1-0.1,0.1-0.2,0.2-0.2c0.1-0.1,0.2-0.1,0.3-0.1c0.1,0,0.3,0,0.4,0.1c0.1,0.1,0.3,0.2,0.5,0.3s0.4,0.2,0.6,0.3s0.5,0.1,0.8,0.1
	c0.4,0,0.8-0.1,1-0.3s0.4-0.5,0.4-0.9c0-0.2-0.1-0.4-0.2-0.6s-0.3-0.3-0.5-0.4s-0.5-0.2-0.7-0.3c-0.3-0.1-0.5-0.2-0.8-0.2
	c-0.3-0.1-0.6-0.2-0.8-0.3c-0.3-0.1-0.5-0.3-0.7-0.5c-0.2-0.2-0.4-0.5-0.5-0.8c-0.1-0.3-0.2-0.7-0.2-1.2c0-0.4,0.1-0.8,0.2-1.1
	c0.2-0.4,0.4-0.7,0.7-1c0.3-0.3,0.7-0.5,1.1-0.7c0.4-0.2,0.9-0.3,1.5-0.3c0.3,0,0.6,0,0.9,0.1c0.3,0,0.6,0.1,0.8,0.2
	s0.5,0.2,0.7,0.3c0.2,0.1,0.4,0.3,0.6,0.5L82,311.8z"/>
<polygon id="XMLID_904_" fill="#6EA34E" points="92.7,309.8 92.7,311.6 89.9,311.6 89.9,320 87.5,320 87.5,311.6 84.6,311.6 
	84.6,309.8 "/>
<polygon id="XMLID_905_" fill="#6EA34E" points="105.8,309.8 105.8,311.6 101.6,311.6 101.6,314.2 105.1,314.2 105.1,316 101.6,316 
	101.6,320 99.2,320 99.2,309.8 "/>
<path id="XMLID_908_" fill="#6EA34E" d="M118.5,314.8c0,0.7-0.1,1.4-0.4,2.1s-0.6,1.2-1.1,1.7c-0.5,0.5-1,0.8-1.7,1.1
	c-0.7,0.3-1.4,0.4-2.2,0.4c-0.8,0-1.5-0.1-2.2-0.4c-0.7-0.3-1.2-0.6-1.7-1.1c-0.5-0.5-0.8-1-1.1-1.7s-0.4-1.3-0.4-2.1
	s0.1-1.4,0.4-2.1s0.6-1.2,1.1-1.7c0.5-0.5,1-0.8,1.7-1.1c0.7-0.3,1.4-0.4,2.2-0.4c0.8,0,1.5,0.1,2.2,0.4c0.7,0.3,1.2,0.6,1.7,1.1
	c0.5,0.5,0.8,1,1.1,1.7C118.3,313.4,118.5,314.1,118.5,314.8z M116.1,314.8c0-0.5-0.1-1-0.2-1.4s-0.3-0.7-0.6-1
	c-0.2-0.3-0.5-0.5-0.9-0.6s-0.8-0.2-1.2-0.2c-0.5,0-0.9,0.1-1.2,0.2c-0.4,0.1-0.7,0.4-0.9,0.6c-0.2,0.3-0.4,0.6-0.6,1
	s-0.2,0.9-0.2,1.4c0,0.5,0.1,1,0.2,1.4c0.1,0.4,0.3,0.7,0.6,1s0.5,0.5,0.9,0.6c0.4,0.1,0.8,0.2,1.2,0.2c0.5,0,0.9-0.1,1.2-0.2
	s0.7-0.4,0.9-0.6s0.4-0.6,0.6-1C116,315.8,116.1,315.4,116.1,314.8z"/>
<path id="XMLID_911_" fill="#6EA34E" d="M123.4,316.2v3.8H121v-10.2h3.3c0.7,0,1.4,0.1,1.9,0.2c0.5,0.2,0.9,0.4,1.3,0.6
	s0.6,0.6,0.7,1s0.2,0.8,0.2,1.2c0,0.3,0,0.6-0.1,0.9c-0.1,0.3-0.2,0.6-0.4,0.8s-0.4,0.5-0.6,0.7c-0.3,0.2-0.5,0.4-0.9,0.5
	c0.2,0.1,0.3,0.2,0.4,0.3s0.3,0.3,0.4,0.4l2.2,3.5h-2.1c-0.4,0-0.7-0.1-0.9-0.4l-1.7-3c-0.1-0.1-0.2-0.2-0.3-0.3s-0.2-0.1-0.4-0.1
	H123.4z M123.4,314.5h1c0.3,0,0.6,0,0.8-0.1c0.2-0.1,0.4-0.2,0.6-0.3c0.1-0.1,0.2-0.3,0.3-0.5s0.1-0.4,0.1-0.6c0-0.4-0.1-0.8-0.4-1
	c-0.3-0.3-0.7-0.4-1.4-0.4h-1V314.5z"/>
<path id="XMLID_912_" fill="#6EA34E" d="M130.9,309.8h2c0.2,0,0.4,0,0.5,0.1s0.2,0.2,0.3,0.4l1.4,5.3c0,0.2,0.1,0.4,0.1,0.6
	s0.1,0.4,0.1,0.6c0-0.2,0.1-0.4,0.2-0.6c0.1-0.2,0.1-0.4,0.2-0.5l1.7-5.3c0-0.1,0.1-0.2,0.3-0.4s0.3-0.2,0.5-0.2h0.7
	c0.2,0,0.4,0,0.5,0.1s0.2,0.2,0.3,0.4l1.6,5.3c0.1,0.2,0.1,0.3,0.2,0.5c0.1,0.2,0.1,0.4,0.1,0.6c0-0.2,0.1-0.4,0.1-0.6
	s0.1-0.4,0.1-0.5l1.4-5.3c0-0.1,0.1-0.3,0.3-0.4c0.1-0.1,0.3-0.2,0.5-0.2h1.9l-3.1,10.2h-2.1l-1.9-6.3c0-0.1-0.1-0.2-0.1-0.3
	s-0.1-0.2-0.1-0.4c0,0.1-0.1,0.3-0.1,0.4s-0.1,0.2-0.1,0.3l-1.9,6.3h-2.1L130.9,309.8z"/>
<path id="XMLID_915_" fill="#6EA34E" d="M156.6,320h-1.8c-0.2,0-0.4,0-0.5-0.1s-0.2-0.2-0.3-0.4l-0.6-1.8h-3.9l-0.6,1.8
	c0,0.1-0.1,0.2-0.3,0.4c-0.1,0.1-0.3,0.2-0.5,0.2h-1.8l3.9-10.2h2.4L156.6,320z M150.1,316.1h2.8l-0.9-2.8c-0.1-0.2-0.1-0.4-0.2-0.6
	c-0.1-0.2-0.2-0.5-0.2-0.8c-0.1,0.3-0.2,0.5-0.2,0.8c-0.1,0.2-0.2,0.5-0.2,0.6L150.1,316.1z"/>
<path id="XMLID_918_" fill="#6EA34E" d="M161.2,316.2v3.8h-2.4v-10.2h3.3c0.7,0,1.4,0.1,1.9,0.2c0.5,0.2,0.9,0.4,1.3,0.6
	s0.6,0.6,0.7,1s0.2,0.8,0.2,1.2c0,0.3,0,0.6-0.1,0.9c-0.1,0.3-0.2,0.6-0.4,0.8s-0.4,0.5-0.6,0.7c-0.3,0.2-0.5,0.4-0.9,0.5
	c0.2,0.1,0.3,0.2,0.4,0.3s0.3,0.3,0.4,0.4l2.2,3.5H165c-0.4,0-0.7-0.1-0.9-0.4l-1.7-3c-0.1-0.1-0.2-0.2-0.3-0.3s-0.2-0.1-0.4-0.1
	H161.2z M161.2,314.5h1c0.3,0,0.6,0,0.8-0.1c0.2-0.1,0.4-0.2,0.6-0.3c0.1-0.1,0.2-0.3,0.3-0.5s0.1-0.4,0.1-0.6c0-0.4-0.1-0.8-0.4-1
	c-0.3-0.3-0.7-0.4-1.4-0.4h-1V314.5z"/>
<path id="XMLID_921_" fill="#6EA34E" d="M178.8,314.8c0,0.7-0.1,1.4-0.4,2c-0.3,0.6-0.6,1.2-1.1,1.6s-1,0.8-1.7,1.1
	c-0.7,0.3-1.4,0.4-2.2,0.4h-4v-10.2h4c0.8,0,1.5,0.1,2.2,0.4c0.7,0.3,1.2,0.6,1.7,1.1s0.8,1,1.1,1.6
	C178.7,313.4,178.8,314.1,178.8,314.8z M176.4,314.8c0-0.5-0.1-1-0.2-1.4c-0.1-0.4-0.3-0.8-0.6-1c-0.2-0.3-0.5-0.5-0.9-0.7
	c-0.4-0.2-0.8-0.2-1.2-0.2h-1.6v6.6h1.6c0.5,0,0.9-0.1,1.2-0.2s0.7-0.4,0.9-0.7c0.2-0.3,0.4-0.6,0.6-1
	C176.3,315.8,176.4,315.4,176.4,314.8z"/>
<polygon id="XMLID_922_" fill="#5B5C5A" points="318.9,309.8 318.9,311.6 316,311.6 316,320 313.7,320 313.7,311.6 310.8,311.6 
	310.8,309.8 "/>
<path id="XMLID_925_" fill="#5B5C5A" d="M323.7,316.2v3.8h-2.4v-10.2h3.3c0.7,0,1.4,0.1,1.9,0.2c0.5,0.2,0.9,0.4,1.3,0.6
	c0.3,0.3,0.6,0.6,0.7,1c0.1,0.4,0.2,0.8,0.2,1.2c0,0.3,0,0.6-0.1,0.9c-0.1,0.3-0.2,0.6-0.4,0.8c-0.2,0.2-0.4,0.5-0.6,0.7
	c-0.3,0.2-0.5,0.4-0.9,0.5c0.2,0.1,0.3,0.2,0.4,0.3c0.1,0.1,0.3,0.3,0.4,0.4l2.2,3.5h-2.1c-0.4,0-0.7-0.1-0.9-0.4l-1.7-3
	c-0.1-0.1-0.2-0.2-0.3-0.3c-0.1-0.1-0.2-0.1-0.4-0.1H323.7z M323.7,314.5h1c0.3,0,0.6,0,0.8-0.1c0.2-0.1,0.4-0.2,0.6-0.3
	c0.1-0.1,0.2-0.3,0.3-0.5c0.1-0.2,0.1-0.4,0.1-0.6c0-0.4-0.1-0.8-0.4-1c-0.3-0.3-0.7-0.4-1.4-0.4h-1V314.5z"/>
<path id="XMLID_928_" fill="#5B5C5A" d="M341.5,320h-1.8c-0.2,0-0.4,0-0.5-0.1s-0.2-0.2-0.3-0.4l-0.6-1.8h-3.9l-0.6,1.8
	c0,0.1-0.1,0.2-0.3,0.4c-0.1,0.1-0.3,0.2-0.5,0.2h-1.8l3.9-10.2h2.4L341.5,320z M334.9,316.1h2.8l-0.9-2.8c-0.1-0.2-0.1-0.4-0.2-0.6
	s-0.2-0.5-0.2-0.8c-0.1,0.3-0.2,0.5-0.2,0.8s-0.2,0.5-0.2,0.6L334.9,316.1z"/>
<path id="XMLID_931_" fill="#5B5C5A" d="M353,314.8c0,0.7-0.1,1.4-0.4,2s-0.6,1.2-1.1,1.6c-0.5,0.5-1,0.8-1.7,1.1s-1.4,0.4-2.2,0.4
	h-4v-10.2h4c0.8,0,1.5,0.1,2.2,0.4c0.7,0.3,1.2,0.6,1.7,1.1c0.5,0.5,0.8,1,1.1,1.6S353,314.1,353,314.8z M350.5,314.8
	c0-0.5-0.1-1-0.2-1.4c-0.1-0.4-0.3-0.8-0.6-1c-0.2-0.3-0.5-0.5-0.9-0.7c-0.4-0.2-0.8-0.2-1.2-0.2h-1.6v6.6h1.6
	c0.5,0,0.9-0.1,1.2-0.2c0.4-0.2,0.7-0.4,0.9-0.7c0.2-0.3,0.4-0.6,0.6-1S350.5,315.4,350.5,314.8z"/>
<rect id="XMLID_932_" x="355.7" y="309.8" fill="#5B5C5A" width="2.4" height="10.2"/>
<polygon id="XMLID_933_" fill="#5B5C5A" points="368.8,309.8 368.8,311.6 365.9,311.6 365.9,320 363.5,320 363.5,311.6 360.7,311.6 
	360.7,309.8 "/>
<rect id="XMLID_934_" x="371.3" y="309.8" fill="#5B5C5A" width="2.4" height="10.2"/>
<path id="XMLID_937_" fill="#5B5C5A" d="M387.1,314.8c0,0.7-0.1,1.4-0.4,2.1s-0.6,1.2-1.1,1.7c-0.5,0.5-1,0.8-1.7,1.1
	c-0.7,0.3-1.4,0.4-2.2,0.4c-0.8,0-1.5-0.1-2.2-0.4c-0.7-0.3-1.2-0.6-1.7-1.1c-0.5-0.5-0.8-1-1.1-1.7s-0.4-1.3-0.4-2.1
	s0.1-1.4,0.4-2.1s0.6-1.2,1.1-1.7c0.5-0.5,1-0.8,1.7-1.1c0.7-0.3,1.4-0.4,2.2-0.4c0.8,0,1.5,0.1,2.2,0.4c0.7,0.3,1.2,0.6,1.7,1.1
	c0.5,0.5,0.8,1,1.1,1.7C386.9,313.4,387.1,314.1,387.1,314.8z M384.6,314.8c0-0.5-0.1-1-0.2-1.4s-0.3-0.7-0.6-1
	c-0.2-0.3-0.5-0.5-0.9-0.6c-0.4-0.1-0.8-0.2-1.2-0.2c-0.5,0-0.9,0.1-1.2,0.2s-0.7,0.4-0.9,0.6c-0.2,0.3-0.4,0.6-0.6,1
	s-0.2,0.9-0.2,1.4c0,0.5,0.1,1,0.2,1.4c0.1,0.4,0.3,0.7,0.6,1c0.2,0.3,0.5,0.5,0.9,0.6s0.8,0.2,1.2,0.2c0.5,0,0.9-0.1,1.2-0.2
	c0.4-0.1,0.7-0.4,0.9-0.6c0.2-0.3,0.4-0.6,0.6-1C384.6,315.8,384.6,315.4,384.6,314.8z"/>
<path id="XMLID_938_" fill="#5B5C5A" d="M391.1,309.8l0.2,0.1l0.2,0.1l0.2,0.2l4.8,6.1c0-0.2,0-0.4,0-0.6c0-0.2,0-0.4,0-0.5v-5.4
	h2.1V320h-1.2c-0.2,0-0.3,0-0.5-0.1c-0.1-0.1-0.2-0.2-0.4-0.3l-4.8-6.1c0,0.2,0,0.4,0,0.5c0,0.2,0,0.3,0,0.5v5.5h-2.1v-10.2h1.2
	C391,309.8,391,309.8,391.1,309.8z"/>
<path id="XMLID_941_" fill="#5B5C5A" d="M411.1,320h-1.8c-0.2,0-0.4,0-0.5-0.1s-0.2-0.2-0.3-0.4l-0.6-1.8H404l-0.6,1.8
	c0,0.1-0.1,0.2-0.3,0.4c-0.1,0.1-0.3,0.2-0.5,0.2h-1.8l3.9-10.2h2.4L411.1,320z M404.5,316.1h2.8l-0.9-2.8c-0.1-0.2-0.1-0.4-0.2-0.6
	c-0.1-0.2-0.2-0.5-0.2-0.8c-0.1,0.3-0.2,0.5-0.2,0.8c-0.1,0.2-0.2,0.5-0.2,0.6L404.5,316.1z"/>
<polygon id="XMLID_942_" fill="#5B5C5A" points="415.6,318.1 419.4,318.1 419.4,320 413.3,320 413.3,309.8 415.6,309.8 "/>
<path id="XMLID_943_" fill="#6EA34E" d="M1.4,263.6c1.4,0,8.9-0.1,21.3-0.9c43.1-2.6,145.1-12.7,249.1-49.7
	c52-18.5,104.6-43.8,150.5-78.2c46-34.5,85.3-78.2,110.9-133.6L530.5,0c-29,62.7-75.8,110.3-130,146.6
	c-81.2,54.3-179,82.9-257.5,97.8c-39.2,7.5-73.7,11.5-98.8,13.7c-25.1,2.2-40.9,2.5-42.9,2.5V263.6L1.4,263.6z"/>
<path id="XMLID_944_" fill="#5B5C5A" d="M1.4,275.6c0,0,105.6-1.1,224.8-19.6c59.6-9.2,122.7-22.8,177.7-42.7
	c55-20,102.1-46.3,129.6-81.3l-2.4-1.9c-26.9,34.3-73.5,60.5-128.3,80.3c-82.1,29.8-182.6,45.3-262.4,53.4
	c-39.9,4-74.7,6.2-99.5,7.4c-12.4,0.6-22.3,0.9-29.1,1.1c-3.4,0.1-6,0.1-7.8,0.2c-1.8,0-2.7,0-2.7,0L1.4,275.6L1.4,275.6z"/>
<polyline id="XMLID_945_" fill="#6EA34E" points="0.4,315.4 21.4,315.4 21.4,312.4 0.4,312.4 "/>
<polyline id="XMLID_946_" fill="#5B5C5A" points="277.4,315.4 298.4,315.4 298.4,312.4 277.4,312.4 "/>
</svg>
