<?xml version="1.0" encoding="utf-8"?>
<!-- Generator: Adobe Illustrator 19.0.0, SVG Export Plug-In . SVG Version: 6.00 Build 0)  -->
<!DOCTYPE svg PUBLIC "-//W3C//DTD SVG 1.1//EN" "http://www.w3.org/Graphics/SVG/1.1/DTD/svg11.dtd">
<svg version="1.1" id="Layer_1" xmlns="http://www.w3.org/2000/svg" xmlns:xlink="http://www.w3.org/1999/xlink" x="0px" y="0px"
	 viewBox="0 0 671 372.6" enable-background="new 0 0 671 372.6" xml:space="preserve">
<g id="XMLID_2_">
	<g id="XMLID_121_">
		<rect id="XMLID_41_" x="1" y="0.4" fill="#FFFFFF" width="669" height="371.2"/>
		<path id="XMLID_37_" fill="#B1B3AB" d="M669,1.4v369.2H2V1.4H669 M671-0.6H0v373.2h671V-0.6L671-0.6z"/>
	</g>
	<g id="XMLID_88_">
		<g id="XMLID_118_">
			<text id="XMLID_52_" transform="matrix(1 0 0 1 40 51.0645)"><tspan x="0" y="0" fill="#2B2D2B" font-family="'Vollkorn-Regular'" font-size="19px">I am </tspan><tspan x="40.3" y="0" fill="#6EA34E" font-family="'Vollkorn-Regular'" font-size="19px">32 </tspan><tspan x="64.1" y="0" fill="#2B2D2B" font-family="'Vollkorn-Regular'" font-size="19px">years old</tspan></text>
		</g>
		<g id="XMLID_115_">
			
				<text id="XMLID_102_" transform="matrix(1 0 0 1 40 137.0605)" fill="#2B2D2B" font-family="'Vollkorn-Regular'" font-size="19px">I am investing for</text>
		</g>
		<g id="XMLID_112_">
			
				<text id="XMLID_104_" transform="matrix(1 0 0 1 40 269.6318)" fill="#2B2D2B" font-family="'Vollkorn-Regular'" font-size="19px">Risk tolerance </text>
		</g>
		
			<line id="XMLID_111_" fill="none" stroke="#6EA34E" stroke-width="3" stroke-miterlimit="10" x1="80" y1="64.5" x2="104" y2="64.5"/>
		<g id="XMLID_106_">
			<path id="XMLID_28_" fill="#B1B3AB" d="M66,160.2v24H42v-24H66 M68,158.2H40v28h28V158.2L68,158.2z"/>
		</g>
		<g id="XMLID_101_">
			<path id="XMLID_23_" fill="#B1B3AB" d="M207.2,160.2v24h-24v-24H207.2 M209.2,158.2h-28v28h28V158.2L209.2,158.2z"/>
		</g>
		
			<text id="XMLID_100_" transform="matrix(1 0 0 1 81 177.0586)" fill="#010101" font-family="'Vollkorn-Regular'" font-size="17px">Retirement</text>
		
			<text id="XMLID_99_" transform="matrix(1 0 0 1 224.3677 177.0586)" fill="#010101" font-family="'Vollkorn-Regular'" font-size="17px">Building Wealth</text>
		<polyline id="XMLID_98_" fill="none" stroke="#6EA34E" stroke-width="6" stroke-miterlimit="10" points="216.5,157.2 196.7,177.1 
			188,168.3 		"/>
		<line id="XMLID_97_" fill="none" stroke="#D1D2CD" stroke-miterlimit="10" x1="40" y1="89.5" x2="349" y2="89.5"/>
		<line id="XMLID_96_" fill="none" stroke="#D1D2CD" stroke-miterlimit="10" x1="40" y1="222.5" x2="349" y2="222.5"/>
		
			<line id="XMLID_95_" fill="none" stroke="#D1D2CD" stroke-width="5" stroke-miterlimit="10" x1="41" y1="304.5" x2="350" y2="304.5"/>
		
			<line id="XMLID_94_" fill="none" stroke="#D1D2CD" stroke-width="2" stroke-miterlimit="10" x1="349" y1="294" x2="349" y2="315"/>
		<line id="XMLID_93_" fill="none" stroke="#D1D2CD" stroke-width="2" stroke-miterlimit="10" x1="41" y1="294" x2="41" y2="315"/>
		
			<line id="XMLID_92_" fill="none" stroke="#D1D2CD" stroke-width="2" stroke-miterlimit="10" x1="195" y1="294" x2="195" y2="315"/>
		
			<line id="XMLID_91_" fill="none" stroke="#D1D2CD" stroke-width="2" stroke-miterlimit="10" x1="272" y1="294" x2="272" y2="315"/>
		
			<line id="XMLID_90_" fill="none" stroke="#D1D2CD" stroke-width="2" stroke-miterlimit="10" x1="118" y1="294" x2="118" y2="315"/>
		<circle id="XMLID_89_" fill="#6EA34E" cx="272" cy="304.4" r="11"/>
	</g>
	<g id="XMLID_27_">
		<g id="XMLID_54_">
			<defs>
				<path id="XMLID_56_" d="M510.8,70.1c14.2,0,28,2.8,40.9,8.3c12.5,5.3,23.8,12.9,33.4,22.5c9.7,9.7,17.2,20.9,22.5,33.4
					c5.5,13,8.3,26.7,8.3,40.9s-2.8,28-8.3,40.9c-5.3,12.5-12.9,23.8-22.5,33.4c-9.7,9.7-20.9,17.2-33.4,22.5
					c-13,5.5-26.7,8.3-40.9,8.3c-14.2,0-28-2.8-40.9-8.3c-12.5-5.3-23.8-12.9-33.4-22.5c-9.7-9.7-17.2-20.9-22.5-33.4
					c-5.5-13-8.3-26.7-8.3-40.9s2.8-28,8.3-40.9c5.3-12.5,12.9-23.8,22.5-33.4c9.7-9.7,20.9-17.2,33.4-22.5
					C482.8,72.9,496.6,70.1,510.8,70.1 M510.8,51.5c-68.4,0-123.8,55.4-123.8,123.8s55.4,123.8,123.8,123.8s123.8-55.4,123.8-123.8
					S579.2,51.5,510.8,51.5z"/>
			</defs>
			<clipPath id="XMLID_19_">
				<use xlink:href="#XMLID_56_"  overflow="visible"/>
			</clipPath>
			<g id="XMLID_71_" clip-path="url(#XMLID_19_)">
				<path id="XMLID_87_" fill="#6EA34E" d="M510.9,174.8L510.9,174.8l19.3,122.3l0.1,0l0-0.1c-7.1,1.1-14,1.7-20.9,1.7
					c-25.6,0-49.4-7.9-71.2-23.8l0,0.1l0.1,0L510.9,174.8L510.9,174.8L510.9,174.8L510.9,174.8L510.9,174.8L438.1,275l0.1,0
					c21.8,15.9,45.6,23.8,71.3,23.8c6.8,0,13.8-0.6,20.9-1.7l0.1,0L511,174.7L510.9,174.8L510.9,174.8z"/>
				<path id="XMLID_86_" fill="#6EA34E" d="M510.9,174.8L510.9,174.8l87.5,87.6l0,0l0,0c-19.3,19.3-41.1,30.4-68.1,34.7l0,0.1l0.1,0
					L510.9,174.8L510.9,174.8L510.9,174.8L510.9,174.8L510.9,174.8l19.3,122.3l0.1,0c27-4.3,48.8-15.4,68.2-34.7l0,0l-87.7-87.7
					L510.9,174.8L510.9,174.8z"/>
				<path id="XMLID_85_" fill="#6EA34E" d="M510.9,174.8L510.9,174.8l117.7,38.3l0-0.1l-0.1,0c-6.3,19.5-15.7,34.7-30.2,49.2l0,0
					l0,0L510.9,174.8L510.9,174.8L510.9,174.8L510.9,174.8L510.9,174.8l87.5,87.6l0,0c14.5-14.5,23.9-29.8,30.2-49.3l0-0.1
					l-118-38.4L510.9,174.8L510.9,174.8z"/>
				<path id="XMLID_84_" fill="#6EA34E" d="M510.9,174.8L510.9,174.8l122.2,19.4l0-0.1l-0.1,0c-1.1,6.7-2.4,12.4-4.5,18.9l0.1,0
					l0-0.1L510.9,174.8L510.9,174.8L510.9,174.8L510.9,174.8L510.9,174.8l117.8,38.3l0-0.1c2.1-6.5,3.5-12.1,4.5-18.9l0-0.1
					L510.9,174.8L510.9,174.8L510.9,174.8z"/>
				<path id="XMLID_83_" fill="#5E8842" d="M510.9,174.8l122.2-19.4c2.1,13.5,2.1,25.2,0,38.7L510.9,174.8z"/>
				<path id="XMLID_82_" fill="#6EA34E" d="M510.9,174.8L510.9,174.8l122.3-19.3l0-0.1l-0.1,0c1.1,6.7,1.6,13,1.6,19.4
					c0,6.3-0.5,12.6-1.6,19.4l0.1,0l0-0.1L510.9,174.8L510.9,174.8L510.9,174.8L510.9,174.8L510.9,174.8l122.3,19.4l0-0.1
					c1.1-6.8,1.6-13.1,1.6-19.4c0-6.3-0.5-12.6-1.6-19.4l0-0.1L510.9,174.8h-0.4H510.9L510.9,174.8z"/>
				<path id="XMLID_81_" fill="#6EA34E" d="M510.9,174.8L510.9,174.8l87.6-87.5l0,0l0,0c19.3,19.3,30.4,41.1,34.7,68.1l0.1,0l0-0.1
					L510.9,174.8L510.9,174.8L510.9,174.8L510.9,174.8L510.9,174.8l122.3-19.3l0-0.1c-4.3-27-15.4-48.8-34.7-68.2l0,0l-87.7,87.7
					L510.9,174.8L510.9,174.8z"/>
				<path id="XMLID_80_" fill="#6EA34E" d="M510.9,174.8l38.2-117.7c19.5,6.3,34.8,15.7,49.3,30.2L510.9,174.8z"/>
				<path id="XMLID_79_" fill="#6EA34E" d="M510.9,174.8L510.9,174.8l38.3-117.7l-0.1,0l0,0.1c19.5,6.3,34.7,15.7,49.2,30.2l0,0l0,0
					L510.9,174.8L510.9,174.8L510.9,174.8L510.9,174.8L510.9,174.8l87.6-87.5l0,0c-14.5-14.5-29.8-23.9-49.3-30.2l-0.1,0l-38.4,118
					L510.9,174.8L510.9,174.8z"/>
				<path id="XMLID_78_" fill="#43642F" d="M510.9,174.8l19.4,122.2c-33.8,5.3-64.5-2-92.1-22.1L510.9,174.8z"/>
				<path id="XMLID_77_" fill="#4E833C" d="M510.9,174.8l87.5,87.5c-19.3,19.3-41.1,30.4-68.2,34.7L510.9,174.8z"/>
				<path id="XMLID_76_" fill="#4D7B39" d="M510.9,174.8l117.7,38.2c-6.3,19.5-15.7,34.8-30.2,49.3L510.9,174.8z"/>
				<path id="XMLID_75_" fill="#638949" d="M510.9,174.8l122.2,19.4c-1.1,6.8-2.4,12.4-4.5,18.9L510.9,174.8z"/>
				<path id="XMLID_74_" fill="#497336" d="M510.9,174.8l87.5-87.5c19.3,19.3,30.4,41.1,34.7,68.2L510.9,174.8z"/>
				<path id="XMLID_73_" fill="#6EA34E" d="M510.9,174.8V51.1c13.7,0,25.2,1.8,38.2,6.1L510.9,174.8z"/>
				<path id="XMLID_72_" fill="#6EA34E" d="M510.9,174.8L510.9,174.8L511,51.1h-0.1v0.1c13.7,0,25.2,1.8,38.2,6.1l0-0.1l-0.1,0
					L510.9,174.8L510.9,174.8L510.9,174.8L510.9,174.8L510.9,174.8l38.3-117.8l-0.1,0c-13-4.2-24.6-6.1-38.3-6.1h-0.1v124.3
					L510.9,174.8L510.9,174.8z"/>
			</g>
			<g id="XMLID_62_" clip-path="url(#XMLID_19_)">
				<path id="XMLID_70_" fill="#242621" d="M510.9,174.8l-100.1-72.7c4-5.5,7.8-9.9,12.6-14.8L510.9,174.8z"/>
				<g id="XMLID_63_">
					<path id="XMLID_69_" fill="#1D1E1C" d="M510.9,174.8L454.8,64.6c18.3-9.3,35.7-13.5,56.2-13.5V174.8z"/>
					<path id="XMLID_68_" fill="#2B2D2B" d="M510.9,174.8l-87.5-87.5c9.7-9.7,19.1-16.6,31.3-22.8L510.9,174.8z"/>
					<path id="XMLID_67_" fill="#1D1E1C" d="M510.9,174.8l-110.3-56.2c3.1-6.1,6.1-11,10.1-16.6L510.9,174.8z"/>
					<path id="XMLID_66_" fill="#1D1E1D" d="M510.9,174.8l-117.7-38.2c2.1-6.5,4.3-11.9,7.4-17.9L510.9,174.8z"/>
					<path id="XMLID_65_" fill="#282B27" d="M510.9,174.8H387.2c0-13.7,1.8-25.2,6.1-38.2L510.9,174.8z"/>
					<path id="XMLID_64_" fill="#1D1E1C" d="M510.9,174.8L438.2,275c-33.2-24.1-51-59.1-51-100.1H510.9z"/>
				</g>
			</g>
			<g id="XMLID_59_" clip-path="url(#XMLID_19_)">
				<defs>
					<path id="XMLID_60_" d="M454.8,64.6c-12.2,6.2-21.7,13.1-31.3,22.8c-4.8,4.8-8.6,9.2-12.6,14.8c-4,5.5-7,10.5-10.2,16.6
						c-3.1,6.1-5.3,11.4-7.4,17.9c-4.2,13-6.1,24.6-6.1,38.2c0,41,17.9,76,51,100.1L511,174.8V51.1C491,51.1,473.1,55.3,454.8,64.6z
						"/>
				</defs>
				<clipPath id="XMLID_20_">
					<use xlink:href="#XMLID_60_"  overflow="visible"/>
				</clipPath>
				
					<rect id="XMLID_61_" x="380.7" y="46.3" opacity="0.3" clip-path="url(#XMLID_20_)" fill="#FFFFFF" width="133.5" height="238.7"/>
			</g>
		</g>
		<g id="XMLID_51_">
			
				<text id="XMLID_107_" transform="matrix(1 0 0 1 439.7627 197.2402)" fill="#2B2D2B" font-family="'Lato-Black'" font-size="12px" letter-spacing="1">Bonds</text>
		</g>
		<g id="XMLID_48_">
			
				<text id="XMLID_109_" transform="matrix(1 0 0 1 445.2808 177.7852)" fill="#2B2D2B" font-family="'Lato-Regular'" font-size="28px" letter-spacing="2">40</text>
		</g>
		<g id="XMLID_45_">
			
				<text id="XMLID_113_" transform="matrix(1 0 0 1 527.1045 197.2402)" fill="#6EA34E" font-family="'Lato-Black'" font-size="12px" letter-spacing="1">Stocks</text>
		</g>
		<g id="XMLID_42_">
			
				<text id="XMLID_116_" transform="matrix(1 0 0 1 535.4932 177.7852)" fill="#6EA34E" font-family="'Lato-Regular'" font-size="28px" letter-spacing="2">60</text>
		</g>
		<line id="XMLID_35_" fill="none" stroke="#B1B3AB" stroke-miterlimit="10" x1="509.5" y1="138" x2="509.5" y2="212"/>
	</g>
	<g id="XMLID_6_">
		
			<text id="XMLID_117_" transform="matrix(1 0 0 1 311 335.1924)" fill="#D1D2CD" font-family="'Lato-Black'" font-size="12px" letter-spacing="1">risky</text>
	</g>
	<g id="XMLID_3_">
		
			<text id="XMLID_119_" transform="matrix(1 0 0 1 40 335.1924)" fill="#D1D2CD" font-family="'Lato-Black'" font-size="12px" letter-spacing="1">conservative </text>
	</g>
</g>
</svg>
