<?xml version="1.0" encoding="utf-8"?>
<!-- Generator: Adobe Illustrator 19.0.0, SVG Export Plug-In . SVG Version: 6.00 Build 0)  -->
<!DOCTYPE svg PUBLIC "-//W3C//DTD SVG 1.1//EN" "http://www.w3.org/Graphics/SVG/1.1/DTD/svg11.dtd">
<svg version="1.1" id="Layer_1" xmlns="http://www.w3.org/2000/svg" xmlns:xlink="http://www.w3.org/1999/xlink" x="0px" y="0px"
	 viewBox="0 0 48.9 48.9" enable-background="new 0 0 48.9 48.9" xml:space="preserve">
<circle id="XMLID_25_" fill="#6EA34E" cx="24.4" cy="24.8" r="24.4"/>
<g id="XMLID_18_">
	<path id="XMLID_24_" fill="#FFFFFF" d="M24.8,22.5c2.6-0.5,4.2-2,4.9-4.4c0.8-2.5-0.3-4.5-2.1-6.3c1.4,0.3,2.9,2,3.7,4.1
		c0.8,1.9,0.3,3.7-0.7,5.4c3.6,0.7,6.1,2.5,6.6,6.4c-0.4-0.8-0.8-1.5-1.3-2.2c-2.2-2.7-5.7-2.7-8.4,0c-0.5,0.5-0.8,0.5-1.2,0.1
		c-0.2-0.1-0.3-0.4-0.4-0.6c-0.3-0.4-0.5-0.8-0.7-1.3C25,23.4,24.9,23,24.8,22.5z"/>
	<path id="XMLID_23_" fill="#FFFFFF" d="M20.6,12.5c-3.6,3.1-2,8.8,3.3,9.9c0.1,0.7,0.2,1.3-0.6,1.8c-0.2,0.1-0.4,0.4-0.3,0.6
		c0,0.8-0.5,1-1,1.2c-4.6-3.8-8-2.8-10.4,2.9c-0.3-1.3,0.3-3.3,1.6-5.1c1.2-1.6,2.9-2.2,5-2.2c-0.8-2.4-1.1-4.8,0.3-7
		C19,13.5,19.8,12.8,20.6,12.5z"/>
	<path id="XMLID_22_" fill="#FFFFFF" d="M34,34.6c-3,2.3-6.9,1.4-9.4-2.1c-2.3,2.8-5,4.1-8.8,2.6c0.9,0,1.7,0.1,2.4,0
		c3.4-0.7,5.2-3.4,4.5-6.9c0-0.2-0.1-0.4-0.1-0.6c0-0.3,0-0.7,0.1-0.8c0.3-0.2,0.7-0.3,1.1-0.3c0.4,0,0.9,0.2,1.2,0
		c0.5-0.3,0.9,0,1.1,0.3c0.2,0.2,0.1,0.6,0.1,0.9c-1.1,4.4,2.4,8,6.9,7.2C33.4,34.7,33.7,34.6,34,34.6z"/>
	<path id="XMLID_21_" fill="#FFFFFF" d="M27.6,20.3c-0.4,0.5-0.8,0.7-1.5,0.5c-1.4-0.6-2.8-0.5-4.2,0.4c-0.3-0.2-0.5-0.4-0.8-0.7
		C22.4,19,25.8,18.9,27.6,20.3z"/>
	<path id="XMLID_20_" fill="#FFFFFF" d="M22,30.5c-2-0.8-3.6-3.6-3.3-5.6c0.7,0,1.1,0.3,1.1,1.1c0.1,1.3,0.8,2.3,1.8,3.1
		C22.4,29.6,22.4,29.6,22,30.5z"/>
	<path id="XMLID_19_" fill="#FFFFFF" d="M30.2,24.7c0.3,2.3-1.1,4.7-3.1,5.8c-0.3-0.6-0.4-1,0.3-1.5c1.1-0.8,1.7-1.9,1.7-3.2
		C29.1,24.9,29.5,24.7,30.2,24.7z"/>
</g>
</svg>
