<?xml version="1.0" encoding="utf-8"?>
<!-- Generator: Adobe Illustrator 19.0.0, SVG Export Plug-In . SVG Version: 6.00 Build 0)  -->
<!DOCTYPE svg PUBLIC "-//W3C//DTD SVG 1.1//EN" "http://www.w3.org/Graphics/SVG/1.1/DTD/svg11.dtd">
<svg version="1.1" id="Layer_1" xmlns="http://www.w3.org/2000/svg" xmlns:xlink="http://www.w3.org/1999/xlink" x="0px" y="0px"
	 viewBox="0 0 48.9 48.9" enable-background="new 0 0 48.9 48.9" xml:space="preserve">
<circle id="XMLID_4_" fill="#6EA34E" cx="24.4" cy="24.5" r="24.4"/>
<path id="XMLID_3_" fill="#FFFFFF" d="M32.7,24.5l-8.3-14.4V10v0.1V10v0.1l-8.7,14.4c0,0-1.4,2-1.2,5.1l0.2,0.1
	c0.3,5,3.9,9.2,9.8,9.2v0v0v0v0c4.2,0,9.2-4.2,9.5-9.2l0-0.1C34,26.6,32.7,24.5,32.7,24.5z"/>
<path id="XMLID_2_" fill="#6EA34E" d="M16.7,29.4c0,0.1,0.1,1.7,1,3.4c0.5,0.8,1.1,1.7,2.1,2.4c1,0.7,2.3,1.1,3.9,1.1
	c0.7,0,1.3-0.6,1.3-1.3c0-0.7-0.6-1.3-1.3-1.3c-1.1,0-1.9-0.3-2.4-0.7c-0.4-0.3-0.8-0.7-1.1-1.1c-0.4-0.6-0.7-1.3-0.8-1.9
	c-0.1-0.3-0.1-0.5-0.1-0.7c0-0.1,0-0.1,0-0.2l0,0l0,0l0,0v0l0,0l0,0c0-0.7-0.6-1.2-1.3-1.2C17.2,28.1,16.7,28.7,16.7,29.4L16.7,29.4
	z"/>
</svg>
